<svg xmlns="http://www.w3.org/2000/svg" viewBox="0 0 100 100"><defs><linearGradient id="sheen" x1="0" y1="0" x2="0" y2="1"><stop offset="0" stop-color="white" stop-opacity="0"/><stop offset="1" stop-color="#233454" stop-opacity=".23"/></linearGradient></defs><rect x="12" y="13" width="76" height="76" rx="38.0" fill="#142035" transform="rotate(0 50.0 51.0)"/><rect x="17" y="18" width="66" height="66" rx="33.0" fill="#B46AFF" transform="rotate(0 50.0 51.0)"/><rect x="17" y="18" width="66" height="66" rx="33.0" fill="url(#sheen)" transform="rotate(0 50.0 51.0)"/><rect x="27" y="28" width="46" height="46" rx="23.0" fill="#142035" transform="rotate(0 50.0 51.0)"/><rect x="32" y="33" width="36" height="36" rx="18.0" fill="#FFC842" transform="rotate(0 50.0 51.0)"/><rect x="32" y="33" width="36" height="36" rx="18.0" fill="url(#sheen)" transform="rotate(0 50.0 51.0)"/><rect x="41" y="39" width="18" height="8" rx="4.0" fill="#FFF5DA" transform="rotate(-45 50.0 43.0)"/><rect x="41" y="39" width="18" height="8" rx="4.0" fill="url(#sheen)" transform="rotate(-45 50.0 43.0)"/><rect x="11" y="45" width="20" height="10" rx="5.0" fill="#FFC842" transform="rotate(-35 21.0 50.0)"/><rect x="11" y="45" width="20" height="10" rx="5.0" fill="url(#sheen)" transform="rotate(-35 21.0 50.0)"/><rect x="69" y="45" width="20" height="10" rx="5.0" fill="#FFC842" transform="rotate(35 79.0 50.0)"/><rect x="69" y="45" width="20" height="10" rx="5.0" fill="url(#sheen)" transform="rotate(35 79.0 50.0)"/></svg>