<svg xmlns="http://www.w3.org/2000/svg" viewBox="0 0 100 100"><defs><linearGradient id="sheen" x1="0" y1="0" x2="0" y2="1"><stop offset="0" stop-color="white" stop-opacity="0"/><stop offset="1" stop-color="#233454" stop-opacity=".23"/></linearGradient></defs><rect x="12" y="61" width="64" height="16" rx="8.0" fill="#142035" transform="rotate(-35 44.0 69.0)"/><rect x="16" y="59" width="57" height="10" rx="5.0" fill="#50D6FF" transform="rotate(-35 44.5 64.0)"/><rect x="16" y="59" width="57" height="10" rx="5.0" fill="url(#sheen)" transform="rotate(-35 44.5 64.0)"/><rect x="58" y="16" width="30" height="13" rx="6.5" fill="#142035" transform="rotate(45 73.0 22.5)"/><rect x="60" y="19" width="25" height="8" rx="4.0" fill="#50D6FF" transform="rotate(45 72.5 23.0)"/><rect x="60" y="19" width="25" height="8" rx="4.0" fill="url(#sheen)" transform="rotate(45 72.5 23.0)"/><rect x="73" y="29" width="10" height="30" rx="15.0" fill="#142035" transform="rotate(0 78.0 44.0)"/><rect x="74" y="30" width="6" height="25" rx="12.5" fill="#50D6FF" transform="rotate(0 77.0 42.5)"/><rect x="74" y="30" width="6" height="25" rx="12.5" fill="url(#sheen)" transform="rotate(0 77.0 42.5)"/><rect x="7" y="76" width="35" height="6" rx="3.0" fill="#FFF5DA" transform="rotate(-35 24.5 79.0)"/><rect x="7" y="76" width="35" height="6" rx="3.0" fill="url(#sheen)" transform="rotate(-35 24.5 79.0)"/><rect x="3" y="61" width="22" height="5" rx="2.5" fill="#FFF5DA" transform="rotate(-35 14.0 63.5)"/><rect x="3" y="61" width="22" height="5" rx="2.5" fill="url(#sheen)" transform="rotate(-35 14.0 63.5)"/></svg>