<svg xmlns="http://www.w3.org/2000/svg" viewBox="0 0 100 100"><defs><linearGradient id="sheen" x1="0" y1="0" x2="0" y2="1"><stop offset="0" stop-color="white" stop-opacity="0"/><stop offset="1" stop-color="#233454" stop-opacity=".23"/></linearGradient></defs><rect x="27" y="7" width="46" height="55" rx="23.0" fill="#142035" transform="rotate(0 50.0 34.5)"/><rect x="34" y="15" width="32" height="40" rx="16.0" fill="#FFC842" transform="rotate(0 50.0 35.0)"/><rect x="34" y="15" width="32" height="40" rx="16.0" fill="url(#sheen)" transform="rotate(0 50.0 35.0)"/><rect x="41" y="22" width="18" height="32" rx="9.0" fill="#142035" transform="rotate(0 50.0 38.0)"/><rect x="19" y="43" width="62" height="45" rx="7" fill="#142035" transform="rotate(0 50.0 65.5)"/><rect x="24" y="48" width="52" height="35" rx="5" fill="#FFC842" transform="rotate(0 50.0 65.5)"/><rect x="24" y="48" width="52" height="35" rx="5" fill="url(#sheen)" transform="rotate(0 50.0 65.5)"/><rect x="44" y="55" width="12" height="12" rx="6.0" fill="#142035" transform="rotate(0 50.0 61.0)"/><rect x="47" y="64" width="6" height="12" rx="2" fill="#142035" transform="rotate(0 50.0 70.0)"/></svg>