<svg xmlns="http://www.w3.org/2000/svg" viewBox="0 0 100 100"><defs><linearGradient id="sheen" x1="0" y1="0" x2="0" y2="1"><stop offset="0" stop-color="white" stop-opacity="0"/><stop offset="1" stop-color="#233454" stop-opacity=".23"/></linearGradient></defs><rect x="17" y="15" width="66" height="65" rx="19" fill="#142035" transform="rotate(0 50.0 47.5)"/><rect x="22" y="20" width="56" height="55" rx="17" fill="#62EC70" transform="rotate(0 50.0 47.5)"/><rect x="22" y="20" width="56" height="55" rx="17" fill="url(#sheen)" transform="rotate(0 50.0 47.5)"/><rect x="28" y="25" width="44" height="43" rx="13" fill="#50D6FF" transform="rotate(0 50.0 46.5)"/><rect x="28" y="25" width="44" height="43" rx="13" fill="url(#sheen)" transform="rotate(0 50.0 46.5)"/><rect x="29" y="43" width="24" height="9" rx="4.5" fill="#FFF5DA" transform="rotate(45 41.0 47.5)"/><rect x="29" y="43" width="24" height="9" rx="4.5" fill="url(#sheen)" transform="rotate(45 41.0 47.5)"/><rect x="44" y="39" width="30" height="9" rx="4.5" fill="#FFF5DA" transform="rotate(-45 59.0 43.5)"/><rect x="44" y="39" width="30" height="9" rx="4.5" fill="url(#sheen)" transform="rotate(-45 59.0 43.5)"/></svg>