<svg xmlns="http://www.w3.org/2000/svg" viewBox="0 0 100 100"><defs><linearGradient id="sheen" x1="0" y1="0" x2="0" y2="1"><stop offset="0" stop-color="white" stop-opacity="0"/><stop offset="1" stop-color="#233454" stop-opacity=".23"/></linearGradient></defs><rect x="10" y="30" width="40" height="35" rx="17.5" fill="#142035" transform="rotate(0 30.0 47.5)"/><rect x="31" y="17" width="42" height="46" rx="21.0" fill="#142035" transform="rotate(0 52.0 40.0)"/><rect x="57" y="30" width="32" height="35" rx="16.0" fill="#142035" transform="rotate(0 73.0 47.5)"/><rect x="17" y="44" width="64" height="20" rx="8" fill="#142035" transform="rotate(0 49.0 54.0)"/><rect x="15" y="34" width="32" height="26" rx="13.0" fill="#FFF5DA" transform="rotate(0 31.0 47.0)"/><rect x="15" y="34" width="32" height="26" rx="13.0" fill="url(#sheen)" transform="rotate(0 31.0 47.0)"/><rect x="36" y="22" width="32" height="36" rx="16.0" fill="#FFF5DA" transform="rotate(0 52.0 40.0)"/><rect x="36" y="22" width="32" height="36" rx="16.0" fill="url(#sheen)" transform="rotate(0 52.0 40.0)"/><rect x="61" y="35" width="23" height="23" rx="11.5" fill="#FFF5DA" transform="rotate(0 72.5 46.5)"/><rect x="61" y="35" width="23" height="23" rx="11.5" fill="url(#sheen)" transform="rotate(0 72.5 46.5)"/><rect x="20" y="46" width="60" height="13" rx="5" fill="#FFF5DA" transform="rotate(0 50.0 52.5)"/><rect x="20" y="46" width="60" height="13" rx="5" fill="url(#sheen)" transform="rotate(0 50.0 52.5)"/><rect x="43" y="59" width="14" height="20" rx="5" fill="#B46AFF" transform="rotate(0 50.0 69.0)"/><rect x="43" y="59" width="14" height="20" rx="5" fill="url(#sheen)" transform="rotate(0 50.0 69.0)"/><rect x="47" y="83" width="7" height="7" rx="3.5" fill="#B46AFF" transform="rotate(0 50.5 86.5)"/><rect x="47" y="83" width="7" height="7" rx="3.5" fill="url(#sheen)" transform="rotate(0 50.5 86.5)"/></svg>