mtllib amber.mtl
o amber
v 0.00000 1.30000 0.00000
v 0.43301 0.97500 0.00000
v 0.13381 0.97500 0.41182
v -0.35031 0.97500 0.25452
v -0.35031 0.97500 -0.25452
v 0.13381 0.97500 -0.41182
v 0.43301 0.32500 0.00000
v 0.13381 0.32500 0.41182
v -0.35031 0.32500 0.25452
v -0.35031 0.32500 -0.25452
v 0.13381 0.32500 -0.41182
v 0.00000 0.00000 0.00000
usemtl mFFC875
f 1 3 2
f 1 4 3
f 1 5 4
f 1 6 5
f 1 2 6
f 2 3 7
f 3 8 7
f 3 4 8
f 4 9 8
f 4 5 9
f 5 10 9
f 5 6 10
f 6 11 10
f 6 2 11
f 2 7 11
f 7 8 12
f 8 9 12
f 9 10 12
f 10 11 12
f 11 7 12
