mtllib ankylosaurus.mtl
o ankylosaurus
v 0.00000 3.45000 0.30000
v 1.38564 2.92500 0.30000
v 0.69282 2.92500 1.72500
v -0.69282 2.92500 1.72500
v -1.38564 2.92500 0.30000
v -0.69282 2.92500 -1.12500
v 0.69282 2.92500 -1.12500
v 1.38564 1.87500 0.30000
v 0.69282 1.87500 1.72500
v -0.69282 1.87500 1.72500
v -1.38564 1.87500 0.30000
v -0.69282 1.87500 -1.12500
v 0.69282 1.87500 -1.12500
v 0.00000 1.35000 0.30000
v 0.00000 2.70000 -0.20000
v 0.82272 2.37500 -0.20000
v 0.41136 2.37500 0.73750
v -0.41136 2.37500 0.73750
v -0.82272 2.37500 -0.20000
v -0.41136 2.37500 -1.13750
v 0.41136 2.37500 -1.13750
v 0.82272 1.72500 -0.20000
v 0.41136 1.72500 0.73750
v -0.41136 1.72500 0.73750
v -0.82272 1.72500 -0.20000
v -0.41136 1.72500 -1.13750
v 0.41136 1.72500 -1.13750
v 0.00000 1.40000 -0.20000
v 0.80000 2.50000 -0.90000
v 0.00000 1.95738 -1.48784
v -0.80000 2.50000 -0.90000
v -0.00000 3.04262 -0.31216
v 0.72000 3.15000 -1.50000
v 0.00000 2.64088 -2.00912
v -0.72000 3.15000 -1.50000
v -0.00000 3.65912 -0.99088
v 0.65000 3.55000 -1.90000
v 0.00000 3.09038 -2.35962
v -0.65000 3.55000 -1.90000
v -0.00000 4.00962 -1.44038
v 0.00000 4.45000 -2.00000
v 0.82272 4.02500 -2.00000
v 0.41136 4.02500 -1.17500
v -0.41136 4.02500 -1.17500
v -0.82272 4.02500 -2.00000
v -0.41136 4.02500 -2.82500
v 0.41136 4.02500 -2.82500
v 0.82272 3.17500 -2.00000
v 0.41136 3.17500 -1.17500
v -0.41136 3.17500 -1.17500
v -0.82272 3.17500 -2.00000
v -0.41136 3.17500 -2.82500
v 0.41136 3.17500 -2.82500
v 0.00000 2.75000 -2.00000
v 0.00000 3.77000 -2.80000
v 0.69282 3.56000 -2.80000
v 0.34641 3.56000 -2.20000
v -0.34641 3.56000 -2.20000
v -0.69282 3.56000 -2.80000
v -0.34641 3.56000 -3.40000
v 0.34641 3.56000 -3.40000
v 0.69282 3.14000 -2.80000
v 0.34641 3.14000 -2.20000
v -0.34641 3.14000 -2.20000
v -0.69282 3.14000 -2.80000
v -0.34641 3.14000 -3.40000
v 0.34641 3.14000 -3.40000
v 0.00000 2.93000 -2.80000
v 0.00000 3.20000 -2.65000
v 0.60622 3.10000 -2.65000
v 0.30311 3.10000 -2.01250
v -0.30311 3.10000 -2.01250
v -0.60622 3.10000 -2.65000
v -0.30311 3.10000 -3.28750
v 0.30311 3.10000 -3.28750
v 0.60622 2.90000 -2.65000
v 0.30311 2.90000 -2.01250
v -0.30311 2.90000 -2.01250
v -0.60622 2.90000 -2.65000
v -0.30311 2.90000 -3.28750
v 0.30311 2.90000 -3.28750
v 0.00000 2.80000 -2.65000
v -0.70000 2.40000 1.40000
v -0.00000 1.70461 1.31976
v 0.70000 2.40000 1.40000
v 0.00000 3.09539 1.48024
v -0.50000 2.25000 2.70000
v -0.00000 1.77399 2.85300
v 0.50000 2.25000 2.70000
v 0.00000 2.72601 2.54700
v -0.25000 2.70000 4.10000
v -0.00000 2.46283 4.17906
v 0.25000 2.70000 4.10000
v 0.00000 2.93717 4.02094
v -0.02500 3.00000 5.00000
v -0.00000 2.97628 5.00791
v 0.02500 3.00000 5.00000
v 0.00000 3.02372 4.99209
v -0.85000 2.50000 -0.95000
v -0.41699 2.05000 -0.95000
v -0.63349 2.05000 -0.50000
v -1.06651 2.05000 -0.50000
v -1.28301 2.05000 -0.95000
v -1.06651 2.05000 -1.40000
v -0.63349 2.05000 -1.40000
v -0.41699 1.15000 -0.95000
v -0.63349 1.15000 -0.50000
v -1.06651 1.15000 -0.50000
v -1.28301 1.15000 -0.95000
v -1.06651 1.15000 -1.40000
v -0.63349 1.15000 -1.40000
v -0.85000 0.70000 -0.95000
v -0.85000 1.30364 -0.64485
v -1.17000 1.40000 -0.95000
v -0.85000 1.49636 -1.25515
v -0.53000 1.40000 -0.95000
v -0.85000 0.37773 -1.02114
v -1.09000 0.45000 -1.25000
v -0.85000 0.52227 -1.47886
v -0.61000 0.45000 -1.25000
v -0.85000 0.50000 -1.45000
v -0.50359 0.38500 -1.45000
v -0.67679 0.38500 -0.96250
v -1.02321 0.38500 -0.96250
v -1.19641 0.38500 -1.45000
v -1.02321 0.38500 -1.93750
v -0.67679 0.38500 -1.93750
v -0.50359 0.15500 -1.45000
v -0.67679 0.15500 -0.96250
v -1.02321 0.15500 -0.96250
v -1.19641 0.15500 -1.45000
v -1.02321 0.15500 -1.93750
v -0.67679 0.15500 -1.93750
v -0.85000 0.04000 -1.45000
v -0.92000 0.23000 -1.75000
v -1.01000 0.14269 -1.72817
v -1.10000 0.23000 -1.75000
v -1.01000 0.31731 -1.77183
v -0.98500 0.16000 -2.03000
v -1.01000 0.13575 -2.02394
v -1.03500 0.16000 -2.03000
v -1.01000 0.18425 -2.03606
v -0.76000 0.23000 -1.75000
v -0.85000 0.14269 -1.72817
v -0.94000 0.23000 -1.75000
v -0.85000 0.31731 -1.77183
v -0.82500 0.16000 -2.03000
v -0.85000 0.13575 -2.02394
v -0.87500 0.16000 -2.03000
v -0.85000 0.18425 -2.03606
v -0.60000 0.23000 -1.75000
v -0.69000 0.14269 -1.72817
v -0.78000 0.23000 -1.75000
v -0.69000 0.31731 -1.77183
v -0.66500 0.16000 -2.03000
v -0.69000 0.13575 -2.02394
v -0.71500 0.16000 -2.03000
v -0.69000 0.18425 -2.03606
v -0.85000 2.50000 1.20000
v -0.41699 2.05000 1.20000
v -0.63349 2.05000 1.65000
v -1.06651 2.05000 1.65000
v -1.28301 2.05000 1.20000
v -1.06651 2.05000 0.75000
v -0.63349 2.05000 0.75000
v -0.41699 1.15000 1.20000
v -0.63349 1.15000 1.65000
v -1.06651 1.15000 1.65000
v -1.28301 1.15000 1.20000
v -1.06651 1.15000 0.75000
v -0.63349 1.15000 0.75000
v -0.85000 0.70000 1.20000
v -0.85000 1.30364 1.50515
v -1.17000 1.40000 1.20000
v -0.85000 1.49636 0.89485
v -0.53000 1.40000 1.20000
v -0.85000 0.37773 1.12886
v -1.09000 0.45000 0.90000
v -0.85000 0.52227 0.67114
v -0.61000 0.45000 0.90000
v -0.85000 0.50000 0.70000
v -0.50359 0.38500 0.70000
v -0.67679 0.38500 1.18750
v -1.02321 0.38500 1.18750
v -1.19641 0.38500 0.70000
v -1.02321 0.38500 0.21250
v -0.67679 0.38500 0.21250
v -0.50359 0.15500 0.70000
v -0.67679 0.15500 1.18750
v -1.02321 0.15500 1.18750
v -1.19641 0.15500 0.70000
v -1.02321 0.15500 0.21250
v -0.67679 0.15500 0.21250
v -0.85000 0.04000 0.70000
v -0.92000 0.23000 0.40000
v -1.01000 0.14269 0.42183
v -1.10000 0.23000 0.40000
v -1.01000 0.31731 0.37817
v -0.98500 0.16000 0.12000
v -1.01000 0.13575 0.12606
v -1.03500 0.16000 0.12000
v -1.01000 0.18425 0.11394
v -0.76000 0.23000 0.40000
v -0.85000 0.14269 0.42183
v -0.94000 0.23000 0.40000
v -0.85000 0.31731 0.37817
v -0.82500 0.16000 0.12000
v -0.85000 0.13575 0.12606
v -0.87500 0.16000 0.12000
v -0.85000 0.18425 0.11394
v -0.60000 0.23000 0.40000
v -0.69000 0.14269 0.42183
v -0.78000 0.23000 0.40000
v -0.69000 0.31731 0.37817
v -0.66500 0.16000 0.12000
v -0.69000 0.13575 0.12606
v -0.71500 0.16000 0.12000
v -0.69000 0.18425 0.11394
v -0.85000 4.19000 -2.50000
v -0.72010 4.04500 -2.50000
v -0.78505 4.04500 -2.25250
v -0.91495 4.04500 -2.25250
v -0.97990 4.04500 -2.50000
v -0.91495 4.04500 -2.74750
v -0.78505 4.04500 -2.74750
v -0.72010 3.75500 -2.50000
v -0.78505 3.75500 -2.25250
v -0.91495 3.75500 -2.25250
v -0.97990 3.75500 -2.50000
v -0.91495 3.75500 -2.74750
v -0.78505 3.75500 -2.74750
v -0.85000 3.61000 -2.50000
v -0.97000 4.08000 -2.62000
v -0.91804 4.00000 -2.62000
v -0.94402 4.00000 -2.51500
v -0.99598 4.00000 -2.51500
v -1.02196 4.00000 -2.62000
v -0.99598 4.00000 -2.72500
v -0.94402 4.00000 -2.72500
v -0.91804 3.84000 -2.62000
v -0.94402 3.84000 -2.51500
v -0.99598 3.84000 -2.51500
v -1.02196 3.84000 -2.62000
v -0.99598 3.84000 -2.72500
v -0.94402 3.84000 -2.72500
v -0.97000 3.76000 -2.62000
v -0.98000 4.04000 -2.68000
v -0.95835 4.01500 -2.68000
v -0.96917 4.01500 -2.65000
v -0.99083 4.01500 -2.65000
v -1.00165 4.01500 -2.68000
v -0.99083 4.01500 -2.71000
v -0.96917 4.01500 -2.71000
v -0.95835 3.96500 -2.68000
v -0.96917 3.96500 -2.65000
v -0.99083 3.96500 -2.65000
v -1.00165 3.96500 -2.68000
v -0.99083 3.96500 -2.71000
v -0.96917 3.96500 -2.71000
v -0.98000 3.94000 -2.68000
v -0.39000 3.69500 -3.46000
v -0.32938 3.66250 -3.46000
v -0.35969 3.66250 -3.43375
v -0.42031 3.66250 -3.43375
v -0.45062 3.66250 -3.46000
v -0.42031 3.66250 -3.48625
v -0.35969 3.66250 -3.48625
v -0.32938 3.59750 -3.46000
v -0.35969 3.59750 -3.43375
v -0.42031 3.59750 -3.43375
v -0.45062 3.59750 -3.46000
v -0.42031 3.59750 -3.48625
v -0.35969 3.59750 -3.48625
v -0.39000 3.56500 -3.46000
v 0.85000 2.50000 -0.95000
v 1.28301 2.05000 -0.95000
v 1.06651 2.05000 -0.50000
v 0.63349 2.05000 -0.50000
v 0.41699 2.05000 -0.95000
v 0.63349 2.05000 -1.40000
v 1.06651 2.05000 -1.40000
v 1.28301 1.15000 -0.95000
v 1.06651 1.15000 -0.50000
v 0.63349 1.15000 -0.50000
v 0.41699 1.15000 -0.95000
v 0.63349 1.15000 -1.40000
v 1.06651 1.15000 -1.40000
v 0.85000 0.70000 -0.95000
v 0.85000 1.30364 -0.64485
v 0.53000 1.40000 -0.95000
v 0.85000 1.49636 -1.25515
v 1.17000 1.40000 -0.95000
v 0.85000 0.37773 -1.02114
v 0.61000 0.45000 -1.25000
v 0.85000 0.52227 -1.47886
v 1.09000 0.45000 -1.25000
v 0.85000 0.50000 -1.45000
v 1.19641 0.38500 -1.45000
v 1.02321 0.38500 -0.96250
v 0.67679 0.38500 -0.96250
v 0.50359 0.38500 -1.45000
v 0.67679 0.38500 -1.93750
v 1.02321 0.38500 -1.93750
v 1.19641 0.15500 -1.45000
v 1.02321 0.15500 -0.96250
v 0.67679 0.15500 -0.96250
v 0.50359 0.15500 -1.45000
v 0.67679 0.15500 -1.93750
v 1.02321 0.15500 -1.93750
v 0.85000 0.04000 -1.45000
v 0.78000 0.23000 -1.75000
v 0.69000 0.14269 -1.72817
v 0.60000 0.23000 -1.75000
v 0.69000 0.31731 -1.77183
v 0.71500 0.16000 -2.03000
v 0.69000 0.13575 -2.02394
v 0.66500 0.16000 -2.03000
v 0.69000 0.18425 -2.03606
v 0.94000 0.23000 -1.75000
v 0.85000 0.14269 -1.72817
v 0.76000 0.23000 -1.75000
v 0.85000 0.31731 -1.77183
v 0.87500 0.16000 -2.03000
v 0.85000 0.13575 -2.02394
v 0.82500 0.16000 -2.03000
v 0.85000 0.18425 -2.03606
v 1.10000 0.23000 -1.75000
v 1.01000 0.14269 -1.72817
v 0.92000 0.23000 -1.75000
v 1.01000 0.31731 -1.77183
v 1.03500 0.16000 -2.03000
v 1.01000 0.13575 -2.02394
v 0.98500 0.16000 -2.03000
v 1.01000 0.18425 -2.03606
v 0.85000 2.50000 1.20000
v 1.28301 2.05000 1.20000
v 1.06651 2.05000 1.65000
v 0.63349 2.05000 1.65000
v 0.41699 2.05000 1.20000
v 0.63349 2.05000 0.75000
v 1.06651 2.05000 0.75000
v 1.28301 1.15000 1.20000
v 1.06651 1.15000 1.65000
v 0.63349 1.15000 1.65000
v 0.41699 1.15000 1.20000
v 0.63349 1.15000 0.75000
v 1.06651 1.15000 0.75000
v 0.85000 0.70000 1.20000
v 0.85000 1.30364 1.50515
v 0.53000 1.40000 1.20000
v 0.85000 1.49636 0.89485
v 1.17000 1.40000 1.20000
v 0.85000 0.37773 1.12886
v 0.61000 0.45000 0.90000
v 0.85000 0.52227 0.67114
v 1.09000 0.45000 0.90000
v 0.85000 0.50000 0.70000
v 1.19641 0.38500 0.70000
v 1.02321 0.38500 1.18750
v 0.67679 0.38500 1.18750
v 0.50359 0.38500 0.70000
v 0.67679 0.38500 0.21250
v 1.02321 0.38500 0.21250
v 1.19641 0.15500 0.70000
v 1.02321 0.15500 1.18750
v 0.67679 0.15500 1.18750
v 0.50359 0.15500 0.70000
v 0.67679 0.15500 0.21250
v 1.02321 0.15500 0.21250
v 0.85000 0.04000 0.70000
v 0.78000 0.23000 0.40000
v 0.69000 0.14269 0.42183
v 0.60000 0.23000 0.40000
v 0.69000 0.31731 0.37817
v 0.71500 0.16000 0.12000
v 0.69000 0.13575 0.12606
v 0.66500 0.16000 0.12000
v 0.69000 0.18425 0.11394
v 0.94000 0.23000 0.40000
v 0.85000 0.14269 0.42183
v 0.76000 0.23000 0.40000
v 0.85000 0.31731 0.37817
v 0.87500 0.16000 0.12000
v 0.85000 0.13575 0.12606
v 0.82500 0.16000 0.12000
v 0.85000 0.18425 0.11394
v 1.10000 0.23000 0.40000
v 1.01000 0.14269 0.42183
v 0.92000 0.23000 0.40000
v 1.01000 0.31731 0.37817
v 1.03500 0.16000 0.12000
v 1.01000 0.13575 0.12606
v 0.98500 0.16000 0.12000
v 1.01000 0.18425 0.11394
v 0.85000 4.19000 -2.50000
v 0.97990 4.04500 -2.50000
v 0.91495 4.04500 -2.25250
v 0.78505 4.04500 -2.25250
v 0.72010 4.04500 -2.50000
v 0.78505 4.04500 -2.74750
v 0.91495 4.04500 -2.74750
v 0.97990 3.75500 -2.50000
v 0.91495 3.75500 -2.25250
v 0.78505 3.75500 -2.25250
v 0.72010 3.75500 -2.50000
v 0.78505 3.75500 -2.74750
v 0.91495 3.75500 -2.74750
v 0.85000 3.61000 -2.50000
v 0.97000 4.08000 -2.62000
v 1.02196 4.00000 -2.62000
v 0.99598 4.00000 -2.51500
v 0.94402 4.00000 -2.51500
v 0.91804 4.00000 -2.62000
v 0.94402 4.00000 -2.72500
v 0.99598 4.00000 -2.72500
v 1.02196 3.84000 -2.62000
v 0.99598 3.84000 -2.51500
v 0.94402 3.84000 -2.51500
v 0.91804 3.84000 -2.62000
v 0.94402 3.84000 -2.72500
v 0.99598 3.84000 -2.72500
v 0.97000 3.76000 -2.62000
v 0.98000 4.04000 -2.68000
v 1.00165 4.01500 -2.68000
v 0.99083 4.01500 -2.65000
v 0.96917 4.01500 -2.65000
v 0.95835 4.01500 -2.68000
v 0.96917 4.01500 -2.71000
v 0.99083 4.01500 -2.71000
v 1.00165 3.96500 -2.68000
v 0.99083 3.96500 -2.65000
v 0.96917 3.96500 -2.65000
v 0.95835 3.96500 -2.68000
v 0.96917 3.96500 -2.71000
v 0.99083 3.96500 -2.71000
v 0.98000 3.94000 -2.68000
v 0.39000 3.69500 -3.46000
v 0.45062 3.66250 -3.46000
v 0.42031 3.66250 -3.43375
v 0.35969 3.66250 -3.43375
v 0.32938 3.66250 -3.46000
v 0.35969 3.66250 -3.48625
v 0.42031 3.66250 -3.48625
v 0.45062 3.59750 -3.46000
v 0.42031 3.59750 -3.43375
v 0.35969 3.59750 -3.43375
v 0.32938 3.59750 -3.46000
v 0.35969 3.59750 -3.48625
v 0.42031 3.59750 -3.48625
v 0.39000 3.56500 -3.46000
v 0.00000 3.59000 0.30000
v 0.12990 3.46500 0.30000
v 0.06495 3.46500 0.47250
v -0.06495 3.46500 0.47250
v -0.12990 3.46500 0.30000
v -0.06495 3.46500 0.12750
v 0.06495 3.46500 0.12750
v 0.12990 3.21500 0.30000
v 0.06495 3.21500 0.47250
v -0.06495 3.21500 0.47250
v -0.12990 3.21500 0.30000
v -0.06495 3.21500 0.12750
v 0.06495 3.21500 0.12750
v 0.00000 3.09000 0.30000
v 0.00000 3.46000 0.78000
v 0.12990 3.33500 0.78000
v 0.06495 3.33500 0.95250
v -0.06495 3.33500 0.95250
v -0.12990 3.33500 0.78000
v -0.06495 3.33500 0.60750
v 0.06495 3.33500 0.60750
v 0.12990 3.08500 0.78000
v 0.06495 3.08500 0.95250
v -0.06495 3.08500 0.95250
v -0.12990 3.08500 0.78000
v -0.06495 3.08500 0.60750
v 0.06495 3.08500 0.60750
v 0.00000 2.96000 0.78000
v 0.00000 3.33000 1.26000
v 0.12990 3.20500 1.26000
v 0.06495 3.20500 1.43250
v -0.06495 3.20500 1.43250
v -0.12990 3.20500 1.26000
v -0.06495 3.20500 1.08750
v 0.06495 3.20500 1.08750
v 0.12990 2.95500 1.26000
v 0.06495 2.95500 1.43250
v -0.06495 2.95500 1.43250
v -0.12990 2.95500 1.26000
v -0.06495 2.95500 1.08750
v 0.06495 2.95500 1.08750
v 0.00000 2.83000 1.26000
v 0.00000 3.20000 1.74000
v 0.12990 3.07500 1.74000
v 0.06495 3.07500 1.91250
v -0.06495 3.07500 1.91250
v -0.12990 3.07500 1.74000
v -0.06495 3.07500 1.56750
v 0.06495 3.07500 1.56750
v 0.12990 2.82500 1.74000
v 0.06495 2.82500 1.91250
v -0.06495 2.82500 1.91250
v -0.12990 2.82500 1.74000
v -0.06495 2.82500 1.56750
v 0.06495 2.82500 1.56750
v 0.00000 2.70000 1.74000
v 0.00000 3.07000 2.22000
v 0.12990 2.94500 2.22000
v 0.06495 2.94500 2.39250
v -0.06495 2.94500 2.39250
v -0.12990 2.94500 2.22000
v -0.06495 2.94500 2.04750
v 0.06495 2.94500 2.04750
v 0.12990 2.69500 2.22000
v 0.06495 2.69500 2.39250
v -0.06495 2.69500 2.39250
v -0.12990 2.69500 2.22000
v -0.06495 2.69500 2.04750
v 0.06495 2.69500 2.04750
v 0.00000 2.57000 2.22000
v 0.00000 3.85000 0.40000
v 1.51554 3.42500 0.40000
v 0.75777 3.42500 1.82500
v -0.75777 3.42500 1.82500
v -1.51554 3.42500 0.40000
v -0.75777 3.42500 -1.02500
v 0.75777 3.42500 -1.02500
v 1.51554 2.57500 0.40000
v 0.75777 2.57500 1.82500
v -0.75777 2.57500 1.82500
v -1.51554 2.57500 0.40000
v -0.75777 2.57500 -1.02500
v 0.75777 2.57500 -1.02500
v 0.00000 2.15000 0.40000
v -0.80000 4.00000 -0.60000
v -0.43627 3.85000 -0.60000
v -0.61813 3.85000 -0.26250
v -0.98187 3.85000 -0.26250
v -1.16373 3.85000 -0.60000
v -0.98187 3.85000 -0.93750
v -0.61813 3.85000 -0.93750
v -0.43627 3.55000 -0.60000
v -0.61813 3.55000 -0.26250
v -0.98187 3.55000 -0.26250
v -1.16373 3.55000 -0.60000
v -0.98187 3.55000 -0.93750
v -0.61813 3.55000 -0.93750
v -0.80000 3.40000 -0.60000
v -0.80000 4.00000 0.30000
v -0.43627 3.85000 0.30000
v -0.61813 3.85000 0.63750
v -0.98187 3.85000 0.63750
v -1.16373 3.85000 0.30000
v -0.98187 3.85000 -0.03750
v -0.61813 3.85000 -0.03750
v -0.43627 3.55000 0.30000
v -0.61813 3.55000 0.63750
v -0.98187 3.55000 0.63750
v -1.16373 3.55000 0.30000
v -0.98187 3.55000 -0.03750
v -0.61813 3.55000 -0.03750
v -0.80000 3.40000 0.30000
v -0.80000 4.00000 1.20000
v -0.43627 3.85000 1.20000
v -0.61813 3.85000 1.53750
v -0.98187 3.85000 1.53750
v -1.16373 3.85000 1.20000
v -0.98187 3.85000 0.86250
v -0.61813 3.85000 0.86250
v -0.43627 3.55000 1.20000
v -0.61813 3.55000 1.53750
v -0.98187 3.55000 1.53750
v -1.16373 3.55000 1.20000
v -0.98187 3.55000 0.86250
v -0.61813 3.55000 0.86250
v -0.80000 3.40000 1.20000
v 0.00000 4.00000 -0.60000
v 0.36373 3.85000 -0.60000
v 0.18187 3.85000 -0.26250
v -0.18187 3.85000 -0.26250
v -0.36373 3.85000 -0.60000
v -0.18187 3.85000 -0.93750
v 0.18187 3.85000 -0.93750
v 0.36373 3.55000 -0.60000
v 0.18187 3.55000 -0.26250
v -0.18187 3.55000 -0.26250
v -0.36373 3.55000 -0.60000
v -0.18187 3.55000 -0.93750
v 0.18187 3.55000 -0.93750
v 0.00000 3.40000 -0.60000
v 0.00000 4.00000 0.30000
v 0.36373 3.85000 0.30000
v 0.18187 3.85000 0.63750
v -0.18187 3.85000 0.63750
v -0.36373 3.85000 0.30000
v -0.18187 3.85000 -0.03750
v 0.18187 3.85000 -0.03750
v 0.36373 3.55000 0.30000
v 0.18187 3.55000 0.63750
v -0.18187 3.55000 0.63750
v -0.36373 3.55000 0.30000
v -0.18187 3.55000 -0.03750
v 0.18187 3.55000 -0.03750
v 0.00000 3.40000 0.30000
v 0.00000 4.00000 1.20000
v 0.36373 3.85000 1.20000
v 0.18187 3.85000 1.53750
v -0.18187 3.85000 1.53750
v -0.36373 3.85000 1.20000
v -0.18187 3.85000 0.86250
v 0.18187 3.85000 0.86250
v 0.36373 3.55000 1.20000
v 0.18187 3.55000 1.53750
v -0.18187 3.55000 1.53750
v -0.36373 3.55000 1.20000
v -0.18187 3.55000 0.86250
v 0.18187 3.55000 0.86250
v 0.00000 3.40000 1.20000
v 0.80000 4.00000 -0.60000
v 1.16373 3.85000 -0.60000
v 0.98187 3.85000 -0.26250
v 0.61813 3.85000 -0.26250
v 0.43627 3.85000 -0.60000
v 0.61813 3.85000 -0.93750
v 0.98187 3.85000 -0.93750
v 1.16373 3.55000 -0.60000
v 0.98187 3.55000 -0.26250
v 0.61813 3.55000 -0.26250
v 0.43627 3.55000 -0.60000
v 0.61813 3.55000 -0.93750
v 0.98187 3.55000 -0.93750
v 0.80000 3.40000 -0.60000
v 0.80000 4.00000 0.30000
v 1.16373 3.85000 0.30000
v 0.98187 3.85000 0.63750
v 0.61813 3.85000 0.63750
v 0.43627 3.85000 0.30000
v 0.61813 3.85000 -0.03750
v 0.98187 3.85000 -0.03750
v 1.16373 3.55000 0.30000
v 0.98187 3.55000 0.63750
v 0.61813 3.55000 0.63750
v 0.43627 3.55000 0.30000
v 0.61813 3.55000 -0.03750
v 0.98187 3.55000 -0.03750
v 0.80000 3.40000 0.30000
v 0.80000 4.00000 1.20000
v 1.16373 3.85000 1.20000
v 0.98187 3.85000 1.53750
v 0.61813 3.85000 1.53750
v 0.43627 3.85000 1.20000
v 0.61813 3.85000 0.86250
v 0.98187 3.85000 0.86250
v 1.16373 3.55000 1.20000
v 0.98187 3.55000 1.53750
v 0.61813 3.55000 1.53750
v 0.43627 3.55000 1.20000
v 0.61813 3.55000 0.86250
v 0.98187 3.55000 0.86250
v 0.80000 3.40000 1.20000
v -1.40000 2.90000 -0.72000
v -1.48171 2.69574 -0.50000
v -1.40000 2.90000 -0.28000
v -1.31829 3.10426 -0.50000
v -2.15000 3.20000 -0.51000
v -2.15371 3.19072 -0.50000
v -2.15000 3.20000 -0.49000
v -2.14629 3.20928 -0.50000
v -1.40000 2.90000 0.18000
v -1.48171 2.69574 0.40000
v -1.40000 2.90000 0.62000
v -1.31829 3.10426 0.40000
v -2.15000 3.20000 0.39000
v -2.15371 3.19072 0.40000
v -2.15000 3.20000 0.41000
v -2.14629 3.20928 0.40000
v -1.40000 2.90000 1.08000
v -1.48171 2.69574 1.30000
v -1.40000 2.90000 1.52000
v -1.31829 3.10426 1.30000
v -2.15000 3.20000 1.29000
v -2.15371 3.19072 1.30000
v -2.15000 3.20000 1.31000
v -2.14629 3.20928 1.30000
v 1.40000 2.90000 -0.28000
v 1.48171 2.69574 -0.50000
v 1.40000 2.90000 -0.72000
v 1.31829 3.10426 -0.50000
v 2.15000 3.20000 -0.49000
v 2.15371 3.19072 -0.50000
v 2.15000 3.20000 -0.51000
v 2.14629 3.20928 -0.50000
v 1.40000 2.90000 0.62000
v 1.48171 2.69574 0.40000
v 1.40000 2.90000 0.18000
v 1.31829 3.10426 0.40000
v 2.15000 3.20000 0.41000
v 2.15371 3.19072 0.40000
v 2.15000 3.20000 0.39000
v 2.14629 3.20928 0.40000
v 1.40000 2.90000 1.52000
v 1.48171 2.69574 1.30000
v 1.40000 2.90000 1.08000
v 1.31829 3.10426 1.30000
v 2.15000 3.20000 1.31000
v 2.15371 3.19072 1.30000
v 2.15000 3.20000 1.29000
v 2.14629 3.20928 1.30000
v 0.00000 3.60000 4.85000
v 0.73612 3.30000 4.85000
v 0.36806 3.30000 5.41250
v -0.36806 3.30000 5.41250
v -0.73612 3.30000 4.85000
v -0.36806 3.30000 4.28750
v 0.36806 3.30000 4.28750
v 0.73612 2.70000 4.85000
v 0.36806 2.70000 5.41250
v -0.36806 2.70000 5.41250
v -0.73612 2.70000 4.85000
v -0.36806 2.70000 4.28750
v 0.36806 2.70000 4.28750
v 0.00000 2.40000 4.85000
usemtl m94734E
f 1 3 2
f 1 4 3
f 1 5 4
f 1 6 5
f 1 7 6
f 1 2 7
f 2 3 8
f 3 9 8
f 3 4 9
f 4 10 9
f 4 5 10
f 5 11 10
f 5 6 11
f 6 12 11
f 6 7 12
f 7 13 12
f 7 2 13
f 2 8 13
f 8 9 14
f 9 10 14
f 10 11 14
f 11 12 14
f 12 13 14
f 13 8 14
usemtl mDDC28E
f 15 17 16
f 15 18 17
f 15 19 18
f 15 20 19
f 15 21 20
f 15 16 21
f 16 17 22
f 17 23 22
f 17 18 23
f 18 24 23
f 18 19 24
f 19 25 24
f 19 20 25
f 20 26 25
f 20 21 26
f 21 27 26
f 21 16 27
f 16 22 27
f 22 23 28
f 23 24 28
f 24 25 28
f 25 26 28
f 26 27 28
f 27 22 28
usemtl m94734E
f 29 30 33
f 30 34 33
f 30 31 34
f 31 35 34
f 31 32 35
f 32 36 35
f 32 29 36
f 29 33 36
f 33 34 37
f 34 38 37
f 34 35 38
f 35 39 38
f 35 36 39
f 36 40 39
f 36 33 40
f 33 37 40
f 29 31 30
f 37 38 39
f 29 32 31
f 37 39 40
f 41 43 42
f 41 44 43
f 41 45 44
f 41 46 45
f 41 47 46
f 41 42 47
f 42 43 48
f 43 49 48
f 43 44 49
f 44 50 49
f 44 45 50
f 45 51 50
f 45 46 51
f 46 52 51
f 46 47 52
f 47 53 52
f 47 42 53
f 42 48 53
f 48 49 54
f 49 50 54
f 50 51 54
f 51 52 54
f 52 53 54
f 53 48 54
usemtl mDDC28E
f 55 57 56
f 55 58 57
f 55 59 58
f 55 60 59
f 55 61 60
f 55 56 61
f 56 57 62
f 57 63 62
f 57 58 63
f 58 64 63
f 58 59 64
f 59 65 64
f 59 60 65
f 60 66 65
f 60 61 66
f 61 67 66
f 61 56 67
f 56 62 67
f 62 63 68
f 63 64 68
f 64 65 68
f 65 66 68
f 66 67 68
f 67 62 68
usemtl m584538
f 69 71 70
f 69 72 71
f 69 73 72
f 69 74 73
f 69 75 74
f 69 70 75
f 70 71 76
f 71 77 76
f 71 72 77
f 72 78 77
f 72 73 78
f 73 79 78
f 73 74 79
f 74 80 79
f 74 75 80
f 75 81 80
f 75 70 81
f 70 76 81
f 76 77 82
f 77 78 82
f 78 79 82
f 79 80 82
f 80 81 82
f 81 76 82
usemtl m94734E
f 83 84 87
f 84 88 87
f 84 85 88
f 85 89 88
f 85 86 89
f 86 90 89
f 86 83 90
f 83 87 90
f 87 88 91
f 88 92 91
f 88 89 92
f 89 93 92
f 89 90 93
f 90 94 93
f 90 87 94
f 87 91 94
f 91 92 95
f 92 96 95
f 92 93 96
f 93 97 96
f 93 94 97
f 94 98 97
f 94 91 98
f 91 95 98
f 83 85 84
f 95 96 97
f 83 86 85
f 95 97 98
usemtl m584538
f 99 101 100
f 99 102 101
f 99 103 102
f 99 104 103
f 99 105 104
f 99 100 105
f 100 101 106
f 101 107 106
f 101 102 107
f 102 108 107
f 102 103 108
f 103 109 108
f 103 104 109
f 104 110 109
f 104 105 110
f 105 111 110
f 105 100 111
f 100 106 111
f 106 107 112
f 107 108 112
f 108 109 112
f 109 110 112
f 110 111 112
f 111 106 112
usemtl m94734E
f 113 114 117
f 114 118 117
f 114 115 118
f 115 119 118
f 115 116 119
f 116 120 119
f 116 113 120
f 113 117 120
f 113 115 114
f 117 118 119
f 113 116 115
f 117 119 120
f 121 123 122
f 121 124 123
f 121 125 124
f 121 126 125
f 121 127 126
f 121 122 127
f 122 123 128
f 123 129 128
f 123 124 129
f 124 130 129
f 124 125 130
f 125 131 130
f 125 126 131
f 126 132 131
f 126 127 132
f 127 133 132
f 127 122 133
f 122 128 133
f 128 129 134
f 129 130 134
f 130 131 134
f 131 132 134
f 132 133 134
f 133 128 134
usemtl mF0E3BF
f 135 136 139
f 136 140 139
f 136 137 140
f 137 141 140
f 137 138 141
f 138 142 141
f 138 135 142
f 135 139 142
f 135 137 136
f 139 140 141
f 135 138 137
f 139 141 142
f 143 144 147
f 144 148 147
f 144 145 148
f 145 149 148
f 145 146 149
f 146 150 149
f 146 143 150
f 143 147 150
f 143 145 144
f 147 148 149
f 143 146 145
f 147 149 150
f 151 152 155
f 152 156 155
f 152 153 156
f 153 157 156
f 153 154 157
f 154 158 157
f 154 151 158
f 151 155 158
f 151 153 152
f 155 156 157
f 151 154 153
f 155 157 158
usemtl m584538
f 159 161 160
f 159 162 161
f 159 163 162
f 159 164 163
f 159 165 164
f 159 160 165
f 160 161 166
f 161 167 166
f 161 162 167
f 162 168 167
f 162 163 168
f 163 169 168
f 163 164 169
f 164 170 169
f 164 165 170
f 165 171 170
f 165 160 171
f 160 166 171
f 166 167 172
f 167 168 172
f 168 169 172
f 169 170 172
f 170 171 172
f 171 166 172
usemtl m94734E
f 173 174 177
f 174 178 177
f 174 175 178
f 175 179 178
f 175 176 179
f 176 180 179
f 176 173 180
f 173 177 180
f 173 175 174
f 177 178 179
f 173 176 175
f 177 179 180
f 181 183 182
f 181 184 183
f 181 185 184
f 181 186 185
f 181 187 186
f 181 182 187
f 182 183 188
f 183 189 188
f 183 184 189
f 184 190 189
f 184 185 190
f 185 191 190
f 185 186 191
f 186 192 191
f 186 187 192
f 187 193 192
f 187 182 193
f 182 188 193
f 188 189 194
f 189 190 194
f 190 191 194
f 191 192 194
f 192 193 194
f 193 188 194
usemtl mF0E3BF
f 195 196 199
f 196 200 199
f 196 197 200
f 197 201 200
f 197 198 201
f 198 202 201
f 198 195 202
f 195 199 202
f 195 197 196
f 199 200 201
f 195 198 197
f 199 201 202
f 203 204 207
f 204 208 207
f 204 205 208
f 205 209 208
f 205 206 209
f 206 210 209
f 206 203 210
f 203 207 210
f 203 205 204
f 207 208 209
f 203 206 205
f 207 209 210
f 211 212 215
f 212 216 215
f 212 213 216
f 213 217 216
f 213 214 217
f 214 218 217
f 214 211 218
f 211 215 218
f 211 213 212
f 215 216 217
f 211 214 213
f 215 217 218
usemtl mFCF4D9
f 219 221 220
f 219 222 221
f 219 223 222
f 219 224 223
f 219 225 224
f 219 220 225
f 220 221 226
f 221 227 226
f 221 222 227
f 222 228 227
f 222 223 228
f 223 229 228
f 223 224 229
f 224 230 229
f 224 225 230
f 225 231 230
f 225 220 231
f 220 226 231
f 226 227 232
f 227 228 232
f 228 229 232
f 229 230 232
f 230 231 232
f 231 226 232
usemtl m142E35
f 233 235 234
f 233 236 235
f 233 237 236
f 233 238 237
f 233 239 238
f 233 234 239
f 234 235 240
f 235 241 240
f 235 236 241
f 236 242 241
f 236 237 242
f 237 243 242
f 237 238 243
f 238 244 243
f 238 239 244
f 239 245 244
f 239 234 245
f 234 240 245
f 240 241 246
f 241 242 246
f 242 243 246
f 243 244 246
f 244 245 246
f 245 240 246
usemtl mFFFFFF
f 247 249 248
f 247 250 249
f 247 251 250
f 247 252 251
f 247 253 252
f 247 248 253
f 248 249 254
f 249 255 254
f 249 250 255
f 250 256 255
f 250 251 256
f 251 257 256
f 251 252 257
f 252 258 257
f 252 253 258
f 253 259 258
f 253 248 259
f 248 254 259
f 254 255 260
f 255 256 260
f 256 257 260
f 257 258 260
f 258 259 260
f 259 254 260
usemtl m584538
f 261 263 262
f 261 264 263
f 261 265 264
f 261 266 265
f 261 267 266
f 261 262 267
f 262 263 268
f 263 269 268
f 263 264 269
f 264 270 269
f 264 265 270
f 265 271 270
f 265 266 271
f 266 272 271
f 266 267 272
f 267 273 272
f 267 262 273
f 262 268 273
f 268 269 274
f 269 270 274
f 270 271 274
f 271 272 274
f 272 273 274
f 273 268 274
f 275 277 276
f 275 278 277
f 275 279 278
f 275 280 279
f 275 281 280
f 275 276 281
f 276 277 282
f 277 283 282
f 277 278 283
f 278 284 283
f 278 279 284
f 279 285 284
f 279 280 285
f 280 286 285
f 280 281 286
f 281 287 286
f 281 276 287
f 276 282 287
f 282 283 288
f 283 284 288
f 284 285 288
f 285 286 288
f 286 287 288
f 287 282 288
usemtl m94734E
f 289 290 293
f 290 294 293
f 290 291 294
f 291 295 294
f 291 292 295
f 292 296 295
f 292 289 296
f 289 293 296
f 289 291 290
f 293 294 295
f 289 292 291
f 293 295 296
f 297 299 298
f 297 300 299
f 297 301 300
f 297 302 301
f 297 303 302
f 297 298 303
f 298 299 304
f 299 305 304
f 299 300 305
f 300 306 305
f 300 301 306
f 301 307 306
f 301 302 307
f 302 308 307
f 302 303 308
f 303 309 308
f 303 298 309
f 298 304 309
f 304 305 310
f 305 306 310
f 306 307 310
f 307 308 310
f 308 309 310
f 309 304 310
usemtl mF0E3BF
f 311 312 315
f 312 316 315
f 312 313 316
f 313 317 316
f 313 314 317
f 314 318 317
f 314 311 318
f 311 315 318
f 311 313 312
f 315 316 317
f 311 314 313
f 315 317 318
f 319 320 323
f 320 324 323
f 320 321 324
f 321 325 324
f 321 322 325
f 322 326 325
f 322 319 326
f 319 323 326
f 319 321 320
f 323 324 325
f 319 322 321
f 323 325 326
f 327 328 331
f 328 332 331
f 328 329 332
f 329 333 332
f 329 330 333
f 330 334 333
f 330 327 334
f 327 331 334
f 327 329 328
f 331 332 333
f 327 330 329
f 331 333 334
usemtl m584538
f 335 337 336
f 335 338 337
f 335 339 338
f 335 340 339
f 335 341 340
f 335 336 341
f 336 337 342
f 337 343 342
f 337 338 343
f 338 344 343
f 338 339 344
f 339 345 344
f 339 340 345
f 340 346 345
f 340 341 346
f 341 347 346
f 341 336 347
f 336 342 347
f 342 343 348
f 343 344 348
f 344 345 348
f 345 346 348
f 346 347 348
f 347 342 348
usemtl m94734E
f 349 350 353
f 350 354 353
f 350 351 354
f 351 355 354
f 351 352 355
f 352 356 355
f 352 349 356
f 349 353 356
f 349 351 350
f 353 354 355
f 349 352 351
f 353 355 356
f 357 359 358
f 357 360 359
f 357 361 360
f 357 362 361
f 357 363 362
f 357 358 363
f 358 359 364
f 359 365 364
f 359 360 365
f 360 366 365
f 360 361 366
f 361 367 366
f 361 362 367
f 362 368 367
f 362 363 368
f 363 369 368
f 363 358 369
f 358 364 369
f 364 365 370
f 365 366 370
f 366 367 370
f 367 368 370
f 368 369 370
f 369 364 370
usemtl mF0E3BF
f 371 372 375
f 372 376 375
f 372 373 376
f 373 377 376
f 373 374 377
f 374 378 377
f 374 371 378
f 371 375 378
f 371 373 372
f 375 376 377
f 371 374 373
f 375 377 378
f 379 380 383
f 380 384 383
f 380 381 384
f 381 385 384
f 381 382 385
f 382 386 385
f 382 379 386
f 379 383 386
f 379 381 380
f 383 384 385
f 379 382 381
f 383 385 386
f 387 388 391
f 388 392 391
f 388 389 392
f 389 393 392
f 389 390 393
f 390 394 393
f 390 387 394
f 387 391 394
f 387 389 388
f 391 392 393
f 387 390 389
f 391 393 394
usemtl mFCF4D9
f 395 397 396
f 395 398 397
f 395 399 398
f 395 400 399
f 395 401 400
f 395 396 401
f 396 397 402
f 397 403 402
f 397 398 403
f 398 404 403
f 398 399 404
f 399 405 404
f 399 400 405
f 400 406 405
f 400 401 406
f 401 407 406
f 401 396 407
f 396 402 407
f 402 403 408
f 403 404 408
f 404 405 408
f 405 406 408
f 406 407 408
f 407 402 408
usemtl m142E35
f 409 411 410
f 409 412 411
f 409 413 412
f 409 414 413
f 409 415 414
f 409 410 415
f 410 411 416
f 411 417 416
f 411 412 417
f 412 418 417
f 412 413 418
f 413 419 418
f 413 414 419
f 414 420 419
f 414 415 420
f 415 421 420
f 415 410 421
f 410 416 421
f 416 417 422
f 417 418 422
f 418 419 422
f 419 420 422
f 420 421 422
f 421 416 422
usemtl mFFFFFF
f 423 425 424
f 423 426 425
f 423 427 426
f 423 428 427
f 423 429 428
f 423 424 429
f 424 425 430
f 425 431 430
f 425 426 431
f 426 432 431
f 426 427 432
f 427 433 432
f 427 428 433
f 428 434 433
f 428 429 434
f 429 435 434
f 429 424 435
f 424 430 435
f 430 431 436
f 431 432 436
f 432 433 436
f 433 434 436
f 434 435 436
f 435 430 436
usemtl m584538
f 437 439 438
f 437 440 439
f 437 441 440
f 437 442 441
f 437 443 442
f 437 438 443
f 438 439 444
f 439 445 444
f 439 440 445
f 440 446 445
f 440 441 446
f 441 447 446
f 441 442 447
f 442 448 447
f 442 443 448
f 443 449 448
f 443 438 449
f 438 444 449
f 444 445 450
f 445 446 450
f 446 447 450
f 447 448 450
f 448 449 450
f 449 444 450
f 451 453 452
f 451 454 453
f 451 455 454
f 451 456 455
f 451 457 456
f 451 452 457
f 452 453 458
f 453 459 458
f 453 454 459
f 454 460 459
f 454 455 460
f 455 461 460
f 455 456 461
f 456 462 461
f 456 457 462
f 457 463 462
f 457 452 463
f 452 458 463
f 458 459 464
f 459 460 464
f 460 461 464
f 461 462 464
f 462 463 464
f 463 458 464
f 465 467 466
f 465 468 467
f 465 469 468
f 465 470 469
f 465 471 470
f 465 466 471
f 466 467 472
f 467 473 472
f 467 468 473
f 468 474 473
f 468 469 474
f 469 475 474
f 469 470 475
f 470 476 475
f 470 471 476
f 471 477 476
f 471 466 477
f 466 472 477
f 472 473 478
f 473 474 478
f 474 475 478
f 475 476 478
f 476 477 478
f 477 472 478
f 479 481 480
f 479 482 481
f 479 483 482
f 479 484 483
f 479 485 484
f 479 480 485
f 480 481 486
f 481 487 486
f 481 482 487
f 482 488 487
f 482 483 488
f 483 489 488
f 483 484 489
f 484 490 489
f 484 485 490
f 485 491 490
f 485 480 491
f 480 486 491
f 486 487 492
f 487 488 492
f 488 489 492
f 489 490 492
f 490 491 492
f 491 486 492
f 493 495 494
f 493 496 495
f 493 497 496
f 493 498 497
f 493 499 498
f 493 494 499
f 494 495 500
f 495 501 500
f 495 496 501
f 496 502 501
f 496 497 502
f 497 503 502
f 497 498 503
f 498 504 503
f 498 499 504
f 499 505 504
f 499 494 505
f 494 500 505
f 500 501 506
f 501 502 506
f 502 503 506
f 503 504 506
f 504 505 506
f 505 500 506
f 507 509 508
f 507 510 509
f 507 511 510
f 507 512 511
f 507 513 512
f 507 508 513
f 508 509 514
f 509 515 514
f 509 510 515
f 510 516 515
f 510 511 516
f 511 517 516
f 511 512 517
f 512 518 517
f 512 513 518
f 513 519 518
f 513 508 519
f 508 514 519
f 514 515 520
f 515 516 520
f 516 517 520
f 517 518 520
f 518 519 520
f 519 514 520
f 521 523 522
f 521 524 523
f 521 525 524
f 521 526 525
f 521 527 526
f 521 522 527
f 522 523 528
f 523 529 528
f 523 524 529
f 524 530 529
f 524 525 530
f 525 531 530
f 525 526 531
f 526 532 531
f 526 527 532
f 527 533 532
f 527 522 533
f 522 528 533
f 528 529 534
f 529 530 534
f 530 531 534
f 531 532 534
f 532 533 534
f 533 528 534
usemtl mDDC28E
f 535 537 536
f 535 538 537
f 535 539 538
f 535 540 539
f 535 541 540
f 535 536 541
f 536 537 542
f 537 543 542
f 537 538 543
f 538 544 543
f 538 539 544
f 539 545 544
f 539 540 545
f 540 546 545
f 540 541 546
f 541 547 546
f 541 536 547
f 536 542 547
f 542 543 548
f 543 544 548
f 544 545 548
f 545 546 548
f 546 547 548
f 547 542 548
f 549 551 550
f 549 552 551
f 549 553 552
f 549 554 553
f 549 555 554
f 549 550 555
f 550 551 556
f 551 557 556
f 551 552 557
f 552 558 557
f 552 553 558
f 553 559 558
f 553 554 559
f 554 560 559
f 554 555 560
f 555 561 560
f 555 550 561
f 550 556 561
f 556 557 562
f 557 558 562
f 558 559 562
f 559 560 562
f 560 561 562
f 561 556 562
f 563 565 564
f 563 566 565
f 563 567 566
f 563 568 567
f 563 569 568
f 563 564 569
f 564 565 570
f 565 571 570
f 565 566 571
f 566 572 571
f 566 567 572
f 567 573 572
f 567 568 573
f 568 574 573
f 568 569 574
f 569 575 574
f 569 564 575
f 564 570 575
f 570 571 576
f 571 572 576
f 572 573 576
f 573 574 576
f 574 575 576
f 575 570 576
f 577 579 578
f 577 580 579
f 577 581 580
f 577 582 581
f 577 583 582
f 577 578 583
f 578 579 584
f 579 585 584
f 579 580 585
f 580 586 585
f 580 581 586
f 581 587 586
f 581 582 587
f 582 588 587
f 582 583 588
f 583 589 588
f 583 578 589
f 578 584 589
f 584 585 590
f 585 586 590
f 586 587 590
f 587 588 590
f 588 589 590
f 589 584 590
f 591 593 592
f 591 594 593
f 591 595 594
f 591 596 595
f 591 597 596
f 591 592 597
f 592 593 598
f 593 599 598
f 593 594 599
f 594 600 599
f 594 595 600
f 595 601 600
f 595 596 601
f 596 602 601
f 596 597 602
f 597 603 602
f 597 592 603
f 592 598 603
f 598 599 604
f 599 600 604
f 600 601 604
f 601 602 604
f 602 603 604
f 603 598 604
f 605 607 606
f 605 608 607
f 605 609 608
f 605 610 609
f 605 611 610
f 605 606 611
f 606 607 612
f 607 613 612
f 607 608 613
f 608 614 613
f 608 609 614
f 609 615 614
f 609 610 615
f 610 616 615
f 610 611 616
f 611 617 616
f 611 606 617
f 606 612 617
f 612 613 618
f 613 614 618
f 614 615 618
f 615 616 618
f 616 617 618
f 617 612 618
f 619 621 620
f 619 622 621
f 619 623 622
f 619 624 623
f 619 625 624
f 619 620 625
f 620 621 626
f 621 627 626
f 621 622 627
f 622 628 627
f 622 623 628
f 623 629 628
f 623 624 629
f 624 630 629
f 624 625 630
f 625 631 630
f 625 620 631
f 620 626 631
f 626 627 632
f 627 628 632
f 628 629 632
f 629 630 632
f 630 631 632
f 631 626 632
f 633 635 634
f 633 636 635
f 633 637 636
f 633 638 637
f 633 639 638
f 633 634 639
f 634 635 640
f 635 641 640
f 635 636 641
f 636 642 641
f 636 637 642
f 637 643 642
f 637 638 643
f 638 644 643
f 638 639 644
f 639 645 644
f 639 634 645
f 634 640 645
f 640 641 646
f 641 642 646
f 642 643 646
f 643 644 646
f 644 645 646
f 645 640 646
f 647 649 648
f 647 650 649
f 647 651 650
f 647 652 651
f 647 653 652
f 647 648 653
f 648 649 654
f 649 655 654
f 649 650 655
f 650 656 655
f 650 651 656
f 651 657 656
f 651 652 657
f 652 658 657
f 652 653 658
f 653 659 658
f 653 648 659
f 648 654 659
f 654 655 660
f 655 656 660
f 656 657 660
f 657 658 660
f 658 659 660
f 659 654 660
f 661 662 665
f 662 666 665
f 662 663 666
f 663 667 666
f 663 664 667
f 664 668 667
f 664 661 668
f 661 665 668
f 661 663 662
f 665 666 667
f 661 664 663
f 665 667 668
f 669 670 673
f 670 674 673
f 670 671 674
f 671 675 674
f 671 672 675
f 672 676 675
f 672 669 676
f 669 673 676
f 669 671 670
f 673 674 675
f 669 672 671
f 673 675 676
f 677 678 681
f 678 682 681
f 678 679 682
f 679 683 682
f 679 680 683
f 680 684 683
f 680 677 684
f 677 681 684
f 677 679 678
f 681 682 683
f 677 680 679
f 681 683 684
f 685 686 689
f 686 690 689
f 686 687 690
f 687 691 690
f 687 688 691
f 688 692 691
f 688 685 692
f 685 689 692
f 685 687 686
f 689 690 691
f 685 688 687
f 689 691 692
f 693 694 697
f 694 698 697
f 694 695 698
f 695 699 698
f 695 696 699
f 696 700 699
f 696 693 700
f 693 697 700
f 693 695 694
f 697 698 699
f 693 696 695
f 697 699 700
f 701 702 705
f 702 706 705
f 702 703 706
f 703 707 706
f 703 704 707
f 704 708 707
f 704 701 708
f 701 705 708
f 701 703 702
f 705 706 707
f 701 704 703
f 705 707 708
usemtl m584538
f 709 711 710
f 709 712 711
f 709 713 712
f 709 714 713
f 709 715 714
f 709 710 715
f 710 711 716
f 711 717 716
f 711 712 717
f 712 718 717
f 712 713 718
f 713 719 718
f 713 714 719
f 714 720 719
f 714 715 720
f 715 721 720
f 715 710 721
f 710 716 721
f 716 717 722
f 717 718 722
f 718 719 722
f 719 720 722
f 720 721 722
f 721 716 722
