mtllib berry.mtl
o berry
v 0.00000 0.50000 0.00000
v 0.14107 0.45225 0.00000
v 0.10806 0.45225 0.09068
v 0.02450 0.45225 0.13893
v -0.07053 0.45225 0.12217
v -0.13256 0.45225 0.04825
v -0.13256 0.45225 -0.04825
v -0.07053 0.45225 -0.12217
v 0.02450 0.45225 -0.13893
v 0.10806 0.45225 -0.09068
v 0.22825 0.32725 0.00000
v 0.17485 0.32725 0.14672
v 0.03964 0.32725 0.22479
v -0.11413 0.32725 0.19767
v -0.21449 0.32725 0.07807
v -0.21449 0.32725 -0.07807
v -0.11413 0.32725 -0.19767
v 0.03964 0.32725 -0.22479
v 0.17485 0.32725 -0.14672
v 0.22825 0.17275 0.00000
v 0.17485 0.17275 0.14672
v 0.03964 0.17275 0.22479
v -0.11413 0.17275 0.19767
v -0.21449 0.17275 0.07807
v -0.21449 0.17275 -0.07807
v -0.11413 0.17275 -0.19767
v 0.03964 0.17275 -0.22479
v 0.17485 0.17275 -0.14672
v 0.14107 0.04775 0.00000
v 0.10806 0.04775 0.09068
v 0.02450 0.04775 0.13893
v -0.07053 0.04775 0.12217
v -0.13256 0.04775 0.04825
v -0.13256 0.04775 -0.04825
v -0.07053 0.04775 -0.12217
v 0.02450 0.04775 -0.13893
v 0.10806 0.04775 -0.09068
v 0.00000 0.00000 0.00000
v 0.00000 0.45000 0.03500
v 0.02642 0.43514 0.01750
v 0.02642 0.43514 -0.01750
v 0.00000 0.45000 -0.03500
v -0.02642 0.46486 -0.01750
v -0.02642 0.46486 0.01750
v 0.09000 0.61000 0.01500
v 0.10132 0.60363 0.00750
v 0.10132 0.60363 -0.00750
v 0.09000 0.61000 -0.01500
v 0.07868 0.61637 -0.00750
v 0.07868 0.61637 0.00750
usemtl mDF6575
f 1 3 2
f 1 4 3
f 1 5 4
f 1 6 5
f 1 7 6
f 1 8 7
f 1 9 8
f 1 10 9
f 1 2 10
f 2 3 11
f 3 12 11
f 3 4 12
f 4 13 12
f 4 5 13
f 5 14 13
f 5 6 14
f 6 15 14
f 6 7 15
f 7 16 15
f 7 8 16
f 8 17 16
f 8 9 17
f 9 18 17
f 9 10 18
f 10 19 18
f 10 2 19
f 2 11 19
f 11 12 20
f 12 21 20
f 12 13 21
f 13 22 21
f 13 14 22
f 14 23 22
f 14 15 23
f 15 24 23
f 15 16 24
f 16 25 24
f 16 17 25
f 17 26 25
f 17 18 26
f 18 27 26
f 18 19 27
f 19 28 27
f 19 11 28
f 11 20 28
f 20 21 29
f 21 30 29
f 21 22 30
f 22 31 30
f 22 23 31
f 23 32 31
f 23 24 32
f 24 33 32
f 24 25 33
f 25 34 33
f 25 26 34
f 26 35 34
f 26 27 35
f 27 36 35
f 27 28 36
f 28 37 36
f 28 20 37
f 20 29 37
f 29 30 38
f 30 31 38
f 31 32 38
f 32 33 38
f 33 34 38
f 34 35 38
f 35 36 38
f 36 37 38
f 37 29 38
usemtl m508969
f 39 40 45
f 40 46 45
f 40 41 46
f 41 47 46
f 41 42 47
f 42 48 47
f 42 43 48
f 43 49 48
f 43 44 49
f 44 50 49
f 44 39 50
f 39 45 50
f 39 41 40
f 45 46 47
f 39 42 41
f 45 47 48
f 39 43 42
f 45 48 49
f 39 44 43
f 45 49 50
