mtllib egg.mtl
o egg
v 0.00000 2.40000 0.00000
v 0.32528 2.30866 0.00000
v 0.28170 2.30866 0.16264
v 0.16264 2.30866 0.28170
v 0.00000 2.30866 0.32528
v -0.16264 2.30866 0.28170
v -0.28170 2.30866 0.16264
v -0.32528 2.30866 0.00000
v -0.28170 2.30866 -0.16264
v -0.16264 2.30866 -0.28170
v -0.00000 2.30866 -0.32528
v 0.16264 2.30866 -0.28170
v 0.28170 2.30866 -0.16264
v 0.60104 2.04853 0.00000
v 0.52052 2.04853 0.30052
v 0.30052 2.04853 0.52052
v 0.00000 2.04853 0.60104
v -0.30052 2.04853 0.52052
v -0.52052 2.04853 0.30052
v -0.60104 2.04853 0.00000
v -0.52052 2.04853 -0.30052
v -0.30052 2.04853 -0.52052
v -0.00000 2.04853 -0.60104
v 0.30052 2.04853 -0.52052
v 0.52052 2.04853 -0.30052
v 0.78530 1.65922 0.00000
v 0.68009 1.65922 0.39265
v 0.39265 1.65922 0.68009
v 0.00000 1.65922 0.78530
v -0.39265 1.65922 0.68009
v -0.68009 1.65922 0.39265
v -0.78530 1.65922 0.00000
v -0.68009 1.65922 -0.39265
v -0.39265 1.65922 -0.68009
v -0.00000 1.65922 -0.78530
v 0.39265 1.65922 -0.68009
v 0.68009 1.65922 -0.39265
v 0.85000 1.20000 0.00000
v 0.73612 1.20000 0.42500
v 0.42500 1.20000 0.73612
v 0.00000 1.20000 0.85000
v -0.42500 1.20000 0.73612
v -0.73612 1.20000 0.42500
v -0.85000 1.20000 0.00000
v -0.73612 1.20000 -0.42500
v -0.42500 1.20000 -0.73612
v -0.00000 1.20000 -0.85000
v 0.42500 1.20000 -0.73612
v 0.73612 1.20000 -0.42500
v 0.78530 0.74078 0.00000
v 0.68009 0.74078 0.39265
v 0.39265 0.74078 0.68009
v 0.00000 0.74078 0.78530
v -0.39265 0.74078 0.68009
v -0.68009 0.74078 0.39265
v -0.78530 0.74078 0.00000
v -0.68009 0.74078 -0.39265
v -0.39265 0.74078 -0.68009
v -0.00000 0.74078 -0.78530
v 0.39265 0.74078 -0.68009
v 0.68009 0.74078 -0.39265
v 0.60104 0.35147 0.00000
v 0.52052 0.35147 0.30052
v 0.30052 0.35147 0.52052
v 0.00000 0.35147 0.60104
v -0.30052 0.35147 0.52052
v -0.52052 0.35147 0.30052
v -0.60104 0.35147 0.00000
v -0.52052 0.35147 -0.30052
v -0.30052 0.35147 -0.52052
v -0.00000 0.35147 -0.60104
v 0.30052 0.35147 -0.52052
v 0.52052 0.35147 -0.30052
v 0.32528 0.09134 0.00000
v 0.28170 0.09134 0.16264
v 0.16264 0.09134 0.28170
v 0.00000 0.09134 0.32528
v -0.16264 0.09134 0.28170
v -0.28170 0.09134 0.16264
v -0.32528 0.09134 0.00000
v -0.28170 0.09134 -0.16264
v -0.16264 0.09134 -0.28170
v -0.00000 0.09134 -0.32528
v 0.16264 0.09134 -0.28170
v 0.28170 0.09134 -0.16264
v 0.00000 0.00000 0.00000
v 0.55000 1.72000 0.52000
v 0.67728 1.65556 0.52000
v 0.64000 1.65556 0.56000
v 0.55000 1.65556 0.57657
v 0.46000 1.65556 0.56000
v 0.42272 1.65556 0.52000
v 0.46000 1.65556 0.48000
v 0.55000 1.65556 0.46343
v 0.64000 1.65556 0.48000
v 0.73000 1.50000 0.52000
v 0.67728 1.50000 0.57657
v 0.55000 1.50000 0.60000
v 0.42272 1.50000 0.57657
v 0.37000 1.50000 0.52000
v 0.42272 1.50000 0.46343
v 0.55000 1.50000 0.44000
v 0.67728 1.50000 0.46343
v 0.67728 1.34444 0.52000
v 0.64000 1.34444 0.56000
v 0.55000 1.34444 0.57657
v 0.46000 1.34444 0.56000
v 0.42272 1.34444 0.52000
v 0.46000 1.34444 0.48000
v 0.55000 1.34444 0.46343
v 0.64000 1.34444 0.48000
v 0.55000 1.28000 0.52000
v -0.45000 1.12000 0.65000
v -0.32272 1.05556 0.65000
v -0.36000 1.05556 0.69000
v -0.45000 1.05556 0.70657
v -0.54000 1.05556 0.69000
v -0.57728 1.05556 0.65000
v -0.54000 1.05556 0.61000
v -0.45000 1.05556 0.59343
v -0.36000 1.05556 0.61000
v -0.27000 0.90000 0.65000
v -0.32272 0.90000 0.70657
v -0.45000 0.90000 0.73000
v -0.57728 0.90000 0.70657
v -0.63000 0.90000 0.65000
v -0.57728 0.90000 0.59343
v -0.45000 0.90000 0.57000
v -0.32272 0.90000 0.59343
v -0.32272 0.74444 0.65000
v -0.36000 0.74444 0.69000
v -0.45000 0.74444 0.70657
v -0.54000 0.74444 0.69000
v -0.57728 0.74444 0.65000
v -0.54000 0.74444 0.61000
v -0.45000 0.74444 0.59343
v -0.36000 0.74444 0.61000
v -0.45000 0.68000 0.65000
v 0.30000 2.22000 0.40000
v 0.42728 2.15556 0.40000
v 0.39000 2.15556 0.44000
v 0.30000 2.15556 0.45657
v 0.21000 2.15556 0.44000
v 0.17272 2.15556 0.40000
v 0.21000 2.15556 0.36000
v 0.30000 2.15556 0.34343
v 0.39000 2.15556 0.36000
v 0.48000 2.00000 0.40000
v 0.42728 2.00000 0.45657
v 0.30000 2.00000 0.48000
v 0.17272 2.00000 0.45657
v 0.12000 2.00000 0.40000
v 0.17272 2.00000 0.34343
v 0.30000 2.00000 0.32000
v 0.42728 2.00000 0.34343
v 0.42728 1.84444 0.40000
v 0.39000 1.84444 0.44000
v 0.30000 1.84444 0.45657
v 0.21000 1.84444 0.44000
v 0.17272 1.84444 0.40000
v 0.21000 1.84444 0.36000
v 0.30000 1.84444 0.34343
v 0.39000 1.84444 0.36000
v 0.30000 1.78000 0.40000
v -0.62000 1.87000 0.30000
v -0.49272 1.80556 0.30000
v -0.53000 1.80556 0.34000
v -0.62000 1.80556 0.35657
v -0.71000 1.80556 0.34000
v -0.74728 1.80556 0.30000
v -0.71000 1.80556 0.26000
v -0.62000 1.80556 0.24343
v -0.53000 1.80556 0.26000
v -0.44000 1.65000 0.30000
v -0.49272 1.65000 0.35657
v -0.62000 1.65000 0.38000
v -0.74728 1.65000 0.35657
v -0.80000 1.65000 0.30000
v -0.74728 1.65000 0.24343
v -0.62000 1.65000 0.22000
v -0.49272 1.65000 0.24343
v -0.49272 1.49444 0.30000
v -0.53000 1.49444 0.34000
v -0.62000 1.49444 0.35657
v -0.71000 1.49444 0.34000
v -0.74728 1.49444 0.30000
v -0.71000 1.49444 0.26000
v -0.62000 1.49444 0.24343
v -0.53000 1.49444 0.26000
v -0.62000 1.43000 0.30000
usemtl mFAE7B1
f 1 3 2
f 1 4 3
f 1 5 4
f 1 6 5
f 1 7 6
f 1 8 7
f 1 9 8
f 1 10 9
f 1 11 10
f 1 12 11
f 1 13 12
f 1 2 13
f 2 3 14
f 3 15 14
f 3 4 15
f 4 16 15
f 4 5 16
f 5 17 16
f 5 6 17
f 6 18 17
f 6 7 18
f 7 19 18
f 7 8 19
f 8 20 19
f 8 9 20
f 9 21 20
f 9 10 21
f 10 22 21
f 10 11 22
f 11 23 22
f 11 12 23
f 12 24 23
f 12 13 24
f 13 25 24
f 13 2 25
f 2 14 25
f 14 15 26
f 15 27 26
f 15 16 27
f 16 28 27
f 16 17 28
f 17 29 28
f 17 18 29
f 18 30 29
f 18 19 30
f 19 31 30
f 19 20 31
f 20 32 31
f 20 21 32
f 21 33 32
f 21 22 33
f 22 34 33
f 22 23 34
f 23 35 34
f 23 24 35
f 24 36 35
f 24 25 36
f 25 37 36
f 25 14 37
f 14 26 37
f 26 27 38
f 27 39 38
f 27 28 39
f 28 40 39
f 28 29 40
f 29 41 40
f 29 30 41
f 30 42 41
f 30 31 42
f 31 43 42
f 31 32 43
f 32 44 43
f 32 33 44
f 33 45 44
f 33 34 45
f 34 46 45
f 34 35 46
f 35 47 46
f 35 36 47
f 36 48 47
f 36 37 48
f 37 49 48
f 37 26 49
f 26 38 49
f 38 39 50
f 39 51 50
f 39 40 51
f 40 52 51
f 40 41 52
f 41 53 52
f 41 42 53
f 42 54 53
f 42 43 54
f 43 55 54
f 43 44 55
f 44 56 55
f 44 45 56
f 45 57 56
f 45 46 57
f 46 58 57
f 46 47 58
f 47 59 58
f 47 48 59
f 48 60 59
f 48 49 60
f 49 61 60
f 49 38 61
f 38 50 61
f 50 51 62
f 51 63 62
f 51 52 63
f 52 64 63
f 52 53 64
f 53 65 64
f 53 54 65
f 54 66 65
f 54 55 66
f 55 67 66
f 55 56 67
f 56 68 67
f 56 57 68
f 57 69 68
f 57 58 69
f 58 70 69
f 58 59 70
f 59 71 70
f 59 60 71
f 60 72 71
f 60 61 72
f 61 73 72
f 61 50 73
f 50 62 73
f 62 63 74
f 63 75 74
f 63 64 75
f 64 76 75
f 64 65 76
f 65 77 76
f 65 66 77
f 66 78 77
f 66 67 78
f 67 79 78
f 67 68 79
f 68 80 79
f 68 69 80
f 69 81 80
f 69 70 81
f 70 82 81
f 70 71 82
f 71 83 82
f 71 72 83
f 72 84 83
f 72 73 84
f 73 85 84
f 73 62 85
f 62 74 85
f 74 75 86
f 75 76 86
f 76 77 86
f 77 78 86
f 78 79 86
f 79 80 86
f 80 81 86
f 81 82 86
f 82 83 86
f 83 84 86
f 84 85 86
f 85 74 86
usemtl m6AA894
f 87 89 88
f 87 90 89
f 87 91 90
f 87 92 91
f 87 93 92
f 87 94 93
f 87 95 94
f 87 88 95
f 88 89 96
f 89 97 96
f 89 90 97
f 90 98 97
f 90 91 98
f 91 99 98
f 91 92 99
f 92 100 99
f 92 93 100
f 93 101 100
f 93 94 101
f 94 102 101
f 94 95 102
f 95 103 102
f 95 88 103
f 88 96 103
f 96 97 104
f 97 105 104
f 97 98 105
f 98 106 105
f 98 99 106
f 99 107 106
f 99 100 107
f 100 108 107
f 100 101 108
f 101 109 108
f 101 102 109
f 102 110 109
f 102 103 110
f 103 111 110
f 103 96 111
f 96 104 111
f 104 105 112
f 105 106 112
f 106 107 112
f 107 108 112
f 108 109 112
f 109 110 112
f 110 111 112
f 111 104 112
f 113 115 114
f 113 116 115
f 113 117 116
f 113 118 117
f 113 119 118
f 113 120 119
f 113 121 120
f 113 114 121
f 114 115 122
f 115 123 122
f 115 116 123
f 116 124 123
f 116 117 124
f 117 125 124
f 117 118 125
f 118 126 125
f 118 119 126
f 119 127 126
f 119 120 127
f 120 128 127
f 120 121 128
f 121 129 128
f 121 114 129
f 114 122 129
f 122 123 130
f 123 131 130
f 123 124 131
f 124 132 131
f 124 125 132
f 125 133 132
f 125 126 133
f 126 134 133
f 126 127 134
f 127 135 134
f 127 128 135
f 128 136 135
f 128 129 136
f 129 137 136
f 129 122 137
f 122 130 137
f 130 131 138
f 131 132 138
f 132 133 138
f 133 134 138
f 134 135 138
f 135 136 138
f 136 137 138
f 137 130 138
f 139 141 140
f 139 142 141
f 139 143 142
f 139 144 143
f 139 145 144
f 139 146 145
f 139 147 146
f 139 140 147
f 140 141 148
f 141 149 148
f 141 142 149
f 142 150 149
f 142 143 150
f 143 151 150
f 143 144 151
f 144 152 151
f 144 145 152
f 145 153 152
f 145 146 153
f 146 154 153
f 146 147 154
f 147 155 154
f 147 140 155
f 140 148 155
f 148 149 156
f 149 157 156
f 149 150 157
f 150 158 157
f 150 151 158
f 151 159 158
f 151 152 159
f 152 160 159
f 152 153 160
f 153 161 160
f 153 154 161
f 154 162 161
f 154 155 162
f 155 163 162
f 155 148 163
f 148 156 163
f 156 157 164
f 157 158 164
f 158 159 164
f 159 160 164
f 160 161 164
f 161 162 164
f 162 163 164
f 163 156 164
f 165 167 166
f 165 168 167
f 165 169 168
f 165 170 169
f 165 171 170
f 165 172 171
f 165 173 172
f 165 166 173
f 166 167 174
f 167 175 174
f 167 168 175
f 168 176 175
f 168 169 176
f 169 177 176
f 169 170 177
f 170 178 177
f 170 171 178
f 171 179 178
f 171 172 179
f 172 180 179
f 172 173 180
f 173 181 180
f 173 166 181
f 166 174 181
f 174 175 182
f 175 183 182
f 175 176 183
f 176 184 183
f 176 177 184
f 177 185 184
f 177 178 185
f 178 186 185
f 178 179 186
f 179 187 186
f 179 180 187
f 180 188 187
f 180 181 188
f 181 189 188
f 181 174 189
f 174 182 189
f 182 183 190
f 183 184 190
f 184 185 190
f 185 186 190
f 186 187 190
f 187 188 190
f 188 189 190
f 189 182 190
