mtllib fern.mtl
o fern
v 0.00000 0.00000 -0.11000
v -0.08920 0.03345 -0.05500
v -0.08920 0.03345 0.05500
v -0.00000 0.00000 0.11000
v 0.08920 -0.03345 0.05500
v 0.08920 -0.03345 -0.05500
v 0.60000 1.60000 0.17000
v 0.55048 1.46135 0.08500
v 0.55048 1.46135 -0.08500
v 0.60000 1.60000 -0.17000
v 0.64952 1.73865 -0.08500
v 0.64952 1.73865 0.08500
v 2.00000 1.10000 0.01500
v 1.99563 1.08777 0.00750
v 1.99563 1.08777 -0.00750
v 2.00000 1.10000 -0.01500
v 2.00437 1.11223 -0.00750
v 2.00437 1.11223 0.00750
v 0.40000 1.40000 0.00000
v 0.70311 1.35000 0.00000
v 0.55155 1.35000 0.48750
v 0.24845 1.35000 0.48750
v 0.09689 1.35000 0.00000
v 0.24845 1.35000 -0.48750
v 0.55155 1.35000 -0.48750
v 0.70311 1.25000 0.00000
v 0.55155 1.25000 0.48750
v 0.24845 1.25000 0.48750
v 0.09689 1.25000 0.00000
v 0.24845 1.25000 -0.48750
v 0.55155 1.25000 -0.48750
v 0.40000 1.20000 0.00000
v 0.80000 1.40000 0.00000
v 1.10311 1.35000 0.00000
v 0.95155 1.35000 0.48750
v 0.64845 1.35000 0.48750
v 0.49689 1.35000 0.00000
v 0.64845 1.35000 -0.48750
v 0.95155 1.35000 -0.48750
v 1.10311 1.25000 0.00000
v 0.95155 1.25000 0.48750
v 0.64845 1.25000 0.48750
v 0.49689 1.25000 0.00000
v 0.64845 1.25000 -0.48750
v 0.95155 1.25000 -0.48750
v 0.80000 1.20000 0.00000
v 1.20000 1.40000 0.00000
v 1.50311 1.35000 0.00000
v 1.35155 1.35000 0.48750
v 1.04845 1.35000 0.48750
v 0.89689 1.35000 0.00000
v 1.04845 1.35000 -0.48750
v 1.35155 1.35000 -0.48750
v 1.50311 1.25000 0.00000
v 1.35155 1.25000 0.48750
v 1.04845 1.25000 0.48750
v 0.89689 1.25000 0.00000
v 1.04845 1.25000 -0.48750
v 1.35155 1.25000 -0.48750
v 1.20000 1.20000 0.00000
v 0.00000 0.03095 -0.10556
v -0.09295 0.03549 -0.04691
v -0.09295 0.00454 0.05865
v -0.00000 -0.03095 0.10556
v 0.09295 -0.03549 0.04691
v 0.09295 -0.00454 -0.05865
v 0.24118 1.60000 0.57509
v 0.27676 1.46135 0.48338
v 0.40968 1.46135 0.37739
v 0.50701 1.60000 0.36311
v 0.47142 1.73865 0.45482
v 0.33851 1.73865 0.56081
v 1.23525 1.10000 1.57302
v 1.23839 1.08777 1.56492
v 1.25012 1.08777 1.55557
v 1.25871 1.10000 1.55431
v 1.25557 1.11223 1.56240
v 1.24384 1.11223 1.57176
v 0.24940 1.40000 0.31273
v 0.55250 1.35000 0.31273
v 0.40095 1.35000 0.80023
v 0.09784 1.35000 0.80023
v -0.05371 1.35000 0.31273
v 0.09784 1.35000 -0.17477
v 0.40095 1.35000 -0.17477
v 0.55250 1.25000 0.31273
v 0.40095 1.25000 0.80023
v 0.09784 1.25000 0.80023
v -0.05371 1.25000 0.31273
v 0.09784 1.25000 -0.17477
v 0.40095 1.25000 -0.17477
v 0.24940 1.20000 0.31273
v 0.49879 1.40000 0.62547
v 0.80190 1.35000 0.62547
v 0.65035 1.35000 1.11297
v 0.34724 1.35000 1.11297
v 0.19568 1.35000 0.62547
v 0.34724 1.35000 0.13797
v 0.65035 1.35000 0.13797
v 0.80190 1.25000 0.62547
v 0.65035 1.25000 1.11297
v 0.34724 1.25000 1.11297
v 0.19568 1.25000 0.62547
v 0.34724 1.25000 0.13797
v 0.65035 1.25000 0.13797
v 0.49879 1.20000 0.62547
v 0.74819 1.40000 0.93820
v 1.05130 1.35000 0.93820
v 0.89974 1.35000 1.42570
v 0.59663 1.35000 1.42570
v 0.44508 1.35000 0.93820
v 0.59663 1.35000 0.45070
v 0.89974 1.35000 0.45070
v 1.05130 1.25000 0.93820
v 0.89974 1.25000 1.42570
v 0.59663 1.25000 1.42570
v 0.44508 1.25000 0.93820
v 0.59663 1.25000 0.45070
v 0.89974 1.25000 0.45070
v 0.74819 1.20000 0.93820
v 0.00000 0.03777 -0.10331
v -0.09497 0.01189 -0.05421
v -0.09497 -0.02588 0.04910
v -0.00000 -0.03777 0.10331
v 0.09497 -0.01189 0.05421
v 0.09497 0.02588 -0.04910
v -0.29925 1.60000 0.54713
v -0.20536 1.46135 0.51777
v -0.03963 1.46135 0.55560
v 0.03223 1.60000 0.62279
v -0.06166 1.73865 0.65215
v -0.22740 1.73865 0.61432
v -0.45967 1.10000 1.94652
v -0.45138 1.08777 1.94393
v -0.43676 1.08777 1.94727
v -0.43042 1.10000 1.95319
v -0.43870 1.11223 1.95578
v -0.45333 1.11223 1.95245
v -0.08901 1.40000 0.38997
v 0.21410 1.35000 0.38997
v 0.06255 1.35000 0.87747
v -0.24056 1.35000 0.87747
v -0.39212 1.35000 0.38997
v -0.24056 1.35000 -0.09753
v 0.06255 1.35000 -0.09753
v 0.21410 1.25000 0.38997
v 0.06255 1.25000 0.87747
v -0.24056 1.25000 0.87747
v -0.39212 1.25000 0.38997
v -0.24056 1.25000 -0.09753
v 0.06255 1.25000 -0.09753
v -0.08901 1.20000 0.38997
v -0.17802 1.40000 0.77994
v 0.12509 1.35000 0.77994
v -0.02646 1.35000 1.26744
v -0.32957 1.35000 1.26744
v -0.48113 1.35000 0.77994
v -0.32957 1.35000 0.29244
v -0.02646 1.35000 0.29244
v 0.12509 1.25000 0.77994
v -0.02646 1.25000 1.26744
v -0.32957 1.25000 1.26744
v -0.48113 1.25000 0.77994
v -0.32957 1.25000 0.29244
v -0.02646 1.25000 0.29244
v -0.17802 1.20000 0.77994
v -0.26703 1.40000 1.16991
v 0.03608 1.35000 1.16991
v -0.11547 1.35000 1.65741
v -0.41858 1.35000 1.65741
v -0.57013 1.35000 1.16991
v -0.41858 1.35000 0.68241
v -0.11547 1.35000 0.68241
v 0.03608 1.25000 1.16991
v -0.11547 1.25000 1.65741
v -0.41858 1.25000 1.65741
v -0.57013 1.25000 1.16991
v -0.41858 1.25000 0.68241
v -0.11547 1.25000 0.68241
v -0.26703 1.20000 1.16991
v 0.00000 0.01767 -0.10857
v -0.09037 -0.02091 -0.05913
v -0.09037 -0.03858 0.04945
v -0.00000 -0.01767 0.10857
v 0.09037 0.02091 0.05913
v 0.09037 0.03858 -0.04945
v -0.61434 1.60000 0.10717
v -0.53285 1.46135 0.16226
v -0.45909 1.46135 0.31543
v -0.46682 1.60000 0.41349
v -0.54831 1.73865 0.35840
v -0.62207 1.73865 0.20523
v -1.80845 1.10000 0.85425
v -1.80126 1.08777 0.85911
v -1.79475 1.08777 0.87263
v -1.79543 1.10000 0.88128
v -1.80262 1.11223 0.87642
v -1.80913 1.11223 0.86291
v -0.36039 1.40000 0.17355
v -0.05728 1.35000 0.17355
v -0.20883 1.35000 0.66105
v -0.51194 1.35000 0.66105
v -0.66350 1.35000 0.17355
v -0.51194 1.35000 -0.31395
v -0.20883 1.35000 -0.31395
v -0.05728 1.25000 0.17355
v -0.20883 1.25000 0.66105
v -0.51194 1.25000 0.66105
v -0.66350 1.25000 0.17355
v -0.51194 1.25000 -0.31395
v -0.20883 1.25000 -0.31395
v -0.36039 1.20000 0.17355
v -0.72078 1.40000 0.34711
v -0.41767 1.35000 0.34711
v -0.56922 1.35000 0.83461
v -0.87233 1.35000 0.83461
v -1.02388 1.35000 0.34711
v -0.87233 1.35000 -0.14039
v -0.56922 1.35000 -0.14039
v -0.41767 1.25000 0.34711
v -0.56922 1.25000 0.83461
v -0.87233 1.25000 0.83461
v -1.02388 1.25000 0.34711
v -0.87233 1.25000 -0.14039
v -0.56922 1.25000 -0.14039
v -0.72078 1.20000 0.34711
v -1.08116 1.40000 0.52066
v -0.77805 1.35000 0.52066
v -0.92961 1.35000 1.00816
v -1.23272 1.35000 1.00816
v -1.38427 1.35000 0.52066
v -1.23272 1.35000 0.03316
v -0.92961 1.35000 0.03316
v -0.77805 1.25000 0.52066
v -0.92961 1.25000 1.00816
v -1.23272 1.25000 1.00816
v -1.38427 1.25000 0.52066
v -1.23272 1.25000 0.03316
v -0.92961 1.25000 0.03316
v -1.08116 1.20000 0.52066
v 0.00000 -0.01767 -0.10857
v -0.09037 -0.03858 -0.04945
v -0.09037 -0.02091 0.05913
v -0.00000 0.01767 0.10857
v 0.09037 0.03858 0.04945
v 0.09037 0.02091 -0.05913
v -0.46682 1.60000 -0.41349
v -0.45909 1.46135 -0.31543
v -0.53285 1.46135 -0.16226
v -0.61434 1.60000 -0.10717
v -0.62207 1.73865 -0.20523
v -0.54831 1.73865 -0.35840
v -1.79543 1.10000 -0.88128
v -1.79475 1.08777 -0.87263
v -1.80126 1.08777 -0.85911
v -1.80845 1.10000 -0.85425
v -1.80913 1.11223 -0.86291
v -1.80262 1.11223 -0.87642
v -0.36039 1.40000 -0.17355
v -0.05728 1.35000 -0.17355
v -0.20883 1.35000 0.31395
v -0.51194 1.35000 0.31395
v -0.66350 1.35000 -0.17355
v -0.51194 1.35000 -0.66105
v -0.20883 1.35000 -0.66105
v -0.05728 1.25000 -0.17355
v -0.20883 1.25000 0.31395
v -0.51194 1.25000 0.31395
v -0.66350 1.25000 -0.17355
v -0.51194 1.25000 -0.66105
v -0.20883 1.25000 -0.66105
v -0.36039 1.20000 -0.17355
v -0.72078 1.40000 -0.34711
v -0.41767 1.35000 -0.34711
v -0.56922 1.35000 0.14039
v -0.87233 1.35000 0.14039
v -1.02388 1.35000 -0.34711
v -0.87233 1.35000 -0.83461
v -0.56922 1.35000 -0.83461
v -0.41767 1.25000 -0.34711
v -0.56922 1.25000 0.14039
v -0.87233 1.25000 0.14039
v -1.02388 1.25000 -0.34711
v -0.87233 1.25000 -0.83461
v -0.56922 1.25000 -0.83461
v -0.72078 1.20000 -0.34711
v -1.08116 1.40000 -0.52066
v -0.77805 1.35000 -0.52066
v -0.92961 1.35000 -0.03316
v -1.23272 1.35000 -0.03316
v -1.38427 1.35000 -0.52066
v -1.23272 1.35000 -1.00816
v -0.92961 1.35000 -1.00816
v -0.77805 1.25000 -0.52066
v -0.92961 1.25000 -0.03316
v -1.23272 1.25000 -0.03316
v -1.38427 1.25000 -0.52066
v -1.23272 1.25000 -1.00816
v -0.92961 1.25000 -1.00816
v -1.08116 1.20000 -0.52066
v 0.00000 -0.03777 -0.10331
v -0.09497 -0.02588 -0.04910
v -0.09497 0.01189 0.05421
v -0.00000 0.03777 0.10331
v 0.09497 0.02588 0.04910
v 0.09497 -0.01189 -0.05421
v 0.03223 1.60000 -0.62279
v -0.03963 1.46135 -0.55560
v -0.20536 1.46135 -0.51777
v -0.29925 1.60000 -0.54713
v -0.22740 1.73865 -0.61432
v -0.06166 1.73865 -0.65215
v -0.43042 1.10000 -1.95319
v -0.43676 1.08777 -1.94727
v -0.45138 1.08777 -1.94393
v -0.45967 1.10000 -1.94652
v -0.45333 1.11223 -1.95245
v -0.43870 1.11223 -1.95578
v -0.08901 1.40000 -0.38997
v 0.21410 1.35000 -0.38997
v 0.06255 1.35000 0.09753
v -0.24056 1.35000 0.09753
v -0.39212 1.35000 -0.38997
v -0.24056 1.35000 -0.87747
v 0.06255 1.35000 -0.87747
v 0.21410 1.25000 -0.38997
v 0.06255 1.25000 0.09753
v -0.24056 1.25000 0.09753
v -0.39212 1.25000 -0.38997
v -0.24056 1.25000 -0.87747
v 0.06255 1.25000 -0.87747
v -0.08901 1.20000 -0.38997
v -0.17802 1.40000 -0.77994
v 0.12509 1.35000 -0.77994
v -0.02646 1.35000 -0.29244
v -0.32957 1.35000 -0.29244
v -0.48113 1.35000 -0.77994
v -0.32957 1.35000 -1.26744
v -0.02646 1.35000 -1.26744
v 0.12509 1.25000 -0.77994
v -0.02646 1.25000 -0.29244
v -0.32957 1.25000 -0.29244
v -0.48113 1.25000 -0.77994
v -0.32957 1.25000 -1.26744
v -0.02646 1.25000 -1.26744
v -0.17802 1.20000 -0.77994
v -0.26703 1.40000 -1.16991
v 0.03608 1.35000 -1.16991
v -0.11547 1.35000 -0.68241
v -0.41858 1.35000 -0.68241
v -0.57013 1.35000 -1.16991
v -0.41858 1.35000 -1.65741
v -0.11547 1.35000 -1.65741
v 0.03608 1.25000 -1.16991
v -0.11547 1.25000 -0.68241
v -0.41858 1.25000 -0.68241
v -0.57013 1.25000 -1.16991
v -0.41858 1.25000 -1.65741
v -0.11547 1.25000 -1.65741
v -0.26703 1.20000 -1.16991
v 0.00000 -0.03095 -0.10556
v -0.09295 0.00454 -0.05865
v -0.09295 0.03549 0.04691
v -0.00000 0.03095 0.10556
v 0.09295 -0.00454 0.05865
v 0.09295 -0.03549 -0.04691
v 0.50701 1.60000 -0.36311
v 0.40968 1.46135 -0.37739
v 0.27676 1.46135 -0.48338
v 0.24118 1.60000 -0.57509
v 0.33851 1.73865 -0.56081
v 0.47142 1.73865 -0.45482
v 1.25871 1.10000 -1.55431
v 1.25012 1.08777 -1.55557
v 1.23839 1.08777 -1.56492
v 1.23525 1.10000 -1.57302
v 1.24384 1.11223 -1.57176
v 1.25557 1.11223 -1.56240
v 0.24940 1.40000 -0.31273
v 0.55250 1.35000 -0.31273
v 0.40095 1.35000 0.17477
v 0.09784 1.35000 0.17477
v -0.05371 1.35000 -0.31273
v 0.09784 1.35000 -0.80023
v 0.40095 1.35000 -0.80023
v 0.55250 1.25000 -0.31273
v 0.40095 1.25000 0.17477
v 0.09784 1.25000 0.17477
v -0.05371 1.25000 -0.31273
v 0.09784 1.25000 -0.80023
v 0.40095 1.25000 -0.80023
v 0.24940 1.20000 -0.31273
v 0.49879 1.40000 -0.62547
v 0.80190 1.35000 -0.62547
v 0.65035 1.35000 -0.13797
v 0.34724 1.35000 -0.13797
v 0.19568 1.35000 -0.62547
v 0.34724 1.35000 -1.11297
v 0.65035 1.35000 -1.11297
v 0.80190 1.25000 -0.62547
v 0.65035 1.25000 -0.13797
v 0.34724 1.25000 -0.13797
v 0.19568 1.25000 -0.62547
v 0.34724 1.25000 -1.11297
v 0.65035 1.25000 -1.11297
v 0.49879 1.20000 -0.62547
v 0.74819 1.40000 -0.93820
v 1.05130 1.35000 -0.93820
v 0.89974 1.35000 -0.45070
v 0.59663 1.35000 -0.45070
v 0.44508 1.35000 -0.93820
v 0.59663 1.35000 -1.42570
v 0.89974 1.35000 -1.42570
v 1.05130 1.25000 -0.93820
v 0.89974 1.25000 -0.45070
v 0.59663 1.25000 -0.45070
v 0.44508 1.25000 -0.93820
v 0.59663 1.25000 -1.42570
v 0.89974 1.25000 -1.42570
v 0.74819 1.20000 -0.93820
usemtl m77BD8A
f 1 2 7
f 2 8 7
f 2 3 8
f 3 9 8
f 3 4 9
f 4 10 9
f 4 5 10
f 5 11 10
f 5 6 11
f 6 12 11
f 6 1 12
f 1 7 12
f 7 8 13
f 8 14 13
f 8 9 14
f 9 15 14
f 9 10 15
f 10 16 15
f 10 11 16
f 11 17 16
f 11 12 17
f 12 18 17
f 12 7 18
f 7 13 18
f 1 3 2
f 13 14 15
f 1 4 3
f 13 15 16
f 1 5 4
f 13 16 17
f 1 6 5
f 13 17 18
usemtl m4D997A
f 19 21 20
f 19 22 21
f 19 23 22
f 19 24 23
f 19 25 24
f 19 20 25
f 20 21 26
f 21 27 26
f 21 22 27
f 22 28 27
f 22 23 28
f 23 29 28
f 23 24 29
f 24 30 29
f 24 25 30
f 25 31 30
f 25 20 31
f 20 26 31
f 26 27 32
f 27 28 32
f 28 29 32
f 29 30 32
f 30 31 32
f 31 26 32
f 33 35 34
f 33 36 35
f 33 37 36
f 33 38 37
f 33 39 38
f 33 34 39
f 34 35 40
f 35 41 40
f 35 36 41
f 36 42 41
f 36 37 42
f 37 43 42
f 37 38 43
f 38 44 43
f 38 39 44
f 39 45 44
f 39 34 45
f 34 40 45
f 40 41 46
f 41 42 46
f 42 43 46
f 43 44 46
f 44 45 46
f 45 40 46
f 47 49 48
f 47 50 49
f 47 51 50
f 47 52 51
f 47 53 52
f 47 48 53
f 48 49 54
f 49 55 54
f 49 50 55
f 50 56 55
f 50 51 56
f 51 57 56
f 51 52 57
f 52 58 57
f 52 53 58
f 53 59 58
f 53 48 59
f 48 54 59
f 54 55 60
f 55 56 60
f 56 57 60
f 57 58 60
f 58 59 60
f 59 54 60
usemtl m77BD8A
f 61 62 67
f 62 68 67
f 62 63 68
f 63 69 68
f 63 64 69
f 64 70 69
f 64 65 70
f 65 71 70
f 65 66 71
f 66 72 71
f 66 61 72
f 61 67 72
f 67 68 73
f 68 74 73
f 68 69 74
f 69 75 74
f 69 70 75
f 70 76 75
f 70 71 76
f 71 77 76
f 71 72 77
f 72 78 77
f 72 67 78
f 67 73 78
f 61 63 62
f 73 74 75
f 61 64 63
f 73 75 76
f 61 65 64
f 73 76 77
f 61 66 65
f 73 77 78
usemtl m4D997A
f 79 81 80
f 79 82 81
f 79 83 82
f 79 84 83
f 79 85 84
f 79 80 85
f 80 81 86
f 81 87 86
f 81 82 87
f 82 88 87
f 82 83 88
f 83 89 88
f 83 84 89
f 84 90 89
f 84 85 90
f 85 91 90
f 85 80 91
f 80 86 91
f 86 87 92
f 87 88 92
f 88 89 92
f 89 90 92
f 90 91 92
f 91 86 92
f 93 95 94
f 93 96 95
f 93 97 96
f 93 98 97
f 93 99 98
f 93 94 99
f 94 95 100
f 95 101 100
f 95 96 101
f 96 102 101
f 96 97 102
f 97 103 102
f 97 98 103
f 98 104 103
f 98 99 104
f 99 105 104
f 99 94 105
f 94 100 105
f 100 101 106
f 101 102 106
f 102 103 106
f 103 104 106
f 104 105 106
f 105 100 106
f 107 109 108
f 107 110 109
f 107 111 110
f 107 112 111
f 107 113 112
f 107 108 113
f 108 109 114
f 109 115 114
f 109 110 115
f 110 116 115
f 110 111 116
f 111 117 116
f 111 112 117
f 112 118 117
f 112 113 118
f 113 119 118
f 113 108 119
f 108 114 119
f 114 115 120
f 115 116 120
f 116 117 120
f 117 118 120
f 118 119 120
f 119 114 120
usemtl m77BD8A
f 121 122 127
f 122 128 127
f 122 123 128
f 123 129 128
f 123 124 129
f 124 130 129
f 124 125 130
f 125 131 130
f 125 126 131
f 126 132 131
f 126 121 132
f 121 127 132
f 127 128 133
f 128 134 133
f 128 129 134
f 129 135 134
f 129 130 135
f 130 136 135
f 130 131 136
f 131 137 136
f 131 132 137
f 132 138 137
f 132 127 138
f 127 133 138
f 121 123 122
f 133 134 135
f 121 124 123
f 133 135 136
f 121 125 124
f 133 136 137
f 121 126 125
f 133 137 138
usemtl m4D997A
f 139 141 140
f 139 142 141
f 139 143 142
f 139 144 143
f 139 145 144
f 139 140 145
f 140 141 146
f 141 147 146
f 141 142 147
f 142 148 147
f 142 143 148
f 143 149 148
f 143 144 149
f 144 150 149
f 144 145 150
f 145 151 150
f 145 140 151
f 140 146 151
f 146 147 152
f 147 148 152
f 148 149 152
f 149 150 152
f 150 151 152
f 151 146 152
f 153 155 154
f 153 156 155
f 153 157 156
f 153 158 157
f 153 159 158
f 153 154 159
f 154 155 160
f 155 161 160
f 155 156 161
f 156 162 161
f 156 157 162
f 157 163 162
f 157 158 163
f 158 164 163
f 158 159 164
f 159 165 164
f 159 154 165
f 154 160 165
f 160 161 166
f 161 162 166
f 162 163 166
f 163 164 166
f 164 165 166
f 165 160 166
f 167 169 168
f 167 170 169
f 167 171 170
f 167 172 171
f 167 173 172
f 167 168 173
f 168 169 174
f 169 175 174
f 169 170 175
f 170 176 175
f 170 171 176
f 171 177 176
f 171 172 177
f 172 178 177
f 172 173 178
f 173 179 178
f 173 168 179
f 168 174 179
f 174 175 180
f 175 176 180
f 176 177 180
f 177 178 180
f 178 179 180
f 179 174 180
usemtl m77BD8A
f 181 182 187
f 182 188 187
f 182 183 188
f 183 189 188
f 183 184 189
f 184 190 189
f 184 185 190
f 185 191 190
f 185 186 191
f 186 192 191
f 186 181 192
f 181 187 192
f 187 188 193
f 188 194 193
f 188 189 194
f 189 195 194
f 189 190 195
f 190 196 195
f 190 191 196
f 191 197 196
f 191 192 197
f 192 198 197
f 192 187 198
f 187 193 198
f 181 183 182
f 193 194 195
f 181 184 183
f 193 195 196
f 181 185 184
f 193 196 197
f 181 186 185
f 193 197 198
usemtl m4D997A
f 199 201 200
f 199 202 201
f 199 203 202
f 199 204 203
f 199 205 204
f 199 200 205
f 200 201 206
f 201 207 206
f 201 202 207
f 202 208 207
f 202 203 208
f 203 209 208
f 203 204 209
f 204 210 209
f 204 205 210
f 205 211 210
f 205 200 211
f 200 206 211
f 206 207 212
f 207 208 212
f 208 209 212
f 209 210 212
f 210 211 212
f 211 206 212
f 213 215 214
f 213 216 215
f 213 217 216
f 213 218 217
f 213 219 218
f 213 214 219
f 214 215 220
f 215 221 220
f 215 216 221
f 216 222 221
f 216 217 222
f 217 223 222
f 217 218 223
f 218 224 223
f 218 219 224
f 219 225 224
f 219 214 225
f 214 220 225
f 220 221 226
f 221 222 226
f 222 223 226
f 223 224 226
f 224 225 226
f 225 220 226
f 227 229 228
f 227 230 229
f 227 231 230
f 227 232 231
f 227 233 232
f 227 228 233
f 228 229 234
f 229 235 234
f 229 230 235
f 230 236 235
f 230 231 236
f 231 237 236
f 231 232 237
f 232 238 237
f 232 233 238
f 233 239 238
f 233 228 239
f 228 234 239
f 234 235 240
f 235 236 240
f 236 237 240
f 237 238 240
f 238 239 240
f 239 234 240
usemtl m77BD8A
f 241 242 247
f 242 248 247
f 242 243 248
f 243 249 248
f 243 244 249
f 244 250 249
f 244 245 250
f 245 251 250
f 245 246 251
f 246 252 251
f 246 241 252
f 241 247 252
f 247 248 253
f 248 254 253
f 248 249 254
f 249 255 254
f 249 250 255
f 250 256 255
f 250 251 256
f 251 257 256
f 251 252 257
f 252 258 257
f 252 247 258
f 247 253 258
f 241 243 242
f 253 254 255
f 241 244 243
f 253 255 256
f 241 245 244
f 253 256 257
f 241 246 245
f 253 257 258
usemtl m4D997A
f 259 261 260
f 259 262 261
f 259 263 262
f 259 264 263
f 259 265 264
f 259 260 265
f 260 261 266
f 261 267 266
f 261 262 267
f 262 268 267
f 262 263 268
f 263 269 268
f 263 264 269
f 264 270 269
f 264 265 270
f 265 271 270
f 265 260 271
f 260 266 271
f 266 267 272
f 267 268 272
f 268 269 272
f 269 270 272
f 270 271 272
f 271 266 272
f 273 275 274
f 273 276 275
f 273 277 276
f 273 278 277
f 273 279 278
f 273 274 279
f 274 275 280
f 275 281 280
f 275 276 281
f 276 282 281
f 276 277 282
f 277 283 282
f 277 278 283
f 278 284 283
f 278 279 284
f 279 285 284
f 279 274 285
f 274 280 285
f 280 281 286
f 281 282 286
f 282 283 286
f 283 284 286
f 284 285 286
f 285 280 286
f 287 289 288
f 287 290 289
f 287 291 290
f 287 292 291
f 287 293 292
f 287 288 293
f 288 289 294
f 289 295 294
f 289 290 295
f 290 296 295
f 290 291 296
f 291 297 296
f 291 292 297
f 292 298 297
f 292 293 298
f 293 299 298
f 293 288 299
f 288 294 299
f 294 295 300
f 295 296 300
f 296 297 300
f 297 298 300
f 298 299 300
f 299 294 300
usemtl m77BD8A
f 301 302 307
f 302 308 307
f 302 303 308
f 303 309 308
f 303 304 309
f 304 310 309
f 304 305 310
f 305 311 310
f 305 306 311
f 306 312 311
f 306 301 312
f 301 307 312
f 307 308 313
f 308 314 313
f 308 309 314
f 309 315 314
f 309 310 315
f 310 316 315
f 310 311 316
f 311 317 316
f 311 312 317
f 312 318 317
f 312 307 318
f 307 313 318
f 301 303 302
f 313 314 315
f 301 304 303
f 313 315 316
f 301 305 304
f 313 316 317
f 301 306 305
f 313 317 318
usemtl m4D997A
f 319 321 320
f 319 322 321
f 319 323 322
f 319 324 323
f 319 325 324
f 319 320 325
f 320 321 326
f 321 327 326
f 321 322 327
f 322 328 327
f 322 323 328
f 323 329 328
f 323 324 329
f 324 330 329
f 324 325 330
f 325 331 330
f 325 320 331
f 320 326 331
f 326 327 332
f 327 328 332
f 328 329 332
f 329 330 332
f 330 331 332
f 331 326 332
f 333 335 334
f 333 336 335
f 333 337 336
f 333 338 337
f 333 339 338
f 333 334 339
f 334 335 340
f 335 341 340
f 335 336 341
f 336 342 341
f 336 337 342
f 337 343 342
f 337 338 343
f 338 344 343
f 338 339 344
f 339 345 344
f 339 334 345
f 334 340 345
f 340 341 346
f 341 342 346
f 342 343 346
f 343 344 346
f 344 345 346
f 345 340 346
f 347 349 348
f 347 350 349
f 347 351 350
f 347 352 351
f 347 353 352
f 347 348 353
f 348 349 354
f 349 355 354
f 349 350 355
f 350 356 355
f 350 351 356
f 351 357 356
f 351 352 357
f 352 358 357
f 352 353 358
f 353 359 358
f 353 348 359
f 348 354 359
f 354 355 360
f 355 356 360
f 356 357 360
f 357 358 360
f 358 359 360
f 359 354 360
usemtl m77BD8A
f 361 362 367
f 362 368 367
f 362 363 368
f 363 369 368
f 363 364 369
f 364 370 369
f 364 365 370
f 365 371 370
f 365 366 371
f 366 372 371
f 366 361 372
f 361 367 372
f 367 368 373
f 368 374 373
f 368 369 374
f 369 375 374
f 369 370 375
f 370 376 375
f 370 371 376
f 371 377 376
f 371 372 377
f 372 378 377
f 372 367 378
f 367 373 378
f 361 363 362
f 373 374 375
f 361 364 363
f 373 375 376
f 361 365 364
f 373 376 377
f 361 366 365
f 373 377 378
usemtl m4D997A
f 379 381 380
f 379 382 381
f 379 383 382
f 379 384 383
f 379 385 384
f 379 380 385
f 380 381 386
f 381 387 386
f 381 382 387
f 382 388 387
f 382 383 388
f 383 389 388
f 383 384 389
f 384 390 389
f 384 385 390
f 385 391 390
f 385 380 391
f 380 386 391
f 386 387 392
f 387 388 392
f 388 389 392
f 389 390 392
f 390 391 392
f 391 386 392
f 393 395 394
f 393 396 395
f 393 397 396
f 393 398 397
f 393 399 398
f 393 394 399
f 394 395 400
f 395 401 400
f 395 396 401
f 396 402 401
f 396 397 402
f 397 403 402
f 397 398 403
f 398 404 403
f 398 399 404
f 399 405 404
f 399 394 405
f 394 400 405
f 400 401 406
f 401 402 406
f 402 403 406
f 403 404 406
f 404 405 406
f 405 400 406
f 407 409 408
f 407 410 409
f 407 411 410
f 407 412 411
f 407 413 412
f 407 408 413
f 408 409 414
f 409 415 414
f 409 410 415
f 410 416 415
f 410 411 416
f 411 417 416
f 411 412 417
f 412 418 417
f 412 413 418
f 413 419 418
f 413 408 419
f 408 414 419
f 414 415 420
f 415 416 420
f 416 417 420
f 417 418 420
f 418 419 420
f 419 414 420
