mtllib fruit.mtl
o fruit
v 0.00000 0.89000 0.00000
v 0.44000 0.45000 0.00000
v 0.13597 0.45000 0.41846
v -0.35597 0.45000 0.25863
v -0.35597 0.45000 -0.25863
v 0.13597 0.45000 -0.41846
v 0.00000 0.01000 0.00000
v 0.13000 0.96000 0.00000
v 0.38000 0.92000 0.00000
v 0.20725 0.92000 0.11413
v -0.07225 0.92000 0.07053
v -0.07225 0.92000 -0.07053
v 0.20725 0.92000 -0.11413
v 0.13000 0.88000 0.00000
usemtl mF4BA57
f 1 3 2
f 1 4 3
f 1 5 4
f 1 6 5
f 1 2 6
f 2 3 7
f 3 4 7
f 4 5 7
f 5 6 7
f 6 2 7
usemtl m4D997A
f 8 10 9
f 8 11 10
f 8 12 11
f 8 13 12
f 8 9 13
f 9 10 14
f 10 11 14
f 11 12 14
f 12 13 14
f 13 9 14
