mtllib raptor.mtl
o raptor
v 0.00000 3.10500 0.32400
v 0.83138 2.63250 0.32400
v 0.41569 2.63250 1.53900
v -0.41569 2.63250 1.53900
v -0.83138 2.63250 0.32400
v -0.41569 2.63250 -0.89100
v 0.41569 2.63250 -0.89100
v 0.83138 1.68750 0.32400
v 0.41569 1.68750 1.53900
v -0.41569 1.68750 1.53900
v -0.83138 1.68750 0.32400
v -0.41569 1.68750 -0.89100
v 0.41569 1.68750 -0.89100
v 0.00000 1.21500 0.32400
v 0.00000 2.43000 -0.21600
v 0.65818 2.13750 -0.21600
v 0.32909 2.13750 0.79650
v -0.32909 2.13750 0.79650
v -0.65818 2.13750 -0.21600
v -0.32909 2.13750 -1.22850
v 0.32909 2.13750 -1.22850
v 0.65818 1.55250 -0.21600
v 0.32909 1.55250 0.79650
v -0.32909 1.55250 0.79650
v -0.65818 1.55250 -0.21600
v -0.32909 1.55250 -1.22850
v 0.32909 1.55250 -1.22850
v 0.00000 1.26000 -0.21600
v 0.64000 2.25000 -0.97200
v 0.00000 1.76164 -1.60687
v -0.64000 2.25000 -0.97200
v -0.00000 2.73836 -0.33713
v 0.57600 2.83500 -1.62000
v 0.00000 2.37679 -2.16985
v -0.57600 2.83500 -1.62000
v -0.00000 3.29321 -1.07015
v 0.52000 3.19500 -2.05200
v 0.00000 2.78134 -2.54839
v -0.52000 3.19500 -2.05200
v -0.00000 3.60866 -1.55561
v 0.00000 4.00500 -2.16000
v 0.65818 3.62250 -2.16000
v 0.32909 3.62250 -1.26900
v -0.32909 3.62250 -1.26900
v -0.65818 3.62250 -2.16000
v -0.32909 3.62250 -3.05100
v 0.32909 3.62250 -3.05100
v 0.65818 2.85750 -2.16000
v 0.32909 2.85750 -1.26900
v -0.32909 2.85750 -1.26900
v -0.65818 2.85750 -2.16000
v -0.32909 2.85750 -3.05100
v 0.32909 2.85750 -3.05100
v 0.00000 2.47500 -2.16000
v 0.00000 3.39300 -3.02400
v 0.55426 3.20400 -3.02400
v 0.27713 3.20400 -2.37600
v -0.27713 3.20400 -2.37600
v -0.55426 3.20400 -3.02400
v -0.27713 3.20400 -3.67200
v 0.27713 3.20400 -3.67200
v 0.55426 2.82600 -3.02400
v 0.27713 2.82600 -2.37600
v -0.27713 2.82600 -2.37600
v -0.55426 2.82600 -3.02400
v -0.27713 2.82600 -3.67200
v 0.27713 2.82600 -3.67200
v 0.00000 2.63700 -3.02400
v 0.00000 2.88000 -2.86200
v 0.48497 2.79000 -2.86200
v 0.24249 2.79000 -2.17350
v -0.24249 2.79000 -2.17350
v -0.48497 2.79000 -2.86200
v -0.24249 2.79000 -3.55050
v 0.24249 2.79000 -3.55050
v 0.48497 2.61000 -2.86200
v 0.24249 2.61000 -2.17350
v -0.24249 2.61000 -2.17350
v -0.48497 2.61000 -2.86200
v -0.24249 2.61000 -3.55050
v 0.24249 2.61000 -3.55050
v 0.00000 2.52000 -2.86200
v -0.56000 2.16000 1.51200
v -0.00000 1.53415 1.42534
v 0.56000 2.16000 1.51200
v 0.00000 2.78585 1.59866
v -0.40000 2.02500 2.91600
v -0.00000 1.59659 3.08124
v 0.40000 2.02500 2.91600
v 0.00000 2.45341 2.75076
v -0.20000 2.43000 4.42800
v -0.00000 2.21655 4.51338
v 0.20000 2.43000 4.42800
v 0.00000 2.64345 4.34262
v -0.02000 2.70000 5.40000
v -0.00000 2.67865 5.40854
v 0.02000 2.70000 5.40000
v 0.00000 2.72135 5.39146
v -0.68000 2.25000 0.64800
v -0.33359 1.84500 0.64800
v -0.50679 1.84500 1.13400
v -0.85321 1.84500 1.13400
v -1.02641 1.84500 0.64800
v -0.85321 1.84500 0.16200
v -0.50679 1.84500 0.16200
v -0.33359 1.03500 0.64800
v -0.50679 1.03500 1.13400
v -0.85321 1.03500 1.13400
v -1.02641 1.03500 0.64800
v -0.85321 1.03500 0.16200
v -0.50679 1.03500 0.16200
v -0.68000 0.63000 0.64800
v -0.68000 1.17327 0.97756
v -0.93600 1.26000 0.64800
v -0.68000 1.34673 0.31844
v -0.42400 1.26000 0.64800
v -0.68000 0.33996 0.57117
v -0.87200 0.40500 0.32400
v -0.68000 0.47004 0.07683
v -0.48800 0.40500 0.32400
v -0.68000 0.45000 0.10800
v -0.40287 0.34650 0.10800
v -0.54144 0.34650 0.63450
v -0.81856 0.34650 0.63450
v -0.95713 0.34650 0.10800
v -0.81856 0.34650 -0.41850
v -0.54144 0.34650 -0.41850
v -0.40287 0.13950 0.10800
v -0.54144 0.13950 0.63450
v -0.81856 0.13950 0.63450
v -0.95713 0.13950 0.10800
v -0.81856 0.13950 -0.41850
v -0.54144 0.13950 -0.41850
v -0.68000 0.03600 0.10800
v -0.73600 0.20700 -0.21600
v -0.80800 0.12842 -0.19243
v -0.88000 0.20700 -0.21600
v -0.80800 0.28558 -0.23957
v -0.78800 0.14400 -0.51840
v -0.80800 0.12217 -0.51185
v -0.82800 0.14400 -0.51840
v -0.80800 0.16583 -0.52495
v -0.60800 0.20700 -0.21600
v -0.68000 0.12842 -0.19243
v -0.75200 0.20700 -0.21600
v -0.68000 0.28558 -0.23957
v -0.66000 0.14400 -0.51840
v -0.68000 0.12217 -0.51185
v -0.70000 0.14400 -0.51840
v -0.68000 0.16583 -0.52495
v -0.48000 0.20700 -0.21600
v -0.55200 0.12842 -0.19243
v -0.62400 0.20700 -0.21600
v -0.55200 0.28558 -0.23957
v -0.53200 0.14400 -0.51840
v -0.55200 0.12217 -0.51185
v -0.57200 0.14400 -0.51840
v -0.55200 0.16583 -0.52495
v -0.68633 2.43000 -0.87535
v -0.73591 2.31841 -0.64476
v -0.91367 2.43000 -0.63665
v -0.86409 2.54159 -0.86724
v -0.98000 1.89000 -1.20343
v -1.08389 1.77409 -1.22363
v -1.18000 1.89000 -1.28057
v -1.07611 2.00591 -1.26037
v -0.93077 1.84500 -1.59330
v -1.00269 1.76475 -1.60728
v -1.06923 1.84500 -1.64670
v -0.99731 1.92525 -1.63272
v -0.68000 3.77100 -2.70000
v -0.57608 3.64050 -2.70000
v -0.62804 3.64050 -2.43270
v -0.73196 3.64050 -2.43270
v -0.78392 3.64050 -2.70000
v -0.73196 3.64050 -2.96730
v -0.62804 3.64050 -2.96730
v -0.57608 3.37950 -2.70000
v -0.62804 3.37950 -2.43270
v -0.73196 3.37950 -2.43270
v -0.78392 3.37950 -2.70000
v -0.73196 3.37950 -2.96730
v -0.62804 3.37950 -2.96730
v -0.68000 3.24900 -2.70000
v -0.77600 3.67200 -2.82960
v -0.73443 3.60000 -2.82960
v -0.75522 3.60000 -2.71620
v -0.79678 3.60000 -2.71620
v -0.81757 3.60000 -2.82960
v -0.79678 3.60000 -2.94300
v -0.75522 3.60000 -2.94300
v -0.73443 3.45600 -2.82960
v -0.75522 3.45600 -2.71620
v -0.79678 3.45600 -2.71620
v -0.81757 3.45600 -2.82960
v -0.79678 3.45600 -2.94300
v -0.75522 3.45600 -2.94300
v -0.77600 3.38400 -2.82960
v -0.78400 3.63600 -2.89440
v -0.76668 3.61350 -2.89440
v -0.77534 3.61350 -2.86200
v -0.79266 3.61350 -2.86200
v -0.80132 3.61350 -2.89440
v -0.79266 3.61350 -2.92680
v -0.77534 3.61350 -2.92680
v -0.76668 3.56850 -2.89440
v -0.77534 3.56850 -2.86200
v -0.79266 3.56850 -2.86200
v -0.80132 3.56850 -2.89440
v -0.79266 3.56850 -2.92680
v -0.77534 3.56850 -2.92680
v -0.78400 3.54600 -2.89440
v -0.31200 3.32550 -3.73680
v -0.26350 3.29625 -3.73680
v -0.28775 3.29625 -3.70845
v -0.33625 3.29625 -3.70845
v -0.36050 3.29625 -3.73680
v -0.33625 3.29625 -3.76515
v -0.28775 3.29625 -3.76515
v -0.26350 3.23775 -3.73680
v -0.28775 3.23775 -3.70845
v -0.33625 3.23775 -3.70845
v -0.36050 3.23775 -3.73680
v -0.33625 3.23775 -3.76515
v -0.28775 3.23775 -3.76515
v -0.31200 3.20850 -3.73680
v 0.68000 2.25000 0.64800
v 1.02641 1.84500 0.64800
v 0.85321 1.84500 1.13400
v 0.50679 1.84500 1.13400
v 0.33359 1.84500 0.64800
v 0.50679 1.84500 0.16200
v 0.85321 1.84500 0.16200
v 1.02641 1.03500 0.64800
v 0.85321 1.03500 1.13400
v 0.50679 1.03500 1.13400
v 0.33359 1.03500 0.64800
v 0.50679 1.03500 0.16200
v 0.85321 1.03500 0.16200
v 0.68000 0.63000 0.64800
v 0.68000 1.17327 0.97756
v 0.42400 1.26000 0.64800
v 0.68000 1.34673 0.31844
v 0.93600 1.26000 0.64800
v 0.68000 0.33996 0.57117
v 0.48800 0.40500 0.32400
v 0.68000 0.47004 0.07683
v 0.87200 0.40500 0.32400
v 0.68000 0.45000 0.10800
v 0.95713 0.34650 0.10800
v 0.81856 0.34650 0.63450
v 0.54144 0.34650 0.63450
v 0.40287 0.34650 0.10800
v 0.54144 0.34650 -0.41850
v 0.81856 0.34650 -0.41850
v 0.95713 0.13950 0.10800
v 0.81856 0.13950 0.63450
v 0.54144 0.13950 0.63450
v 0.40287 0.13950 0.10800
v 0.54144 0.13950 -0.41850
v 0.81856 0.13950 -0.41850
v 0.68000 0.03600 0.10800
v 0.62400 0.20700 -0.21600
v 0.55200 0.12842 -0.19243
v 0.48000 0.20700 -0.21600
v 0.55200 0.28558 -0.23957
v 0.57200 0.14400 -0.51840
v 0.55200 0.12217 -0.51185
v 0.53200 0.14400 -0.51840
v 0.55200 0.16583 -0.52495
v 0.75200 0.20700 -0.21600
v 0.68000 0.12842 -0.19243
v 0.60800 0.20700 -0.21600
v 0.68000 0.28558 -0.23957
v 0.70000 0.14400 -0.51840
v 0.68000 0.12217 -0.51185
v 0.66000 0.14400 -0.51840
v 0.68000 0.16583 -0.52495
v 0.88000 0.20700 -0.21600
v 0.80800 0.12842 -0.19243
v 0.73600 0.20700 -0.21600
v 0.80800 0.28558 -0.23957
v 0.82800 0.14400 -0.51840
v 0.80800 0.12217 -0.51185
v 0.78800 0.14400 -0.51840
v 0.80800 0.16583 -0.52495
v 0.91367 2.43000 -0.63665
v 0.73591 2.31841 -0.64476
v 0.68633 2.43000 -0.87535
v 0.86409 2.54159 -0.86724
v 1.18000 1.89000 -1.28057
v 1.08389 1.77409 -1.22363
v 0.98000 1.89000 -1.20343
v 1.07611 2.00591 -1.26037
v 1.06923 1.84500 -1.64670
v 1.00269 1.76475 -1.60728
v 0.93077 1.84500 -1.59330
v 0.99731 1.92525 -1.63272
v 0.68000 3.77100 -2.70000
v 0.78392 3.64050 -2.70000
v 0.73196 3.64050 -2.43270
v 0.62804 3.64050 -2.43270
v 0.57608 3.64050 -2.70000
v 0.62804 3.64050 -2.96730
v 0.73196 3.64050 -2.96730
v 0.78392 3.37950 -2.70000
v 0.73196 3.37950 -2.43270
v 0.62804 3.37950 -2.43270
v 0.57608 3.37950 -2.70000
v 0.62804 3.37950 -2.96730
v 0.73196 3.37950 -2.96730
v 0.68000 3.24900 -2.70000
v 0.77600 3.67200 -2.82960
v 0.81757 3.60000 -2.82960
v 0.79678 3.60000 -2.71620
v 0.75522 3.60000 -2.71620
v 0.73443 3.60000 -2.82960
v 0.75522 3.60000 -2.94300
v 0.79678 3.60000 -2.94300
v 0.81757 3.45600 -2.82960
v 0.79678 3.45600 -2.71620
v 0.75522 3.45600 -2.71620
v 0.73443 3.45600 -2.82960
v 0.75522 3.45600 -2.94300
v 0.79678 3.45600 -2.94300
v 0.77600 3.38400 -2.82960
v 0.78400 3.63600 -2.89440
v 0.80132 3.61350 -2.89440
v 0.79266 3.61350 -2.86200
v 0.77534 3.61350 -2.86200
v 0.76668 3.61350 -2.89440
v 0.77534 3.61350 -2.92680
v 0.79266 3.61350 -2.92680
v 0.80132 3.56850 -2.89440
v 0.79266 3.56850 -2.86200
v 0.77534 3.56850 -2.86200
v 0.76668 3.56850 -2.89440
v 0.77534 3.56850 -2.92680
v 0.79266 3.56850 -2.92680
v 0.78400 3.54600 -2.89440
v 0.31200 3.32550 -3.73680
v 0.36050 3.29625 -3.73680
v 0.33625 3.29625 -3.70845
v 0.28775 3.29625 -3.70845
v 0.26350 3.29625 -3.73680
v 0.28775 3.29625 -3.76515
v 0.33625 3.29625 -3.76515
v 0.36050 3.23775 -3.73680
v 0.33625 3.23775 -3.70845
v 0.28775 3.23775 -3.70845
v 0.26350 3.23775 -3.73680
v 0.28775 3.23775 -3.76515
v 0.33625 3.23775 -3.76515
v 0.31200 3.20850 -3.73680
v 0.00000 3.23100 0.32400
v 0.10392 3.11850 0.32400
v 0.05196 3.11850 0.51030
v -0.05196 3.11850 0.51030
v -0.10392 3.11850 0.32400
v -0.05196 3.11850 0.13770
v 0.05196 3.11850 0.13770
v 0.10392 2.89350 0.32400
v 0.05196 2.89350 0.51030
v -0.05196 2.89350 0.51030
v -0.10392 2.89350 0.32400
v -0.05196 2.89350 0.13770
v 0.05196 2.89350 0.13770
v 0.00000 2.78100 0.32400
v 0.00000 3.11400 0.84240
v 0.10392 3.00150 0.84240
v 0.05196 3.00150 1.02870
v -0.05196 3.00150 1.02870
v -0.10392 3.00150 0.84240
v -0.05196 3.00150 0.65610
v 0.05196 3.00150 0.65610
v 0.10392 2.77650 0.84240
v 0.05196 2.77650 1.02870
v -0.05196 2.77650 1.02870
v -0.10392 2.77650 0.84240
v -0.05196 2.77650 0.65610
v 0.05196 2.77650 0.65610
v 0.00000 2.66400 0.84240
v 0.00000 2.99700 1.36080
v 0.10392 2.88450 1.36080
v 0.05196 2.88450 1.54710
v -0.05196 2.88450 1.54710
v -0.10392 2.88450 1.36080
v -0.05196 2.88450 1.17450
v 0.05196 2.88450 1.17450
v 0.10392 2.65950 1.36080
v 0.05196 2.65950 1.54710
v -0.05196 2.65950 1.54710
v -0.10392 2.65950 1.36080
v -0.05196 2.65950 1.17450
v 0.05196 2.65950 1.17450
v 0.00000 2.54700 1.36080
v 0.00000 2.88000 1.87920
v 0.10392 2.76750 1.87920
v 0.05196 2.76750 2.06550
v -0.05196 2.76750 2.06550
v -0.10392 2.76750 1.87920
v -0.05196 2.76750 1.69290
v 0.05196 2.76750 1.69290
v 0.10392 2.54250 1.87920
v 0.05196 2.54250 2.06550
v -0.05196 2.54250 2.06550
v -0.10392 2.54250 1.87920
v -0.05196 2.54250 1.69290
v 0.05196 2.54250 1.69290
v 0.00000 2.43000 1.87920
v 0.00000 2.76300 2.39760
v 0.10392 2.65050 2.39760
v 0.05196 2.65050 2.58390
v -0.05196 2.65050 2.58390
v -0.10392 2.65050 2.39760
v -0.05196 2.65050 2.21130
v 0.05196 2.65050 2.21130
v 0.10392 2.42550 2.39760
v 0.05196 2.42550 2.58390
v -0.05196 2.42550 2.58390
v -0.10392 2.42550 2.39760
v -0.05196 2.42550 2.21130
v 0.05196 2.42550 2.21130
v 0.00000 2.31300 2.39760
v -1.06174 1.98000 -1.21891
v -1.01739 1.84694 -1.06591
v -0.93826 1.98000 -0.94109
v -0.98261 2.11306 -1.09409
v -1.40412 2.07000 -0.76526
v -1.40116 2.06113 -0.75506
v -1.39588 2.07000 -0.74674
v -1.39884 2.07887 -0.75694
v -1.08683 1.98000 -1.19181
v -1.00916 1.84583 -1.06703
v -0.91317 1.98000 -0.96819
v -0.99084 2.11417 -1.09297
v -1.50179 2.07000 -0.38545
v -1.49661 2.06106 -0.37714
v -1.49021 2.07000 -0.37055
v -1.49539 2.07894 -0.37886
v -1.09646 1.98000 -1.17636
v -1.00572 1.84543 -1.06957
v -0.90354 1.98000 -0.98364
v -0.99428 2.11457 -1.09043
v -1.59843 2.07000 -0.00642
v -1.59238 2.06103 0.00070
v -1.58557 2.07000 0.00642
v -1.59162 2.07897 -0.00070
v -0.56000 0.36000 -0.43200
v -0.68000 0.25840 -0.53868
v -0.80000 0.36000 -0.43200
v -0.68000 0.46160 -0.32532
v -0.60000 0.67500 -0.86400
v -0.68000 0.59144 -0.82389
v -0.76000 0.67500 -0.86400
v -0.68000 0.75856 -0.90411
v -0.67200 0.58500 -1.13400
v -0.68000 0.57664 -1.12999
v -0.68800 0.58500 -1.13400
v -0.68000 0.59336 -1.13801
v 0.93826 1.98000 -0.94109
v 1.01739 1.84694 -1.06591
v 1.06174 1.98000 -1.21891
v 0.98261 2.11306 -1.09409
v 1.39588 2.07000 -0.74674
v 1.40116 2.06113 -0.75506
v 1.40412 2.07000 -0.76526
v 1.39884 2.07887 -0.75694
v 0.91317 1.98000 -0.96819
v 1.00916 1.84583 -1.06703
v 1.08683 1.98000 -1.19181
v 0.99084 2.11417 -1.09297
v 1.49021 2.07000 -0.37055
v 1.49661 2.06106 -0.37714
v 1.50179 2.07000 -0.38545
v 1.49539 2.07894 -0.37886
v 0.90354 1.98000 -0.98364
v 1.00572 1.84543 -1.06957
v 1.09646 1.98000 -1.17636
v 0.99428 2.11457 -1.09043
v 1.58557 2.07000 0.00642
v 1.59238 2.06103 0.00070
v 1.59843 2.07000 -0.00642
v 1.59162 2.07897 -0.00070
v 0.80000 0.36000 -0.43200
v 0.68000 0.25840 -0.53868
v 0.56000 0.36000 -0.43200
v 0.68000 0.46160 -0.32532
v 0.76000 0.67500 -0.86400
v 0.68000 0.59144 -0.82389
v 0.60000 0.67500 -0.86400
v 0.68000 0.75856 -0.90411
v 0.68800 0.58500 -1.13400
v 0.68000 0.57664 -1.12999
v 0.67200 0.58500 -1.13400
v 0.68000 0.59336 -1.13801
usemtl mBA6899
f 1 3 2
f 1 4 3
f 1 5 4
f 1 6 5
f 1 7 6
f 1 2 7
f 2 3 8
f 3 9 8
f 3 4 9
f 4 10 9
f 4 5 10
f 5 11 10
f 5 6 11
f 6 12 11
f 6 7 12
f 7 13 12
f 7 2 13
f 2 8 13
f 8 9 14
f 9 10 14
f 10 11 14
f 11 12 14
f 12 13 14
f 13 8 14
usemtl mEFC0D4
f 15 17 16
f 15 18 17
f 15 19 18
f 15 20 19
f 15 21 20
f 15 16 21
f 16 17 22
f 17 23 22
f 17 18 23
f 18 24 23
f 18 19 24
f 19 25 24
f 19 20 25
f 20 26 25
f 20 21 26
f 21 27 26
f 21 16 27
f 16 22 27
f 22 23 28
f 23 24 28
f 24 25 28
f 25 26 28
f 26 27 28
f 27 22 28
usemtl mBA6899
f 29 30 33
f 30 34 33
f 30 31 34
f 31 35 34
f 31 32 35
f 32 36 35
f 32 29 36
f 29 33 36
f 33 34 37
f 34 38 37
f 34 35 38
f 35 39 38
f 35 36 39
f 36 40 39
f 36 33 40
f 33 37 40
f 29 31 30
f 37 38 39
f 29 32 31
f 37 39 40
f 41 43 42
f 41 44 43
f 41 45 44
f 41 46 45
f 41 47 46
f 41 42 47
f 42 43 48
f 43 49 48
f 43 44 49
f 44 50 49
f 44 45 50
f 45 51 50
f 45 46 51
f 46 52 51
f 46 47 52
f 47 53 52
f 47 42 53
f 42 48 53
f 48 49 54
f 49 50 54
f 50 51 54
f 51 52 54
f 52 53 54
f 53 48 54
usemtl mEFC0D4
f 55 57 56
f 55 58 57
f 55 59 58
f 55 60 59
f 55 61 60
f 55 56 61
f 56 57 62
f 57 63 62
f 57 58 63
f 58 64 63
f 58 59 64
f 59 65 64
f 59 60 65
f 60 66 65
f 60 61 66
f 61 67 66
f 61 56 67
f 56 62 67
f 62 63 68
f 63 64 68
f 64 65 68
f 65 66 68
f 66 67 68
f 67 62 68
usemtl m6A3661
f 69 71 70
f 69 72 71
f 69 73 72
f 69 74 73
f 69 75 74
f 69 70 75
f 70 71 76
f 71 77 76
f 71 72 77
f 72 78 77
f 72 73 78
f 73 79 78
f 73 74 79
f 74 80 79
f 74 75 80
f 75 81 80
f 75 70 81
f 70 76 81
f 76 77 82
f 77 78 82
f 78 79 82
f 79 80 82
f 80 81 82
f 81 76 82
usemtl mBA6899
f 83 84 87
f 84 88 87
f 84 85 88
f 85 89 88
f 85 86 89
f 86 90 89
f 86 83 90
f 83 87 90
f 87 88 91
f 88 92 91
f 88 89 92
f 89 93 92
f 89 90 93
f 90 94 93
f 90 87 94
f 87 91 94
f 91 92 95
f 92 96 95
f 92 93 96
f 93 97 96
f 93 94 97
f 94 98 97
f 94 91 98
f 91 95 98
f 83 85 84
f 95 96 97
f 83 86 85
f 95 97 98
usemtl m6A3661
f 99 101 100
f 99 102 101
f 99 103 102
f 99 104 103
f 99 105 104
f 99 100 105
f 100 101 106
f 101 107 106
f 101 102 107
f 102 108 107
f 102 103 108
f 103 109 108
f 103 104 109
f 104 110 109
f 104 105 110
f 105 111 110
f 105 100 111
f 100 106 111
f 106 107 112
f 107 108 112
f 108 109 112
f 109 110 112
f 110 111 112
f 111 106 112
usemtl mBA6899
f 113 114 117
f 114 118 117
f 114 115 118
f 115 119 118
f 115 116 119
f 116 120 119
f 116 113 120
f 113 117 120
f 113 115 114
f 117 118 119
f 113 116 115
f 117 119 120
f 121 123 122
f 121 124 123
f 121 125 124
f 121 126 125
f 121 127 126
f 121 122 127
f 122 123 128
f 123 129 128
f 123 124 129
f 124 130 129
f 124 125 130
f 125 131 130
f 125 126 131
f 126 132 131
f 126 127 132
f 127 133 132
f 127 122 133
f 122 128 133
f 128 129 134
f 129 130 134
f 130 131 134
f 131 132 134
f 132 133 134
f 133 128 134
usemtl mF0E3BF
f 135 136 139
f 136 140 139
f 136 137 140
f 137 141 140
f 137 138 141
f 138 142 141
f 138 135 142
f 135 139 142
f 135 137 136
f 139 140 141
f 135 138 137
f 139 141 142
f 143 144 147
f 144 148 147
f 144 145 148
f 145 149 148
f 145 146 149
f 146 150 149
f 146 143 150
f 143 147 150
f 143 145 144
f 147 148 149
f 143 146 145
f 147 149 150
f 151 152 155
f 152 156 155
f 152 153 156
f 153 157 156
f 153 154 157
f 154 158 157
f 154 151 158
f 151 155 158
f 151 153 152
f 155 156 157
f 151 154 153
f 155 157 158
usemtl mBA6899
f 159 160 163
f 160 164 163
f 160 161 164
f 161 165 164
f 161 162 165
f 162 166 165
f 162 159 166
f 159 163 166
f 163 164 167
f 164 168 167
f 164 165 168
f 165 169 168
f 165 166 169
f 166 170 169
f 166 163 170
f 163 167 170
f 159 161 160
f 167 168 169
f 159 162 161
f 167 169 170
usemtl mFCF4D9
f 171 173 172
f 171 174 173
f 171 175 174
f 171 176 175
f 171 177 176
f 171 172 177
f 172 173 178
f 173 179 178
f 173 174 179
f 174 180 179
f 174 175 180
f 175 181 180
f 175 176 181
f 176 182 181
f 176 177 182
f 177 183 182
f 177 172 183
f 172 178 183
f 178 179 184
f 179 180 184
f 180 181 184
f 181 182 184
f 182 183 184
f 183 178 184
usemtl m142E35
f 185 187 186
f 185 188 187
f 185 189 188
f 185 190 189
f 185 191 190
f 185 186 191
f 186 187 192
f 187 193 192
f 187 188 193
f 188 194 193
f 188 189 194
f 189 195 194
f 189 190 195
f 190 196 195
f 190 191 196
f 191 197 196
f 191 186 197
f 186 192 197
f 192 193 198
f 193 194 198
f 194 195 198
f 195 196 198
f 196 197 198
f 197 192 198
usemtl mFFFFFF
f 199 201 200
f 199 202 201
f 199 203 202
f 199 204 203
f 199 205 204
f 199 200 205
f 200 201 206
f 201 207 206
f 201 202 207
f 202 208 207
f 202 203 208
f 203 209 208
f 203 204 209
f 204 210 209
f 204 205 210
f 205 211 210
f 205 200 211
f 200 206 211
f 206 207 212
f 207 208 212
f 208 209 212
f 209 210 212
f 210 211 212
f 211 206 212
usemtl m6A3661
f 213 215 214
f 213 216 215
f 213 217 216
f 213 218 217
f 213 219 218
f 213 214 219
f 214 215 220
f 215 221 220
f 215 216 221
f 216 222 221
f 216 217 222
f 217 223 222
f 217 218 223
f 218 224 223
f 218 219 224
f 219 225 224
f 219 214 225
f 214 220 225
f 220 221 226
f 221 222 226
f 222 223 226
f 223 224 226
f 224 225 226
f 225 220 226
f 227 229 228
f 227 230 229
f 227 231 230
f 227 232 231
f 227 233 232
f 227 228 233
f 228 229 234
f 229 235 234
f 229 230 235
f 230 236 235
f 230 231 236
f 231 237 236
f 231 232 237
f 232 238 237
f 232 233 238
f 233 239 238
f 233 228 239
f 228 234 239
f 234 235 240
f 235 236 240
f 236 237 240
f 237 238 240
f 238 239 240
f 239 234 240
usemtl mBA6899
f 241 242 245
f 242 246 245
f 242 243 246
f 243 247 246
f 243 244 247
f 244 248 247
f 244 241 248
f 241 245 248
f 241 243 242
f 245 246 247
f 241 244 243
f 245 247 248
f 249 251 250
f 249 252 251
f 249 253 252
f 249 254 253
f 249 255 254
f 249 250 255
f 250 251 256
f 251 257 256
f 251 252 257
f 252 258 257
f 252 253 258
f 253 259 258
f 253 254 259
f 254 260 259
f 254 255 260
f 255 261 260
f 255 250 261
f 250 256 261
f 256 257 262
f 257 258 262
f 258 259 262
f 259 260 262
f 260 261 262
f 261 256 262
usemtl mF0E3BF
f 263 264 267
f 264 268 267
f 264 265 268
f 265 269 268
f 265 266 269
f 266 270 269
f 266 263 270
f 263 267 270
f 263 265 264
f 267 268 269
f 263 266 265
f 267 269 270
f 271 272 275
f 272 276 275
f 272 273 276
f 273 277 276
f 273 274 277
f 274 278 277
f 274 271 278
f 271 275 278
f 271 273 272
f 275 276 277
f 271 274 273
f 275 277 278
f 279 280 283
f 280 284 283
f 280 281 284
f 281 285 284
f 281 282 285
f 282 286 285
f 282 279 286
f 279 283 286
f 279 281 280
f 283 284 285
f 279 282 281
f 283 285 286
usemtl mBA6899
f 287 288 291
f 288 292 291
f 288 289 292
f 289 293 292
f 289 290 293
f 290 294 293
f 290 287 294
f 287 291 294
f 291 292 295
f 292 296 295
f 292 293 296
f 293 297 296
f 293 294 297
f 294 298 297
f 294 291 298
f 291 295 298
f 287 289 288
f 295 296 297
f 287 290 289
f 295 297 298
usemtl mFCF4D9
f 299 301 300
f 299 302 301
f 299 303 302
f 299 304 303
f 299 305 304
f 299 300 305
f 300 301 306
f 301 307 306
f 301 302 307
f 302 308 307
f 302 303 308
f 303 309 308
f 303 304 309
f 304 310 309
f 304 305 310
f 305 311 310
f 305 300 311
f 300 306 311
f 306 307 312
f 307 308 312
f 308 309 312
f 309 310 312
f 310 311 312
f 311 306 312
usemtl m142E35
f 313 315 314
f 313 316 315
f 313 317 316
f 313 318 317
f 313 319 318
f 313 314 319
f 314 315 320
f 315 321 320
f 315 316 321
f 316 322 321
f 316 317 322
f 317 323 322
f 317 318 323
f 318 324 323
f 318 319 324
f 319 325 324
f 319 314 325
f 314 320 325
f 320 321 326
f 321 322 326
f 322 323 326
f 323 324 326
f 324 325 326
f 325 320 326
usemtl mFFFFFF
f 327 329 328
f 327 330 329
f 327 331 330
f 327 332 331
f 327 333 332
f 327 328 333
f 328 329 334
f 329 335 334
f 329 330 335
f 330 336 335
f 330 331 336
f 331 337 336
f 331 332 337
f 332 338 337
f 332 333 338
f 333 339 338
f 333 328 339
f 328 334 339
f 334 335 340
f 335 336 340
f 336 337 340
f 337 338 340
f 338 339 340
f 339 334 340
usemtl m6A3661
f 341 343 342
f 341 344 343
f 341 345 344
f 341 346 345
f 341 347 346
f 341 342 347
f 342 343 348
f 343 349 348
f 343 344 349
f 344 350 349
f 344 345 350
f 345 351 350
f 345 346 351
f 346 352 351
f 346 347 352
f 347 353 352
f 347 342 353
f 342 348 353
f 348 349 354
f 349 350 354
f 350 351 354
f 351 352 354
f 352 353 354
f 353 348 354
f 355 357 356
f 355 358 357
f 355 359 358
f 355 360 359
f 355 361 360
f 355 356 361
f 356 357 362
f 357 363 362
f 357 358 363
f 358 364 363
f 358 359 364
f 359 365 364
f 359 360 365
f 360 366 365
f 360 361 366
f 361 367 366
f 361 356 367
f 356 362 367
f 362 363 368
f 363 364 368
f 364 365 368
f 365 366 368
f 366 367 368
f 367 362 368
f 369 371 370
f 369 372 371
f 369 373 372
f 369 374 373
f 369 375 374
f 369 370 375
f 370 371 376
f 371 377 376
f 371 372 377
f 372 378 377
f 372 373 378
f 373 379 378
f 373 374 379
f 374 380 379
f 374 375 380
f 375 381 380
f 375 370 381
f 370 376 381
f 376 377 382
f 377 378 382
f 378 379 382
f 379 380 382
f 380 381 382
f 381 376 382
f 383 385 384
f 383 386 385
f 383 387 386
f 383 388 387
f 383 389 388
f 383 384 389
f 384 385 390
f 385 391 390
f 385 386 391
f 386 392 391
f 386 387 392
f 387 393 392
f 387 388 393
f 388 394 393
f 388 389 394
f 389 395 394
f 389 384 395
f 384 390 395
f 390 391 396
f 391 392 396
f 392 393 396
f 393 394 396
f 394 395 396
f 395 390 396
f 397 399 398
f 397 400 399
f 397 401 400
f 397 402 401
f 397 403 402
f 397 398 403
f 398 399 404
f 399 405 404
f 399 400 405
f 400 406 405
f 400 401 406
f 401 407 406
f 401 402 407
f 402 408 407
f 402 403 408
f 403 409 408
f 403 398 409
f 398 404 409
f 404 405 410
f 405 406 410
f 406 407 410
f 407 408 410
f 408 409 410
f 409 404 410
f 411 413 412
f 411 414 413
f 411 415 414
f 411 416 415
f 411 417 416
f 411 412 417
f 412 413 418
f 413 419 418
f 413 414 419
f 414 420 419
f 414 415 420
f 415 421 420
f 415 416 421
f 416 422 421
f 416 417 422
f 417 423 422
f 417 412 423
f 412 418 423
f 418 419 424
f 419 420 424
f 420 421 424
f 421 422 424
f 422 423 424
f 423 418 424
f 425 426 429
f 426 430 429
f 426 427 430
f 427 431 430
f 427 428 431
f 428 432 431
f 428 425 432
f 425 429 432
f 425 427 426
f 429 430 431
f 425 428 427
f 429 431 432
f 433 434 437
f 434 438 437
f 434 435 438
f 435 439 438
f 435 436 439
f 436 440 439
f 436 433 440
f 433 437 440
f 433 435 434
f 437 438 439
f 433 436 435
f 437 439 440
f 441 442 445
f 442 446 445
f 442 443 446
f 443 447 446
f 443 444 447
f 444 448 447
f 444 441 448
f 441 445 448
f 441 443 442
f 445 446 447
f 441 444 443
f 445 447 448
usemtl mF0E3BF
f 449 450 453
f 450 454 453
f 450 451 454
f 451 455 454
f 451 452 455
f 452 456 455
f 452 449 456
f 449 453 456
f 453 454 457
f 454 458 457
f 454 455 458
f 455 459 458
f 455 456 459
f 456 460 459
f 456 453 460
f 453 457 460
f 449 451 450
f 457 458 459
f 449 452 451
f 457 459 460
usemtl m6A3661
f 461 462 465
f 462 466 465
f 462 463 466
f 463 467 466
f 463 464 467
f 464 468 467
f 464 461 468
f 461 465 468
f 461 463 462
f 465 466 467
f 461 464 463
f 465 467 468
f 469 470 473
f 470 474 473
f 470 471 474
f 471 475 474
f 471 472 475
f 472 476 475
f 472 469 476
f 469 473 476
f 469 471 470
f 473 474 475
f 469 472 471
f 473 475 476
f 477 478 481
f 478 482 481
f 478 479 482
f 479 483 482
f 479 480 483
f 480 484 483
f 480 477 484
f 477 481 484
f 477 479 478
f 481 482 483
f 477 480 479
f 481 483 484
usemtl mF0E3BF
f 485 486 489
f 486 490 489
f 486 487 490
f 487 491 490
f 487 488 491
f 488 492 491
f 488 485 492
f 485 489 492
f 489 490 493
f 490 494 493
f 490 491 494
f 491 495 494
f 491 492 495
f 492 496 495
f 492 489 496
f 489 493 496
f 485 487 486
f 493 494 495
f 485 488 487
f 493 495 496
