mtllib rock.mtl
o rock
v 0.00000 3.40000 0.00000
v 1.97990 2.87279 0.00000
v 1.23445 2.87279 1.27153
v -0.44057 2.87279 1.58557
v -1.78383 2.87279 0.70564
v -1.78383 2.87279 -0.70564
v -0.44057 2.87279 -1.58557
v 1.23445 2.87279 -1.27153
v 2.80000 1.60000 0.00000
v 1.74577 1.60000 1.79821
v -0.62306 1.60000 2.24233
v -2.52271 1.60000 0.99793
v -2.52271 1.60000 -0.99793
v -0.62306 1.60000 -2.24233
v 1.74577 1.60000 -1.79821
v 1.97990 0.32721 0.00000
v 1.23445 0.32721 1.27153
v -0.44057 0.32721 1.58557
v -1.78383 0.32721 0.70564
v -1.78383 0.32721 -0.70564
v -0.44057 0.32721 -1.58557
v 1.23445 0.32721 -1.27153
v 0.00000 -0.20000 0.00000
v 1.50000 1.40000 0.70000
v 2.53923 1.00000 0.70000
v 2.01962 1.00000 1.67500
v 0.98038 1.00000 1.67500
v 0.46077 1.00000 0.70000
v 0.98038 1.00000 -0.27500
v 2.01962 1.00000 -0.27500
v 2.53923 0.20000 0.70000
v 2.01962 0.20000 1.67500
v 0.98038 0.20000 1.67500
v 0.46077 0.20000 0.70000
v 0.98038 0.20000 -0.27500
v 2.01962 0.20000 -0.27500
v 1.50000 -0.20000 0.70000
usemtl m71888C
f 1 3 2
f 1 4 3
f 1 5 4
f 1 6 5
f 1 7 6
f 1 8 7
f 1 2 8
f 2 3 9
f 3 10 9
f 3 4 10
f 4 11 10
f 4 5 11
f 5 12 11
f 5 6 12
f 6 13 12
f 6 7 13
f 7 14 13
f 7 8 14
f 8 15 14
f 8 2 15
f 2 9 15
f 9 10 16
f 10 17 16
f 10 11 17
f 11 18 17
f 11 12 18
f 12 19 18
f 12 13 19
f 13 20 19
f 13 14 20
f 14 21 20
f 14 15 21
f 15 22 21
f 15 9 22
f 9 16 22
f 16 17 23
f 17 18 23
f 18 19 23
f 19 20 23
f 20 21 23
f 21 22 23
f 22 16 23
usemtl m526D76
f 24 26 25
f 24 27 26
f 24 28 27
f 24 29 28
f 24 30 29
f 24 25 30
f 25 26 31
f 26 32 31
f 26 27 32
f 27 33 32
f 27 28 33
f 28 34 33
f 28 29 34
f 29 35 34
f 29 30 35
f 30 36 35
f 30 25 36
f 25 31 36
f 31 32 37
f 32 33 37
f 33 34 37
f 34 35 37
f 35 36 37
f 36 31 37
