mtllib tree.mtl
o tree
v 0.00000 0.00000 -0.80000
v -0.51235 0.04392 -0.61284
v -0.78497 0.06728 -0.13892
v -0.69029 0.05917 0.40000
v -0.27262 0.02337 0.75175
v 0.27262 -0.02337 0.75175
v 0.69029 -0.05917 0.40000
v 0.78497 -0.06728 -0.13892
v 0.51235 -0.04392 -0.61284
v 0.30000 3.55551 -0.64763
v -0.11364 3.48386 -0.50114
v -0.33374 3.41977 -0.12016
v -0.25730 3.39321 0.31704
v 0.07991 3.41662 0.60589
v 0.52009 3.47905 0.61124
v 0.85730 3.55128 0.33059
v 0.93374 3.59951 -0.10476
v 0.71364 3.60118 -0.49108
v -0.20000 6.95821 -0.11792
v -0.45869 7.04482 -0.02783
v -0.59634 7.11047 0.21566
v -0.54853 7.12442 0.49861
v -0.33765 7.08016 0.68862
v -0.06235 6.99839 0.69680
v 0.14853 6.91737 0.51931
v 0.19634 6.87502 0.23920
v 0.05869 6.89115 -0.01246
v 0.70000 9.98507 -0.14926
v 0.60761 10.01601 -0.11708
v 0.55845 10.03945 -0.03012
v 0.57552 10.04444 0.07093
v 0.65084 10.02863 0.13879
v 0.74916 9.99942 0.14171
v 0.82448 9.97049 0.07833
v 0.84155 9.95536 -0.02171
v 0.79239 9.96112 -0.11159
v -0.10186 6.00000 -0.40746
v -0.27265 5.78684 -0.23796
v -0.28372 5.69855 0.07093
v -0.12859 5.78684 0.33827
v 0.10186 6.00000 0.40746
v 0.27265 6.21316 0.23796
v 0.28372 6.30145 -0.07093
v 0.12859 6.21316 -0.33827
v -1.92816 8.00000 0.26054
v -2.09930 7.91820 0.28565
v -2.21227 7.88431 0.43632
v -2.20090 7.91820 0.62429
v -2.07184 8.00000 0.73946
v -1.90070 8.08180 0.71435
v -1.78773 8.11569 0.56368
v -1.79910 8.08180 0.37571
v -2.97414 10.00000 0.11380
v -3.03575 9.97055 0.12283
v -3.07642 9.95835 0.17707
v -3.07232 9.97055 0.24474
v -3.02586 10.00000 0.28620
v -2.96425 10.02945 0.27717
v -2.92358 10.04165 0.22293
v -2.92768 10.02945 0.15526
v -0.10186 6.00000 0.40746
v 0.12859 5.78684 0.33827
v 0.28372 5.69855 0.07093
v 0.27265 5.78684 -0.23796
v 0.10186 6.00000 -0.40746
v -0.12859 6.21316 -0.33827
v -0.28372 6.30145 -0.07093
v -0.27265 6.21316 0.23796
v 2.07184 8.00000 0.73946
v 2.20090 7.91820 0.62429
v 2.21227 7.88431 0.43632
v 2.09930 7.91820 0.28565
v 1.92816 8.00000 0.26054
v 1.79910 8.08180 0.37571
v 1.78773 8.11569 0.56368
v 1.90070 8.08180 0.71435
v 3.02586 10.00000 0.28620
v 3.07232 9.97055 0.24474
v 3.07642 9.95835 0.17707
v 3.03575 9.97055 0.12283
v 2.97414 10.00000 0.11380
v 2.92768 10.02945 0.15526
v 2.92358 10.04165 0.22293
v 2.96425 10.02945 0.27717
v 0.00000 11.95000 0.00000
v 2.12132 11.37886 0.00000
v 1.62503 11.37886 1.36356
v 0.36836 11.37886 2.08909
v -1.06066 11.37886 1.83712
v -1.99339 11.37886 0.72553
v -1.99339 11.37886 -0.72553
v -1.06066 11.37886 -1.83712
v 0.36836 11.37886 -2.08909
v 1.62503 11.37886 -1.36356
v 3.00000 10.00000 0.00000
v 2.29813 10.00000 1.92836
v 0.52094 10.00000 2.95442
v -1.50000 10.00000 2.59808
v -2.81908 10.00000 1.02606
v -2.81908 10.00000 -1.02606
v -1.50000 10.00000 -2.59808
v 0.52094 10.00000 -2.95442
v 2.29813 10.00000 -1.92836
v 2.12132 8.62114 0.00000
v 1.62503 8.62114 1.36356
v 0.36836 8.62114 2.08909
v -1.06066 8.62114 1.83712
v -1.99339 8.62114 0.72553
v -1.99339 8.62114 -0.72553
v -1.06066 8.62114 -1.83712
v 0.36836 8.62114 -2.08909
v 1.62503 8.62114 -1.36356
v 0.00000 8.05000 0.00000
v 2.40000 11.56000 0.50000
v 4.09706 11.10309 0.50000
v 3.70002 11.10309 1.59085
v 2.69469 11.10309 2.17127
v 1.55147 11.10309 1.96969
v 0.80529 11.10309 1.08043
v 0.80529 11.10309 -0.08043
v 1.55147 11.10309 -0.96969
v 2.69469 11.10309 -1.17127
v 3.70002 11.10309 -0.59085
v 4.80000 10.00000 0.50000
v 4.23851 10.00000 2.04269
v 2.81676 10.00000 2.86354
v 1.20000 10.00000 2.57846
v 0.14474 10.00000 1.32085
v 0.14474 10.00000 -0.32085
v 1.20000 10.00000 -1.57846
v 2.81676 10.00000 -1.86354
v 4.23851 10.00000 -1.04269
v 4.09706 8.89691 0.50000
v 3.70002 8.89691 1.59085
v 2.69469 8.89691 2.17127
v 1.55147 8.89691 1.96969
v 0.80529 8.89691 1.08043
v 0.80529 8.89691 -0.08043
v 1.55147 8.89691 -0.96969
v 2.69469 8.89691 -1.17127
v 3.70002 8.89691 -0.59085
v 2.40000 8.44000 0.50000
v -2.20000 11.75500 0.40000
v -0.29081 11.24097 0.40000
v -0.73748 11.24097 1.62720
v -1.86847 11.24097 2.28018
v -3.15459 11.24097 2.05341
v -3.99405 11.24097 1.05298
v -3.99405 11.24097 -0.25298
v -3.15459 11.24097 -1.25341
v -1.86847 11.24097 -1.48018
v -0.73748 11.24097 -0.82720
v 0.50000 10.00000 0.40000
v -0.13168 10.00000 2.13553
v -1.73115 10.00000 3.05898
v -3.55000 10.00000 2.73827
v -4.73717 10.00000 1.32345
v -4.73717 10.00000 -0.52345
v -3.55000 10.00000 -1.93827
v -1.73115 10.00000 -2.25898
v -0.13168 10.00000 -1.33553
v -0.29081 8.75903 0.40000
v -0.73748 8.75903 1.62720
v -1.86847 8.75903 2.28018
v -3.15459 8.75903 2.05341
v -3.99405 8.75903 1.05298
v -3.99405 8.75903 -0.25298
v -3.15459 8.75903 -1.25341
v -1.86847 8.75903 -1.48018
v -0.73748 8.75903 -0.82720
v -2.20000 8.24500 0.40000
v 0.00000 13.56000 0.30000
v 1.69706 13.10309 0.30000
v 1.30002 13.10309 1.39085
v 0.29469 13.10309 1.97127
v -0.84853 13.10309 1.76969
v -1.59471 13.10309 0.88043
v -1.59471 13.10309 -0.28043
v -0.84853 13.10309 -1.16969
v 0.29469 13.10309 -1.37127
v 1.30002 13.10309 -0.79085
v 2.40000 12.00000 0.30000
v 1.83851 12.00000 1.84269
v 0.41676 12.00000 2.66354
v -1.20000 12.00000 2.37846
v -2.25526 12.00000 1.12085
v -2.25526 12.00000 -0.52085
v -1.20000 12.00000 -1.77846
v 0.41676 12.00000 -2.06354
v 1.83851 12.00000 -1.24269
v 1.69706 10.89691 0.30000
v 1.30002 10.89691 1.39085
v 0.29469 10.89691 1.97127
v -0.84853 10.89691 1.76969
v -1.59471 10.89691 0.88043
v -1.59471 10.89691 -0.28043
v -0.84853 10.89691 -1.16969
v 0.29469 10.89691 -1.37127
v 1.30002 10.89691 -0.79085
v 0.00000 10.44000 0.30000
usemtl m785445
f 1 2 10
f 2 11 10
f 2 3 11
f 3 12 11
f 3 4 12
f 4 13 12
f 4 5 13
f 5 14 13
f 5 6 14
f 6 15 14
f 6 7 15
f 7 16 15
f 7 8 16
f 8 17 16
f 8 9 17
f 9 18 17
f 9 1 18
f 1 10 18
f 10 11 19
f 11 20 19
f 11 12 20
f 12 21 20
f 12 13 21
f 13 22 21
f 13 14 22
f 14 23 22
f 14 15 23
f 15 24 23
f 15 16 24
f 16 25 24
f 16 17 25
f 17 26 25
f 17 18 26
f 18 27 26
f 18 10 27
f 10 19 27
f 19 20 28
f 20 29 28
f 20 21 29
f 21 30 29
f 21 22 30
f 22 31 30
f 22 23 31
f 23 32 31
f 23 24 32
f 24 33 32
f 24 25 33
f 25 34 33
f 25 26 34
f 26 35 34
f 26 27 35
f 27 36 35
f 27 19 36
f 19 28 36
f 1 3 2
f 28 29 30
f 1 4 3
f 28 30 31
f 1 5 4
f 28 31 32
f 1 6 5
f 28 32 33
f 1 7 6
f 28 33 34
f 1 8 7
f 28 34 35
f 1 9 8
f 28 35 36
f 37 38 45
f 38 46 45
f 38 39 46
f 39 47 46
f 39 40 47
f 40 48 47
f 40 41 48
f 41 49 48
f 41 42 49
f 42 50 49
f 42 43 50
f 43 51 50
f 43 44 51
f 44 52 51
f 44 37 52
f 37 45 52
f 45 46 53
f 46 54 53
f 46 47 54
f 47 55 54
f 47 48 55
f 48 56 55
f 48 49 56
f 49 57 56
f 49 50 57
f 50 58 57
f 50 51 58
f 51 59 58
f 51 52 59
f 52 60 59
f 52 45 60
f 45 53 60
f 37 39 38
f 53 54 55
f 37 40 39
f 53 55 56
f 37 41 40
f 53 56 57
f 37 42 41
f 53 57 58
f 37 43 42
f 53 58 59
f 37 44 43
f 53 59 60
f 61 62 69
f 62 70 69
f 62 63 70
f 63 71 70
f 63 64 71
f 64 72 71
f 64 65 72
f 65 73 72
f 65 66 73
f 66 74 73
f 66 67 74
f 67 75 74
f 67 68 75
f 68 76 75
f 68 61 76
f 61 69 76
f 69 70 77
f 70 78 77
f 70 71 78
f 71 79 78
f 71 72 79
f 72 80 79
f 72 73 80
f 73 81 80
f 73 74 81
f 74 82 81
f 74 75 82
f 75 83 82
f 75 76 83
f 76 84 83
f 76 69 84
f 69 77 84
f 61 63 62
f 77 78 79
f 61 64 63
f 77 79 80
f 61 65 64
f 77 80 81
f 61 66 65
f 77 81 82
f 61 67 66
f 77 82 83
f 61 68 67
f 77 83 84
usemtl m3C8F75
f 85 87 86
f 85 88 87
f 85 89 88
f 85 90 89
f 85 91 90
f 85 92 91
f 85 93 92
f 85 94 93
f 85 86 94
f 86 87 95
f 87 96 95
f 87 88 96
f 88 97 96
f 88 89 97
f 89 98 97
f 89 90 98
f 90 99 98
f 90 91 99
f 91 100 99
f 91 92 100
f 92 101 100
f 92 93 101
f 93 102 101
f 93 94 102
f 94 103 102
f 94 86 103
f 86 95 103
f 95 96 104
f 96 105 104
f 96 97 105
f 97 106 105
f 97 98 106
f 98 107 106
f 98 99 107
f 99 108 107
f 99 100 108
f 100 109 108
f 100 101 109
f 101 110 109
f 101 102 110
f 102 111 110
f 102 103 111
f 103 112 111
f 103 95 112
f 95 104 112
f 104 105 113
f 105 106 113
f 106 107 113
f 107 108 113
f 108 109 113
f 109 110 113
f 110 111 113
f 111 112 113
f 112 104 113
f 114 116 115
f 114 117 116
f 114 118 117
f 114 119 118
f 114 120 119
f 114 121 120
f 114 122 121
f 114 123 122
f 114 115 123
f 115 116 124
f 116 125 124
f 116 117 125
f 117 126 125
f 117 118 126
f 118 127 126
f 118 119 127
f 119 128 127
f 119 120 128
f 120 129 128
f 120 121 129
f 121 130 129
f 121 122 130
f 122 131 130
f 122 123 131
f 123 132 131
f 123 115 132
f 115 124 132
f 124 125 133
f 125 134 133
f 125 126 134
f 126 135 134
f 126 127 135
f 127 136 135
f 127 128 136
f 128 137 136
f 128 129 137
f 129 138 137
f 129 130 138
f 130 139 138
f 130 131 139
f 131 140 139
f 131 132 140
f 132 141 140
f 132 124 141
f 124 133 141
f 133 134 142
f 134 135 142
f 135 136 142
f 136 137 142
f 137 138 142
f 138 139 142
f 139 140 142
f 140 141 142
f 141 133 142
f 143 145 144
f 143 146 145
f 143 147 146
f 143 148 147
f 143 149 148
f 143 150 149
f 143 151 150
f 143 152 151
f 143 144 152
f 144 145 153
f 145 154 153
f 145 146 154
f 146 155 154
f 146 147 155
f 147 156 155
f 147 148 156
f 148 157 156
f 148 149 157
f 149 158 157
f 149 150 158
f 150 159 158
f 150 151 159
f 151 160 159
f 151 152 160
f 152 161 160
f 152 144 161
f 144 153 161
f 153 154 162
f 154 163 162
f 154 155 163
f 155 164 163
f 155 156 164
f 156 165 164
f 156 157 165
f 157 166 165
f 157 158 166
f 158 167 166
f 158 159 167
f 159 168 167
f 159 160 168
f 160 169 168
f 160 161 169
f 161 170 169
f 161 153 170
f 153 162 170
f 162 163 171
f 163 164 171
f 164 165 171
f 165 166 171
f 166 167 171
f 167 168 171
f 168 169 171
f 169 170 171
f 170 162 171
usemtl m65B18A
f 172 174 173
f 172 175 174
f 172 176 175
f 172 177 176
f 172 178 177
f 172 179 178
f 172 180 179
f 172 181 180
f 172 173 181
f 173 174 182
f 174 183 182
f 174 175 183
f 175 184 183
f 175 176 184
f 176 185 184
f 176 177 185
f 177 186 185
f 177 178 186
f 178 187 186
f 178 179 187
f 179 188 187
f 179 180 188
f 180 189 188
f 180 181 189
f 181 190 189
f 181 173 190
f 173 182 190
f 182 183 191
f 183 192 191
f 183 184 192
f 184 193 192
f 184 185 193
f 185 194 193
f 185 186 194
f 186 195 194
f 186 187 195
f 187 196 195
f 187 188 196
f 188 197 196
f 188 189 197
f 189 198 197
f 189 190 198
f 190 199 198
f 190 182 199
f 182 191 199
f 191 192 200
f 192 193 200
f 193 194 200
f 194 195 200
f 195 196 200
f 196 197 200
f 197 198 200
f 198 199 200
f 199 191 200
