mtllib triceratops.mtl
o triceratops
v 0.00000 3.45000 0.30000
v 0.80000 3.30933 0.30000
v 0.69282 3.30933 0.77500
v 0.40000 3.30933 1.12272
v 0.00000 3.30933 1.25000
v -0.40000 3.30933 1.12272
v -0.69282 3.30933 0.77500
v -0.80000 3.30933 0.30000
v -0.69282 3.30933 -0.17500
v -0.40000 3.30933 -0.52272
v -0.00000 3.30933 -0.65000
v 0.40000 3.30933 -0.52272
v 0.69282 3.30933 -0.17500
v 1.38564 2.92500 0.30000
v 1.20000 2.92500 1.12272
v 0.69282 2.92500 1.72500
v 0.00000 2.92500 1.94545
v -0.69282 2.92500 1.72500
v -1.20000 2.92500 1.12272
v -1.38564 2.92500 0.30000
v -1.20000 2.92500 -0.52272
v -0.69282 2.92500 -1.12500
v -0.00000 2.92500 -1.34545
v 0.69282 2.92500 -1.12500
v 1.20000 2.92500 -0.52272
v 1.60000 2.40000 0.30000
v 1.38564 2.40000 1.25000
v 0.80000 2.40000 1.94545
v 0.00000 2.40000 2.20000
v -0.80000 2.40000 1.94545
v -1.38564 2.40000 1.25000
v -1.60000 2.40000 0.30000
v -1.38564 2.40000 -0.65000
v -0.80000 2.40000 -1.34545
v -0.00000 2.40000 -1.60000
v 0.80000 2.40000 -1.34545
v 1.38564 2.40000 -0.65000
v 1.38564 1.87500 0.30000
v 1.20000 1.87500 1.12272
v 0.69282 1.87500 1.72500
v 0.00000 1.87500 1.94545
v -0.69282 1.87500 1.72500
v -1.20000 1.87500 1.12272
v -1.38564 1.87500 0.30000
v -1.20000 1.87500 -0.52272
v -0.69282 1.87500 -1.12500
v -0.00000 1.87500 -1.34545
v 0.69282 1.87500 -1.12500
v 1.20000 1.87500 -0.52272
v 0.80000 1.49067 0.30000
v 0.69282 1.49067 0.77500
v 0.40000 1.49067 1.12272
v 0.00000 1.49067 1.25000
v -0.40000 1.49067 1.12272
v -0.69282 1.49067 0.77500
v -0.80000 1.49067 0.30000
v -0.69282 1.49067 -0.17500
v -0.40000 1.49067 -0.52272
v -0.00000 1.49067 -0.65000
v 0.40000 1.49067 -0.52272
v 0.69282 1.49067 -0.17500
v 0.00000 1.35000 0.30000
v 0.00000 2.70000 -0.20000
v 0.47500 2.61292 -0.20000
v 0.41136 2.61292 0.11250
v 0.23750 2.61292 0.34127
v 0.00000 2.61292 0.42500
v -0.23750 2.61292 0.34127
v -0.41136 2.61292 0.11250
v -0.47500 2.61292 -0.20000
v -0.41136 2.61292 -0.51250
v -0.23750 2.61292 -0.74127
v -0.00000 2.61292 -0.82500
v 0.23750 2.61292 -0.74127
v 0.41136 2.61292 -0.51250
v 0.82272 2.37500 -0.20000
v 0.71250 2.37500 0.34127
v 0.41136 2.37500 0.73750
v 0.00000 2.37500 0.88253
v -0.41136 2.37500 0.73750
v -0.71250 2.37500 0.34127
v -0.82272 2.37500 -0.20000
v -0.71250 2.37500 -0.74127
v -0.41136 2.37500 -1.13750
v -0.00000 2.37500 -1.28253
v 0.41136 2.37500 -1.13750
v 0.71250 2.37500 -0.74127
v 0.95000 2.05000 -0.20000
v 0.82272 2.05000 0.42500
v 0.47500 2.05000 0.88253
v 0.00000 2.05000 1.05000
v -0.47500 2.05000 0.88253
v -0.82272 2.05000 0.42500
v -0.95000 2.05000 -0.20000
v -0.82272 2.05000 -0.82500
v -0.47500 2.05000 -1.28253
v -0.00000 2.05000 -1.45000
v 0.47500 2.05000 -1.28253
v 0.82272 2.05000 -0.82500
v 0.82272 1.72500 -0.20000
v 0.71250 1.72500 0.34127
v 0.41136 1.72500 0.73750
v 0.00000 1.72500 0.88253
v -0.41136 1.72500 0.73750
v -0.71250 1.72500 0.34127
v -0.82272 1.72500 -0.20000
v -0.71250 1.72500 -0.74127
v -0.41136 1.72500 -1.13750
v -0.00000 1.72500 -1.28253
v 0.41136 1.72500 -1.13750
v 0.71250 1.72500 -0.74127
v 0.47500 1.48708 -0.20000
v 0.41136 1.48708 0.11250
v 0.23750 1.48708 0.34127
v 0.00000 1.48708 0.42500
v -0.23750 1.48708 0.34127
v -0.41136 1.48708 0.11250
v -0.47500 1.48708 -0.20000
v -0.41136 1.48708 -0.51250
v -0.23750 1.48708 -0.74127
v -0.00000 1.48708 -0.82500
v 0.23750 1.48708 -0.74127
v 0.41136 1.48708 -0.51250
v 0.00000 1.40000 -0.20000
v 0.80000 2.50000 -0.90000
v 0.64721 2.18105 -1.24553
v 0.24721 1.98393 -1.45907
v -0.24721 1.98393 -1.45907
v -0.64721 2.18105 -1.24553
v -0.80000 2.50000 -0.90000
v -0.64721 2.81895 -0.55447
v -0.24721 3.01607 -0.34093
v 0.24721 3.01607 -0.34093
v 0.64721 2.81895 -0.55447
v 0.72000 3.15000 -1.50000
v 0.58249 2.85075 -1.79925
v 0.22249 2.66580 -1.98420
v -0.22249 2.66580 -1.98420
v -0.58249 2.85075 -1.79925
v -0.72000 3.15000 -1.50000
v -0.58249 3.44925 -1.20075
v -0.22249 3.63420 -1.01580
v 0.22249 3.63420 -1.01580
v 0.58249 3.44925 -1.20075
v 0.65000 3.55000 -1.90000
v 0.52586 3.27984 -2.17016
v 0.20086 3.11288 -2.33712
v -0.20086 3.11288 -2.33712
v -0.52586 3.27984 -2.17016
v -0.65000 3.55000 -1.90000
v -0.52586 3.82016 -1.62984
v -0.20086 3.98712 -1.46288
v 0.20086 3.98712 -1.46288
v 0.52586 3.82016 -1.62984
v 0.00000 4.45000 -2.00000
v 0.47500 4.33612 -2.00000
v 0.41136 4.33612 -1.72500
v 0.23750 4.33612 -1.52369
v 0.00000 4.33612 -1.45000
v -0.23750 4.33612 -1.52369
v -0.41136 4.33612 -1.72500
v -0.47500 4.33612 -2.00000
v -0.41136 4.33612 -2.27500
v -0.23750 4.33612 -2.47631
v -0.00000 4.33612 -2.55000
v 0.23750 4.33612 -2.47631
v 0.41136 4.33612 -2.27500
v 0.82272 4.02500 -2.00000
v 0.71250 4.02500 -1.52369
v 0.41136 4.02500 -1.17500
v 0.00000 4.02500 -1.04737
v -0.41136 4.02500 -1.17500
v -0.71250 4.02500 -1.52369
v -0.82272 4.02500 -2.00000
v -0.71250 4.02500 -2.47631
v -0.41136 4.02500 -2.82500
v -0.00000 4.02500 -2.95263
v 0.41136 4.02500 -2.82500
v 0.71250 4.02500 -2.47631
v 0.95000 3.60000 -2.00000
v 0.82272 3.60000 -1.45000
v 0.47500 3.60000 -1.04737
v 0.00000 3.60000 -0.90000
v -0.47500 3.60000 -1.04737
v -0.82272 3.60000 -1.45000
v -0.95000 3.60000 -2.00000
v -0.82272 3.60000 -2.55000
v -0.47500 3.60000 -2.95263
v -0.00000 3.60000 -3.10000
v 0.47500 3.60000 -2.95263
v 0.82272 3.60000 -2.55000
v 0.82272 3.17500 -2.00000
v 0.71250 3.17500 -1.52369
v 0.41136 3.17500 -1.17500
v 0.00000 3.17500 -1.04737
v -0.41136 3.17500 -1.17500
v -0.71250 3.17500 -1.52369
v -0.82272 3.17500 -2.00000
v -0.71250 3.17500 -2.47631
v -0.41136 3.17500 -2.82500
v -0.00000 3.17500 -2.95263
v 0.41136 3.17500 -2.82500
v 0.71250 3.17500 -2.47631
v 0.47500 2.86388 -2.00000
v 0.41136 2.86388 -1.72500
v 0.23750 2.86388 -1.52369
v 0.00000 2.86388 -1.45000
v -0.23750 2.86388 -1.52369
v -0.41136 2.86388 -1.72500
v -0.47500 2.86388 -2.00000
v -0.41136 2.86388 -2.27500
v -0.23750 2.86388 -2.47631
v -0.00000 2.86388 -2.55000
v 0.23750 2.86388 -2.47631
v 0.41136 2.86388 -2.27500
v 0.00000 2.75000 -2.00000
v 0.00000 3.77000 -2.80000
v 0.40000 3.71373 -2.80000
v 0.34641 3.71373 -2.60000
v 0.20000 3.71373 -2.45359
v 0.00000 3.71373 -2.40000
v -0.20000 3.71373 -2.45359
v -0.34641 3.71373 -2.60000
v -0.40000 3.71373 -2.80000
v -0.34641 3.71373 -3.00000
v -0.20000 3.71373 -3.14641
v -0.00000 3.71373 -3.20000
v 0.20000 3.71373 -3.14641
v 0.34641 3.71373 -3.00000
v 0.69282 3.56000 -2.80000
v 0.60000 3.56000 -2.45359
v 0.34641 3.56000 -2.20000
v 0.00000 3.56000 -2.10718
v -0.34641 3.56000 -2.20000
v -0.60000 3.56000 -2.45359
v -0.69282 3.56000 -2.80000
v -0.60000 3.56000 -3.14641
v -0.34641 3.56000 -3.40000
v -0.00000 3.56000 -3.49282
v 0.34641 3.56000 -3.40000
v 0.60000 3.56000 -3.14641
v 0.80000 3.35000 -2.80000
v 0.69282 3.35000 -2.40000
v 0.40000 3.35000 -2.10718
v 0.00000 3.35000 -2.00000
v -0.40000 3.35000 -2.10718
v -0.69282 3.35000 -2.40000
v -0.80000 3.35000 -2.80000
v -0.69282 3.35000 -3.20000
v -0.40000 3.35000 -3.49282
v -0.00000 3.35000 -3.60000
v 0.40000 3.35000 -3.49282
v 0.69282 3.35000 -3.20000
v 0.69282 3.14000 -2.80000
v 0.60000 3.14000 -2.45359
v 0.34641 3.14000 -2.20000
v 0.00000 3.14000 -2.10718
v -0.34641 3.14000 -2.20000
v -0.60000 3.14000 -2.45359
v -0.69282 3.14000 -2.80000
v -0.60000 3.14000 -3.14641
v -0.34641 3.14000 -3.40000
v -0.00000 3.14000 -3.49282
v 0.34641 3.14000 -3.40000
v 0.60000 3.14000 -3.14641
v 0.40000 2.98627 -2.80000
v 0.34641 2.98627 -2.60000
v 0.20000 2.98627 -2.45359
v 0.00000 2.98627 -2.40000
v -0.20000 2.98627 -2.45359
v -0.34641 2.98627 -2.60000
v -0.40000 2.98627 -2.80000
v -0.34641 2.98627 -3.00000
v -0.20000 2.98627 -3.14641
v -0.00000 2.98627 -3.20000
v 0.20000 2.98627 -3.14641
v 0.34641 2.98627 -3.00000
v 0.00000 2.93000 -2.80000
v 0.00000 3.20000 -2.65000
v 0.35000 3.17321 -2.65000
v 0.30311 3.17321 -2.43750
v 0.17500 3.17321 -2.28194
v 0.00000 3.17321 -2.22500
v -0.17500 3.17321 -2.28194
v -0.30311 3.17321 -2.43750
v -0.35000 3.17321 -2.65000
v -0.30311 3.17321 -2.86250
v -0.17500 3.17321 -3.01806
v -0.00000 3.17321 -3.07500
v 0.17500 3.17321 -3.01806
v 0.30311 3.17321 -2.86250
v 0.60622 3.10000 -2.65000
v 0.52500 3.10000 -2.28194
v 0.30311 3.10000 -2.01250
v 0.00000 3.10000 -1.91388
v -0.30311 3.10000 -2.01250
v -0.52500 3.10000 -2.28194
v -0.60622 3.10000 -2.65000
v -0.52500 3.10000 -3.01806
v -0.30311 3.10000 -3.28750
v -0.00000 3.10000 -3.38612
v 0.30311 3.10000 -3.28750
v 0.52500 3.10000 -3.01806
v 0.70000 3.00000 -2.65000
v 0.60622 3.00000 -2.22500
v 0.35000 3.00000 -1.91388
v 0.00000 3.00000 -1.80000
v -0.35000 3.00000 -1.91388
v -0.60622 3.00000 -2.22500
v -0.70000 3.00000 -2.65000
v -0.60622 3.00000 -3.07500
v -0.35000 3.00000 -3.38612
v -0.00000 3.00000 -3.50000
v 0.35000 3.00000 -3.38612
v 0.60622 3.00000 -3.07500
v 0.60622 2.90000 -2.65000
v 0.52500 2.90000 -2.28194
v 0.30311 2.90000 -2.01250
v 0.00000 2.90000 -1.91388
v -0.30311 2.90000 -2.01250
v -0.52500 2.90000 -2.28194
v -0.60622 2.90000 -2.65000
v -0.52500 2.90000 -3.01806
v -0.30311 2.90000 -3.28750
v -0.00000 2.90000 -3.38612
v 0.30311 2.90000 -3.28750
v 0.52500 2.90000 -3.01806
v 0.35000 2.82679 -2.65000
v 0.30311 2.82679 -2.43750
v 0.17500 2.82679 -2.28194
v 0.00000 2.82679 -2.22500
v -0.17500 2.82679 -2.28194
v -0.30311 2.82679 -2.43750
v -0.35000 2.82679 -2.65000
v -0.30311 2.82679 -2.86250
v -0.17500 2.82679 -3.01806
v -0.00000 2.82679 -3.07500
v 0.17500 2.82679 -3.01806
v 0.30311 2.82679 -2.86250
v 0.00000 2.80000 -2.65000
v -0.70000 2.40000 1.40000
v -0.56631 1.99126 1.35284
v -0.21631 1.73865 1.32369
v 0.21631 1.73865 1.32369
v 0.56631 1.99126 1.35284
v 0.70000 2.40000 1.40000
v 0.56631 2.80874 1.44716
v 0.21631 3.06135 1.47631
v -0.21631 3.06135 1.47631
v -0.56631 2.80874 1.44716
v -0.50000 2.25000 2.70000
v -0.40451 1.97021 2.78993
v -0.15451 1.79728 2.84552
v 0.15451 1.79728 2.84552
v 0.40451 1.97021 2.78993
v 0.50000 2.25000 2.70000
v 0.40451 2.52979 2.61007
v 0.15451 2.70272 2.55448
v -0.15451 2.70272 2.55448
v -0.40451 2.52979 2.61007
v -0.25000 2.70000 4.10000
v -0.20225 2.56059 4.14647
v -0.07725 2.47444 4.17519
v 0.07725 2.47444 4.17519
v 0.20225 2.56059 4.14647
v 0.25000 2.70000 4.10000
v 0.20225 2.83941 4.05353
v 0.07725 2.92556 4.02481
v -0.07725 2.92556 4.02481
v -0.20225 2.83941 4.05353
v -0.02500 3.00000 5.00000
v -0.02023 2.98606 5.00465
v -0.00773 2.97744 5.00752
v 0.00773 2.97744 5.00752
v 0.02023 2.98606 5.00465
v 0.02500 3.00000 5.00000
v 0.02023 3.01394 4.99535
v 0.00773 3.02256 4.99248
v -0.00773 3.02256 4.99248
v -0.02023 3.01394 4.99535
v -0.85000 2.50000 -0.95000
v -0.60000 2.37942 -0.95000
v -0.63349 2.37942 -0.80000
v -0.72500 2.37942 -0.69019
v -0.85000 2.37942 -0.65000
v -0.97500 2.37942 -0.69019
v -1.06651 2.37942 -0.80000
v -1.10000 2.37942 -0.95000
v -1.06651 2.37942 -1.10000
v -0.97500 2.37942 -1.20981
v -0.85000 2.37942 -1.25000
v -0.72500 2.37942 -1.20981
v -0.63349 2.37942 -1.10000
v -0.41699 2.05000 -0.95000
v -0.47500 2.05000 -0.69019
v -0.63349 2.05000 -0.50000
v -0.85000 2.05000 -0.43038
v -1.06651 2.05000 -0.50000
v -1.22500 2.05000 -0.69019
v -1.28301 2.05000 -0.95000
v -1.22500 2.05000 -1.20981
v -1.06651 2.05000 -1.40000
v -0.85000 2.05000 -1.46962
v -0.63349 2.05000 -1.40000
v -0.47500 2.05000 -1.20981
v -0.35000 1.60000 -0.95000
v -0.41699 1.60000 -0.65000
v -0.60000 1.60000 -0.43038
v -0.85000 1.60000 -0.35000
v -1.10000 1.60000 -0.43038
v -1.28301 1.60000 -0.65000
v -1.35000 1.60000 -0.95000
v -1.28301 1.60000 -1.25000
v -1.10000 1.60000 -1.46962
v -0.85000 1.60000 -1.55000
v -0.60000 1.60000 -1.46962
v -0.41699 1.60000 -1.25000
v -0.41699 1.15000 -0.95000
v -0.47500 1.15000 -0.69019
v -0.63349 1.15000 -0.50000
v -0.85000 1.15000 -0.43038
v -1.06651 1.15000 -0.50000
v -1.22500 1.15000 -0.69019
v -1.28301 1.15000 -0.95000
v -1.22500 1.15000 -1.20981
v -1.06651 1.15000 -1.40000
v -0.85000 1.15000 -1.46962
v -0.63349 1.15000 -1.40000
v -0.47500 1.15000 -1.20981
v -0.60000 0.82058 -0.95000
v -0.63349 0.82058 -0.80000
v -0.72500 0.82058 -0.69019
v -0.85000 0.82058 -0.65000
v -0.97500 0.82058 -0.69019
v -1.06651 0.82058 -0.80000
v -1.10000 0.82058 -0.95000
v -1.06651 0.82058 -1.10000
v -0.97500 0.82058 -1.20981
v -0.85000 0.82058 -1.25000
v -0.72500 0.82058 -1.20981
v -0.63349 0.82058 -1.10000
v -0.85000 0.70000 -0.95000
v -0.85000 1.30364 -0.64485
v -1.03809 1.32204 -0.70313
v -1.15434 1.37022 -0.85570
v -1.15434 1.42978 -1.04430
v -1.03809 1.47796 -1.19687
v -0.85000 1.49636 -1.25515
v -0.66191 1.47796 -1.19687
v -0.54566 1.42978 -1.04430
v -0.54566 1.37022 -0.85570
v -0.66191 1.32204 -0.70313
v -0.85000 0.37773 -1.02114
v -0.99107 0.39153 -1.06485
v -1.07825 0.42767 -1.17928
v -1.07825 0.47233 -1.32072
v -0.99107 0.50847 -1.43515
v -0.85000 0.52227 -1.47886
v -0.70893 0.50847 -1.43515
v -0.62175 0.47233 -1.32072
v -0.62175 0.42767 -1.17928
v -0.70893 0.39153 -1.06485
v -0.85000 0.50000 -1.45000
v -0.65000 0.46919 -1.45000
v -0.67679 0.46919 -1.28750
v -0.75000 0.46919 -1.16854
v -0.85000 0.46919 -1.12500
v -0.95000 0.46919 -1.16854
v -1.02321 0.46919 -1.28750
v -1.05000 0.46919 -1.45000
v -1.02321 0.46919 -1.61250
v -0.95000 0.46919 -1.73146
v -0.85000 0.46919 -1.77500
v -0.75000 0.46919 -1.73146
v -0.67679 0.46919 -1.61250
v -0.50359 0.38500 -1.45000
v -0.55000 0.38500 -1.16854
v -0.67679 0.38500 -0.96250
v -0.85000 0.38500 -0.88708
v -1.02321 0.38500 -0.96250
v -1.15000 0.38500 -1.16854
v -1.19641 0.38500 -1.45000
v -1.15000 0.38500 -1.73146
v -1.02321 0.38500 -1.93750
v -0.85000 0.38500 -2.01292
v -0.67679 0.38500 -1.93750
v -0.55000 0.38500 -1.73146
v -0.45000 0.27000 -1.45000
v -0.50359 0.27000 -1.12500
v -0.65000 0.27000 -0.88708
v -0.85000 0.27000 -0.80000
v -1.05000 0.27000 -0.88708
v -1.19641 0.27000 -1.12500
v -1.25000 0.27000 -1.45000
v -1.19641 0.27000 -1.77500
v -1.05000 0.27000 -2.01292
v -0.85000 0.27000 -2.10000
v -0.65000 0.27000 -2.01292
v -0.50359 0.27000 -1.77500
v -0.50359 0.15500 -1.45000
v -0.55000 0.15500 -1.16854
v -0.67679 0.15500 -0.96250
v -0.85000 0.15500 -0.88708
v -1.02321 0.15500 -0.96250
v -1.15000 0.15500 -1.16854
v -1.19641 0.15500 -1.45000
v -1.15000 0.15500 -1.73146
v -1.02321 0.15500 -1.93750
v -0.85000 0.15500 -2.01292
v -0.67679 0.15500 -1.93750
v -0.55000 0.15500 -1.73146
v -0.65000 0.07081 -1.45000
v -0.67679 0.07081 -1.28750
v -0.75000 0.07081 -1.16854
v -0.85000 0.07081 -1.12500
v -0.95000 0.07081 -1.16854
v -1.02321 0.07081 -1.28750
v -1.05000 0.07081 -1.45000
v -1.02321 0.07081 -1.61250
v -0.95000 0.07081 -1.73146
v -0.85000 0.07081 -1.77500
v -0.75000 0.07081 -1.73146
v -0.67679 0.07081 -1.61250
v -0.85000 0.04000 -1.45000
v -0.92000 0.23000 -1.75000
v -0.96500 0.15438 -1.73110
v -1.05500 0.15438 -1.73110
v -1.10000 0.23000 -1.75000
v -1.05500 0.30562 -1.76890
v -0.96500 0.30562 -1.76890
v -0.98500 0.16000 -2.03000
v -0.99750 0.13900 -2.02475
v -1.02250 0.13900 -2.02475
v -1.03500 0.16000 -2.03000
v -1.02250 0.18100 -2.03525
v -0.99750 0.18100 -2.03525
v -0.76000 0.23000 -1.75000
v -0.80500 0.15438 -1.73110
v -0.89500 0.15438 -1.73110
v -0.94000 0.23000 -1.75000
v -0.89500 0.30562 -1.76890
v -0.80500 0.30562 -1.76890
v -0.82500 0.16000 -2.03000
v -0.83750 0.13900 -2.02475
v -0.86250 0.13900 -2.02475
v -0.87500 0.16000 -2.03000
v -0.86250 0.18100 -2.03525
v -0.83750 0.18100 -2.03525
v -0.60000 0.23000 -1.75000
v -0.64500 0.15438 -1.73110
v -0.73500 0.15438 -1.73110
v -0.78000 0.23000 -1.75000
v -0.73500 0.30562 -1.76890
v -0.64500 0.30562 -1.76890
v -0.66500 0.16000 -2.03000
v -0.67750 0.13900 -2.02475
v -0.70250 0.13900 -2.02475
v -0.71500 0.16000 -2.03000
v -0.70250 0.18100 -2.03525
v -0.67750 0.18100 -2.03525
v -0.85000 2.50000 1.20000
v -0.60000 2.37942 1.20000
v -0.63349 2.37942 1.35000
v -0.72500 2.37942 1.45981
v -0.85000 2.37942 1.50000
v -0.97500 2.37942 1.45981
v -1.06651 2.37942 1.35000
v -1.10000 2.37942 1.20000
v -1.06651 2.37942 1.05000
v -0.97500 2.37942 0.94019
v -0.85000 2.37942 0.90000
v -0.72500 2.37942 0.94019
v -0.63349 2.37942 1.05000
v -0.41699 2.05000 1.20000
v -0.47500 2.05000 1.45981
v -0.63349 2.05000 1.65000
v -0.85000 2.05000 1.71962
v -1.06651 2.05000 1.65000
v -1.22500 2.05000 1.45981
v -1.28301 2.05000 1.20000
v -1.22500 2.05000 0.94019
v -1.06651 2.05000 0.75000
v -0.85000 2.05000 0.68038
v -0.63349 2.05000 0.75000
v -0.47500 2.05000 0.94019
v -0.35000 1.60000 1.20000
v -0.41699 1.60000 1.50000
v -0.60000 1.60000 1.71962
v -0.85000 1.60000 1.80000
v -1.10000 1.60000 1.71962
v -1.28301 1.60000 1.50000
v -1.35000 1.60000 1.20000
v -1.28301 1.60000 0.90000
v -1.10000 1.60000 0.68038
v -0.85000 1.60000 0.60000
v -0.60000 1.60000 0.68038
v -0.41699 1.60000 0.90000
v -0.41699 1.15000 1.20000
v -0.47500 1.15000 1.45981
v -0.63349 1.15000 1.65000
v -0.85000 1.15000 1.71962
v -1.06651 1.15000 1.65000
v -1.22500 1.15000 1.45981
v -1.28301 1.15000 1.20000
v -1.22500 1.15000 0.94019
v -1.06651 1.15000 0.75000
v -0.85000 1.15000 0.68038
v -0.63349 1.15000 0.75000
v -0.47500 1.15000 0.94019
v -0.60000 0.82058 1.20000
v -0.63349 0.82058 1.35000
v -0.72500 0.82058 1.45981
v -0.85000 0.82058 1.50000
v -0.97500 0.82058 1.45981
v -1.06651 0.82058 1.35000
v -1.10000 0.82058 1.20000
v -1.06651 0.82058 1.05000
v -0.97500 0.82058 0.94019
v -0.85000 0.82058 0.90000
v -0.72500 0.82058 0.94019
v -0.63349 0.82058 1.05000
v -0.85000 0.70000 1.20000
v -0.85000 1.30364 1.50515
v -1.03809 1.32204 1.44687
v -1.15434 1.37022 1.29430
v -1.15434 1.42978 1.10570
v -1.03809 1.47796 0.95313
v -0.85000 1.49636 0.89485
v -0.66191 1.47796 0.95313
v -0.54566 1.42978 1.10570
v -0.54566 1.37022 1.29430
v -0.66191 1.32204 1.44687
v -0.85000 0.37773 1.12886
v -0.99107 0.39153 1.08515
v -1.07825 0.42767 0.97072
v -1.07825 0.47233 0.82928
v -0.99107 0.50847 0.71485
v -0.85000 0.52227 0.67114
v -0.70893 0.50847 0.71485
v -0.62175 0.47233 0.82928
v -0.62175 0.42767 0.97072
v -0.70893 0.39153 1.08515
v -0.85000 0.50000 0.70000
v -0.65000 0.46919 0.70000
v -0.67679 0.46919 0.86250
v -0.75000 0.46919 0.98146
v -0.85000 0.46919 1.02500
v -0.95000 0.46919 0.98146
v -1.02321 0.46919 0.86250
v -1.05000 0.46919 0.70000
v -1.02321 0.46919 0.53750
v -0.95000 0.46919 0.41854
v -0.85000 0.46919 0.37500
v -0.75000 0.46919 0.41854
v -0.67679 0.46919 0.53750
v -0.50359 0.38500 0.70000
v -0.55000 0.38500 0.98146
v -0.67679 0.38500 1.18750
v -0.85000 0.38500 1.26292
v -1.02321 0.38500 1.18750
v -1.15000 0.38500 0.98146
v -1.19641 0.38500 0.70000
v -1.15000 0.38500 0.41854
v -1.02321 0.38500 0.21250
v -0.85000 0.38500 0.13708
v -0.67679 0.38500 0.21250
v -0.55000 0.38500 0.41854
v -0.45000 0.27000 0.70000
v -0.50359 0.27000 1.02500
v -0.65000 0.27000 1.26292
v -0.85000 0.27000 1.35000
v -1.05000 0.27000 1.26292
v -1.19641 0.27000 1.02500
v -1.25000 0.27000 0.70000
v -1.19641 0.27000 0.37500
v -1.05000 0.27000 0.13708
v -0.85000 0.27000 0.05000
v -0.65000 0.27000 0.13708
v -0.50359 0.27000 0.37500
v -0.50359 0.15500 0.70000
v -0.55000 0.15500 0.98146
v -0.67679 0.15500 1.18750
v -0.85000 0.15500 1.26292
v -1.02321 0.15500 1.18750
v -1.15000 0.15500 0.98146
v -1.19641 0.15500 0.70000
v -1.15000 0.15500 0.41854
v -1.02321 0.15500 0.21250
v -0.85000 0.15500 0.13708
v -0.67679 0.15500 0.21250
v -0.55000 0.15500 0.41854
v -0.65000 0.07081 0.70000
v -0.67679 0.07081 0.86250
v -0.75000 0.07081 0.98146
v -0.85000 0.07081 1.02500
v -0.95000 0.07081 0.98146
v -1.02321 0.07081 0.86250
v -1.05000 0.07081 0.70000
v -1.02321 0.07081 0.53750
v -0.95000 0.07081 0.41854
v -0.85000 0.07081 0.37500
v -0.75000 0.07081 0.41854
v -0.67679 0.07081 0.53750
v -0.85000 0.04000 0.70000
v -0.92000 0.23000 0.40000
v -0.96500 0.15438 0.41890
v -1.05500 0.15438 0.41890
v -1.10000 0.23000 0.40000
v -1.05500 0.30562 0.38110
v -0.96500 0.30562 0.38110
v -0.98500 0.16000 0.12000
v -0.99750 0.13900 0.12525
v -1.02250 0.13900 0.12525
v -1.03500 0.16000 0.12000
v -1.02250 0.18100 0.11475
v -0.99750 0.18100 0.11475
v -0.76000 0.23000 0.40000
v -0.80500 0.15438 0.41890
v -0.89500 0.15438 0.41890
v -0.94000 0.23000 0.40000
v -0.89500 0.30562 0.38110
v -0.80500 0.30562 0.38110
v -0.82500 0.16000 0.12000
v -0.83750 0.13900 0.12525
v -0.86250 0.13900 0.12525
v -0.87500 0.16000 0.12000
v -0.86250 0.18100 0.11475
v -0.83750 0.18100 0.11475
v -0.60000 0.23000 0.40000
v -0.64500 0.15438 0.41890
v -0.73500 0.15438 0.41890
v -0.78000 0.23000 0.40000
v -0.73500 0.30562 0.38110
v -0.64500 0.30562 0.38110
v -0.66500 0.16000 0.12000
v -0.67750 0.13900 0.12525
v -0.70250 0.13900 0.12525
v -0.71500 0.16000 0.12000
v -0.70250 0.18100 0.11475
v -0.67750 0.18100 0.11475
v -0.85000 4.19000 -2.50000
v -0.74393 4.10506 -2.50000
v -0.77500 4.10506 -2.33500
v -0.85000 4.10506 -2.26665
v -0.92500 4.10506 -2.33500
v -0.95607 4.10506 -2.50000
v -0.92500 4.10506 -2.66500
v -0.85000 4.10506 -2.73335
v -0.77500 4.10506 -2.66500
v -0.70000 3.90000 -2.50000
v -0.74393 3.90000 -2.26665
v -0.85000 3.90000 -2.17000
v -0.95607 3.90000 -2.26665
v -1.00000 3.90000 -2.50000
v -0.95607 3.90000 -2.73335
v -0.85000 3.90000 -2.83000
v -0.74393 3.90000 -2.73335
v -0.74393 3.69494 -2.50000
v -0.77500 3.69494 -2.33500
v -0.85000 3.69494 -2.26665
v -0.92500 3.69494 -2.33500
v -0.95607 3.69494 -2.50000
v -0.92500 3.69494 -2.66500
v -0.85000 3.69494 -2.73335
v -0.77500 3.69494 -2.66500
v -0.85000 3.61000 -2.50000
v -0.97000 4.08000 -2.62000
v -0.92757 4.03314 -2.62000
v -0.94000 4.03314 -2.55000
v -0.97000 4.03314 -2.52101
v -1.00000 4.03314 -2.55000
v -1.01243 4.03314 -2.62000
v -1.00000 4.03314 -2.69000
v -0.97000 4.03314 -2.71899
v -0.94000 4.03314 -2.69000
v -0.91000 3.92000 -2.62000
v -0.92757 3.92000 -2.52101
v -0.97000 3.92000 -2.48000
v -1.01243 3.92000 -2.52101
v -1.03000 3.92000 -2.62000
v -1.01243 3.92000 -2.71899
v -0.97000 3.92000 -2.76000
v -0.92757 3.92000 -2.71899
v -0.92757 3.80686 -2.62000
v -0.94000 3.80686 -2.55000
v -0.97000 3.80686 -2.52101
v -1.00000 3.80686 -2.55000
v -1.01243 3.80686 -2.62000
v -1.00000 3.80686 -2.69000
v -0.97000 3.80686 -2.71899
v -0.94000 3.80686 -2.69000
v -0.97000 3.76000 -2.62000
v -0.98000 4.04000 -2.68000
v -0.95835 4.01500 -2.68000
v -0.96917 4.01500 -2.65000
v -0.99083 4.01500 -2.65000
v -1.00165 4.01500 -2.68000
v -0.99083 4.01500 -2.71000
v -0.96917 4.01500 -2.71000
v -0.95835 3.96500 -2.68000
v -0.96917 3.96500 -2.65000
v -0.99083 3.96500 -2.65000
v -1.00165 3.96500 -2.68000
v -0.99083 3.96500 -2.71000
v -0.96917 3.96500 -2.71000
v -0.98000 3.94000 -2.68000
v -0.39000 3.69500 -3.46000
v -0.32938 3.66250 -3.46000
v -0.35969 3.66250 -3.43375
v -0.42031 3.66250 -3.43375
v -0.45062 3.66250 -3.46000
v -0.42031 3.66250 -3.48625
v -0.35969 3.66250 -3.48625
v -0.32938 3.59750 -3.46000
v -0.35969 3.59750 -3.43375
v -0.42031 3.59750 -3.43375
v -0.45062 3.59750 -3.46000
v -0.42031 3.59750 -3.48625
v -0.35969 3.59750 -3.48625
v -0.39000 3.56500 -3.46000
v -0.33084 4.10000 -2.21918
v -0.37865 3.99023 -2.28360
v -0.49191 3.92238 -2.31609
v -0.62736 3.92238 -2.30424
v -0.73326 3.99023 -2.25257
v -0.76916 4.10000 -2.18082
v -0.72135 4.20977 -2.11640
v -0.60809 4.27762 -2.08391
v -0.47264 4.27762 -2.09576
v -0.36674 4.20977 -2.14743
v -0.48011 4.60000 -2.99440
v -0.50588 4.52118 -3.01908
v -0.57524 4.47246 -3.03647
v -0.66170 4.47246 -3.03993
v -0.73223 4.52118 -3.02814
v -0.75989 4.60000 -3.00560
v -0.73412 4.67882 -2.98092
v -0.66476 4.72754 -2.96353
v -0.57830 4.72754 -2.96007
v -0.50777 4.67882 -2.97186
v -0.58501 4.75000 -3.49940
v -0.58777 4.74155 -3.50204
v -0.59520 4.73633 -3.50391
v -0.60447 4.73633 -3.50428
v -0.61202 4.74155 -3.50301
v -0.61499 4.75000 -3.50060
v -0.61223 4.75845 -3.49796
v -0.60480 4.76367 -3.49609
v -0.59553 4.76367 -3.49572
v -0.58798 4.75845 -3.49699
v 0.85000 2.50000 -0.95000
v 1.10000 2.37942 -0.95000
v 1.06651 2.37942 -0.80000
v 0.97500 2.37942 -0.69019
v 0.85000 2.37942 -0.65000
v 0.72500 2.37942 -0.69019
v 0.63349 2.37942 -0.80000
v 0.60000 2.37942 -0.95000
v 0.63349 2.37942 -1.10000
v 0.72500 2.37942 -1.20981
v 0.85000 2.37942 -1.25000
v 0.97500 2.37942 -1.20981
v 1.06651 2.37942 -1.10000
v 1.28301 2.05000 -0.95000
v 1.22500 2.05000 -0.69019
v 1.06651 2.05000 -0.50000
v 0.85000 2.05000 -0.43038
v 0.63349 2.05000 -0.50000
v 0.47500 2.05000 -0.69019
v 0.41699 2.05000 -0.95000
v 0.47500 2.05000 -1.20981
v 0.63349 2.05000 -1.40000
v 0.85000 2.05000 -1.46962
v 1.06651 2.05000 -1.40000
v 1.22500 2.05000 -1.20981
v 1.35000 1.60000 -0.95000
v 1.28301 1.60000 -0.65000
v 1.10000 1.60000 -0.43038
v 0.85000 1.60000 -0.35000
v 0.60000 1.60000 -0.43038
v 0.41699 1.60000 -0.65000
v 0.35000 1.60000 -0.95000
v 0.41699 1.60000 -1.25000
v 0.60000 1.60000 -1.46962
v 0.85000 1.60000 -1.55000
v 1.10000 1.60000 -1.46962
v 1.28301 1.60000 -1.25000
v 1.28301 1.15000 -0.95000
v 1.22500 1.15000 -0.69019
v 1.06651 1.15000 -0.50000
v 0.85000 1.15000 -0.43038
v 0.63349 1.15000 -0.50000
v 0.47500 1.15000 -0.69019
v 0.41699 1.15000 -0.95000
v 0.47500 1.15000 -1.20981
v 0.63349 1.15000 -1.40000
v 0.85000 1.15000 -1.46962
v 1.06651 1.15000 -1.40000
v 1.22500 1.15000 -1.20981
v 1.10000 0.82058 -0.95000
v 1.06651 0.82058 -0.80000
v 0.97500 0.82058 -0.69019
v 0.85000 0.82058 -0.65000
v 0.72500 0.82058 -0.69019
v 0.63349 0.82058 -0.80000
v 0.60000 0.82058 -0.95000
v 0.63349 0.82058 -1.10000
v 0.72500 0.82058 -1.20981
v 0.85000 0.82058 -1.25000
v 0.97500 0.82058 -1.20981
v 1.06651 0.82058 -1.10000
v 0.85000 0.70000 -0.95000
v 0.85000 1.30364 -0.64485
v 0.66191 1.32204 -0.70313
v 0.54566 1.37022 -0.85570
v 0.54566 1.42978 -1.04430
v 0.66191 1.47796 -1.19687
v 0.85000 1.49636 -1.25515
v 1.03809 1.47796 -1.19687
v 1.15434 1.42978 -1.04430
v 1.15434 1.37022 -0.85570
v 1.03809 1.32204 -0.70313
v 0.85000 0.37773 -1.02114
v 0.70893 0.39153 -1.06485
v 0.62175 0.42767 -1.17928
v 0.62175 0.47233 -1.32072
v 0.70893 0.50847 -1.43515
v 0.85000 0.52227 -1.47886
v 0.99107 0.50847 -1.43515
v 1.07825 0.47233 -1.32072
v 1.07825 0.42767 -1.17928
v 0.99107 0.39153 -1.06485
v 0.85000 0.50000 -1.45000
v 1.05000 0.46919 -1.45000
v 1.02321 0.46919 -1.28750
v 0.95000 0.46919 -1.16854
v 0.85000 0.46919 -1.12500
v 0.75000 0.46919 -1.16854
v 0.67679 0.46919 -1.28750
v 0.65000 0.46919 -1.45000
v 0.67679 0.46919 -1.61250
v 0.75000 0.46919 -1.73146
v 0.85000 0.46919 -1.77500
v 0.95000 0.46919 -1.73146
v 1.02321 0.46919 -1.61250
v 1.19641 0.38500 -1.45000
v 1.15000 0.38500 -1.16854
v 1.02321 0.38500 -0.96250
v 0.85000 0.38500 -0.88708
v 0.67679 0.38500 -0.96250
v 0.55000 0.38500 -1.16854
v 0.50359 0.38500 -1.45000
v 0.55000 0.38500 -1.73146
v 0.67679 0.38500 -1.93750
v 0.85000 0.38500 -2.01292
v 1.02321 0.38500 -1.93750
v 1.15000 0.38500 -1.73146
v 1.25000 0.27000 -1.45000
v 1.19641 0.27000 -1.12500
v 1.05000 0.27000 -0.88708
v 0.85000 0.27000 -0.80000
v 0.65000 0.27000 -0.88708
v 0.50359 0.27000 -1.12500
v 0.45000 0.27000 -1.45000
v 0.50359 0.27000 -1.77500
v 0.65000 0.27000 -2.01292
v 0.85000 0.27000 -2.10000
v 1.05000 0.27000 -2.01292
v 1.19641 0.27000 -1.77500
v 1.19641 0.15500 -1.45000
v 1.15000 0.15500 -1.16854
v 1.02321 0.15500 -0.96250
v 0.85000 0.15500 -0.88708
v 0.67679 0.15500 -0.96250
v 0.55000 0.15500 -1.16854
v 0.50359 0.15500 -1.45000
v 0.55000 0.15500 -1.73146
v 0.67679 0.15500 -1.93750
v 0.85000 0.15500 -2.01292
v 1.02321 0.15500 -1.93750
v 1.15000 0.15500 -1.73146
v 1.05000 0.07081 -1.45000
v 1.02321 0.07081 -1.28750
v 0.95000 0.07081 -1.16854
v 0.85000 0.07081 -1.12500
v 0.75000 0.07081 -1.16854
v 0.67679 0.07081 -1.28750
v 0.65000 0.07081 -1.45000
v 0.67679 0.07081 -1.61250
v 0.75000 0.07081 -1.73146
v 0.85000 0.07081 -1.77500
v 0.95000 0.07081 -1.73146
v 1.02321 0.07081 -1.61250
v 0.85000 0.04000 -1.45000
v 0.78000 0.23000 -1.75000
v 0.73500 0.15438 -1.73110
v 0.64500 0.15438 -1.73110
v 0.60000 0.23000 -1.75000
v 0.64500 0.30562 -1.76890
v 0.73500 0.30562 -1.76890
v 0.71500 0.16000 -2.03000
v 0.70250 0.13900 -2.02475
v 0.67750 0.13900 -2.02475
v 0.66500 0.16000 -2.03000
v 0.67750 0.18100 -2.03525
v 0.70250 0.18100 -2.03525
v 0.94000 0.23000 -1.75000
v 0.89500 0.15438 -1.73110
v 0.80500 0.15438 -1.73110
v 0.76000 0.23000 -1.75000
v 0.80500 0.30562 -1.76890
v 0.89500 0.30562 -1.76890
v 0.87500 0.16000 -2.03000
v 0.86250 0.13900 -2.02475
v 0.83750 0.13900 -2.02475
v 0.82500 0.16000 -2.03000
v 0.83750 0.18100 -2.03525
v 0.86250 0.18100 -2.03525
v 1.10000 0.23000 -1.75000
v 1.05500 0.15438 -1.73110
v 0.96500 0.15438 -1.73110
v 0.92000 0.23000 -1.75000
v 0.96500 0.30562 -1.76890
v 1.05500 0.30562 -1.76890
v 1.03500 0.16000 -2.03000
v 1.02250 0.13900 -2.02475
v 0.99750 0.13900 -2.02475
v 0.98500 0.16000 -2.03000
v 0.99750 0.18100 -2.03525
v 1.02250 0.18100 -2.03525
v 0.85000 2.50000 1.20000
v 1.10000 2.37942 1.20000
v 1.06651 2.37942 1.35000
v 0.97500 2.37942 1.45981
v 0.85000 2.37942 1.50000
v 0.72500 2.37942 1.45981
v 0.63349 2.37942 1.35000
v 0.60000 2.37942 1.20000
v 0.63349 2.37942 1.05000
v 0.72500 2.37942 0.94019
v 0.85000 2.37942 0.90000
v 0.97500 2.37942 0.94019
v 1.06651 2.37942 1.05000
v 1.28301 2.05000 1.20000
v 1.22500 2.05000 1.45981
v 1.06651 2.05000 1.65000
v 0.85000 2.05000 1.71962
v 0.63349 2.05000 1.65000
v 0.47500 2.05000 1.45981
v 0.41699 2.05000 1.20000
v 0.47500 2.05000 0.94019
v 0.63349 2.05000 0.75000
v 0.85000 2.05000 0.68038
v 1.06651 2.05000 0.75000
v 1.22500 2.05000 0.94019
v 1.35000 1.60000 1.20000
v 1.28301 1.60000 1.50000
v 1.10000 1.60000 1.71962
v 0.85000 1.60000 1.80000
v 0.60000 1.60000 1.71962
v 0.41699 1.60000 1.50000
v 0.35000 1.60000 1.20000
v 0.41699 1.60000 0.90000
v 0.60000 1.60000 0.68038
v 0.85000 1.60000 0.60000
v 1.10000 1.60000 0.68038
v 1.28301 1.60000 0.90000
v 1.28301 1.15000 1.20000
v 1.22500 1.15000 1.45981
v 1.06651 1.15000 1.65000
v 0.85000 1.15000 1.71962
v 0.63349 1.15000 1.65000
v 0.47500 1.15000 1.45981
v 0.41699 1.15000 1.20000
v 0.47500 1.15000 0.94019
v 0.63349 1.15000 0.75000
v 0.85000 1.15000 0.68038
v 1.06651 1.15000 0.75000
v 1.22500 1.15000 0.94019
v 1.10000 0.82058 1.20000
v 1.06651 0.82058 1.35000
v 0.97500 0.82058 1.45981
v 0.85000 0.82058 1.50000
v 0.72500 0.82058 1.45981
v 0.63349 0.82058 1.35000
v 0.60000 0.82058 1.20000
v 0.63349 0.82058 1.05000
v 0.72500 0.82058 0.94019
v 0.85000 0.82058 0.90000
v 0.97500 0.82058 0.94019
v 1.06651 0.82058 1.05000
v 0.85000 0.70000 1.20000
v 0.85000 1.30364 1.50515
v 0.66191 1.32204 1.44687
v 0.54566 1.37022 1.29430
v 0.54566 1.42978 1.10570
v 0.66191 1.47796 0.95313
v 0.85000 1.49636 0.89485
v 1.03809 1.47796 0.95313
v 1.15434 1.42978 1.10570
v 1.15434 1.37022 1.29430
v 1.03809 1.32204 1.44687
v 0.85000 0.37773 1.12886
v 0.70893 0.39153 1.08515
v 0.62175 0.42767 0.97072
v 0.62175 0.47233 0.82928
v 0.70893 0.50847 0.71485
v 0.85000 0.52227 0.67114
v 0.99107 0.50847 0.71485
v 1.07825 0.47233 0.82928
v 1.07825 0.42767 0.97072
v 0.99107 0.39153 1.08515
v 0.85000 0.50000 0.70000
v 1.05000 0.46919 0.70000
v 1.02321 0.46919 0.86250
v 0.95000 0.46919 0.98146
v 0.85000 0.46919 1.02500
v 0.75000 0.46919 0.98146
v 0.67679 0.46919 0.86250
v 0.65000 0.46919 0.70000
v 0.67679 0.46919 0.53750
v 0.75000 0.46919 0.41854
v 0.85000 0.46919 0.37500
v 0.95000 0.46919 0.41854
v 1.02321 0.46919 0.53750
v 1.19641 0.38500 0.70000
v 1.15000 0.38500 0.98146
v 1.02321 0.38500 1.18750
v 0.85000 0.38500 1.26292
v 0.67679 0.38500 1.18750
v 0.55000 0.38500 0.98146
v 0.50359 0.38500 0.70000
v 0.55000 0.38500 0.41854
v 0.67679 0.38500 0.21250
v 0.85000 0.38500 0.13708
v 1.02321 0.38500 0.21250
v 1.15000 0.38500 0.41854
v 1.25000 0.27000 0.70000
v 1.19641 0.27000 1.02500
v 1.05000 0.27000 1.26292
v 0.85000 0.27000 1.35000
v 0.65000 0.27000 1.26292
v 0.50359 0.27000 1.02500
v 0.45000 0.27000 0.70000
v 0.50359 0.27000 0.37500
v 0.65000 0.27000 0.13708
v 0.85000 0.27000 0.05000
v 1.05000 0.27000 0.13708
v 1.19641 0.27000 0.37500
v 1.19641 0.15500 0.70000
v 1.15000 0.15500 0.98146
v 1.02321 0.15500 1.18750
v 0.85000 0.15500 1.26292
v 0.67679 0.15500 1.18750
v 0.55000 0.15500 0.98146
v 0.50359 0.15500 0.70000
v 0.55000 0.15500 0.41854
v 0.67679 0.15500 0.21250
v 0.85000 0.15500 0.13708
v 1.02321 0.15500 0.21250
v 1.15000 0.15500 0.41854
v 1.05000 0.07081 0.70000
v 1.02321 0.07081 0.86250
v 0.95000 0.07081 0.98146
v 0.85000 0.07081 1.02500
v 0.75000 0.07081 0.98146
v 0.67679 0.07081 0.86250
v 0.65000 0.07081 0.70000
v 0.67679 0.07081 0.53750
v 0.75000 0.07081 0.41854
v 0.85000 0.07081 0.37500
v 0.95000 0.07081 0.41854
v 1.02321 0.07081 0.53750
v 0.85000 0.04000 0.70000
v 0.78000 0.23000 0.40000
v 0.73500 0.15438 0.41890
v 0.64500 0.15438 0.41890
v 0.60000 0.23000 0.40000
v 0.64500 0.30562 0.38110
v 0.73500 0.30562 0.38110
v 0.71500 0.16000 0.12000
v 0.70250 0.13900 0.12525
v 0.67750 0.13900 0.12525
v 0.66500 0.16000 0.12000
v 0.67750 0.18100 0.11475
v 0.70250 0.18100 0.11475
v 0.94000 0.23000 0.40000
v 0.89500 0.15438 0.41890
v 0.80500 0.15438 0.41890
v 0.76000 0.23000 0.40000
v 0.80500 0.30562 0.38110
v 0.89500 0.30562 0.38110
v 0.87500 0.16000 0.12000
v 0.86250 0.13900 0.12525
v 0.83750 0.13900 0.12525
v 0.82500 0.16000 0.12000
v 0.83750 0.18100 0.11475
v 0.86250 0.18100 0.11475
v 1.10000 0.23000 0.40000
v 1.05500 0.15438 0.41890
v 0.96500 0.15438 0.41890
v 0.92000 0.23000 0.40000
v 0.96500 0.30562 0.38110
v 1.05500 0.30562 0.38110
v 1.03500 0.16000 0.12000
v 1.02250 0.13900 0.12525
v 0.99750 0.13900 0.12525
v 0.98500 0.16000 0.12000
v 0.99750 0.18100 0.11475
v 1.02250 0.18100 0.11475
v 0.85000 4.19000 -2.50000
v 0.95607 4.10506 -2.50000
v 0.92500 4.10506 -2.33500
v 0.85000 4.10506 -2.26665
v 0.77500 4.10506 -2.33500
v 0.74393 4.10506 -2.50000
v 0.77500 4.10506 -2.66500
v 0.85000 4.10506 -2.73335
v 0.92500 4.10506 -2.66500
v 1.00000 3.90000 -2.50000
v 0.95607 3.90000 -2.26665
v 0.85000 3.90000 -2.17000
v 0.74393 3.90000 -2.26665
v 0.70000 3.90000 -2.50000
v 0.74393 3.90000 -2.73335
v 0.85000 3.90000 -2.83000
v 0.95607 3.90000 -2.73335
v 0.95607 3.69494 -2.50000
v 0.92500 3.69494 -2.33500
v 0.85000 3.69494 -2.26665
v 0.77500 3.69494 -2.33500
v 0.74393 3.69494 -2.50000
v 0.77500 3.69494 -2.66500
v 0.85000 3.69494 -2.73335
v 0.92500 3.69494 -2.66500
v 0.85000 3.61000 -2.50000
v 0.97000 4.08000 -2.62000
v 1.01243 4.03314 -2.62000
v 1.00000 4.03314 -2.55000
v 0.97000 4.03314 -2.52101
v 0.94000 4.03314 -2.55000
v 0.92757 4.03314 -2.62000
v 0.94000 4.03314 -2.69000
v 0.97000 4.03314 -2.71899
v 1.00000 4.03314 -2.69000
v 1.03000 3.92000 -2.62000
v 1.01243 3.92000 -2.52101
v 0.97000 3.92000 -2.48000
v 0.92757 3.92000 -2.52101
v 0.91000 3.92000 -2.62000
v 0.92757 3.92000 -2.71899
v 0.97000 3.92000 -2.76000
v 1.01243 3.92000 -2.71899
v 1.01243 3.80686 -2.62000
v 1.00000 3.80686 -2.55000
v 0.97000 3.80686 -2.52101
v 0.94000 3.80686 -2.55000
v 0.92757 3.80686 -2.62000
v 0.94000 3.80686 -2.69000
v 0.97000 3.80686 -2.71899
v 1.00000 3.80686 -2.69000
v 0.97000 3.76000 -2.62000
v 0.98000 4.04000 -2.68000
v 1.00165 4.01500 -2.68000
v 0.99083 4.01500 -2.65000
v 0.96917 4.01500 -2.65000
v 0.95835 4.01500 -2.68000
v 0.96917 4.01500 -2.71000
v 0.99083 4.01500 -2.71000
v 1.00165 3.96500 -2.68000
v 0.99083 3.96500 -2.65000
v 0.96917 3.96500 -2.65000
v 0.95835 3.96500 -2.68000
v 0.96917 3.96500 -2.71000
v 0.99083 3.96500 -2.71000
v 0.98000 3.94000 -2.68000
v 0.39000 3.69500 -3.46000
v 0.45062 3.66250 -3.46000
v 0.42031 3.66250 -3.43375
v 0.35969 3.66250 -3.43375
v 0.32938 3.66250 -3.46000
v 0.35969 3.66250 -3.48625
v 0.42031 3.66250 -3.48625
v 0.45062 3.59750 -3.46000
v 0.42031 3.59750 -3.43375
v 0.35969 3.59750 -3.43375
v 0.32938 3.59750 -3.46000
v 0.35969 3.59750 -3.48625
v 0.42031 3.59750 -3.48625
v 0.39000 3.56500 -3.46000
v 0.76916 4.10000 -2.18082
v 0.73326 3.99023 -2.25257
v 0.62736 3.92238 -2.30424
v 0.49191 3.92238 -2.31609
v 0.37865 3.99023 -2.28360
v 0.33084 4.10000 -2.21918
v 0.36674 4.20977 -2.14743
v 0.47264 4.27762 -2.09576
v 0.60809 4.27762 -2.08391
v 0.72135 4.20977 -2.11640
v 0.75989 4.60000 -3.00560
v 0.73223 4.52118 -3.02814
v 0.66170 4.47246 -3.03993
v 0.57524 4.47246 -3.03647
v 0.50588 4.52118 -3.01908
v 0.48011 4.60000 -2.99440
v 0.50777 4.67882 -2.97186
v 0.57830 4.72754 -2.96007
v 0.66476 4.72754 -2.96353
v 0.73412 4.67882 -2.98092
v 0.61499 4.75000 -3.50060
v 0.61202 4.74155 -3.50301
v 0.60447 4.73633 -3.50428
v 0.59520 4.73633 -3.50391
v 0.58777 4.74155 -3.50204
v 0.58501 4.75000 -3.49940
v 0.58798 4.75845 -3.49699
v 0.59553 4.76367 -3.49572
v 0.60480 4.76367 -3.49609
v 0.61223 4.75845 -3.49796
v 0.00000 5.25000 -1.25000
v 0.77500 5.06913 -1.25000
v 0.67117 5.06913 -1.18000
v 0.38750 5.06913 -1.12876
v 0.00000 5.06913 -1.11000
v -0.38750 5.06913 -1.12876
v -0.67117 5.06913 -1.18000
v -0.77500 5.06913 -1.25000
v -0.67117 5.06913 -1.32000
v -0.38750 5.06913 -1.37124
v -0.00000 5.06913 -1.39000
v 0.38750 5.06913 -1.37124
v 0.67117 5.06913 -1.32000
v 1.34234 4.57500 -1.25000
v 1.16250 4.57500 -1.12876
v 0.67117 4.57500 -1.04000
v 0.00000 4.57500 -1.00751
v -0.67117 4.57500 -1.04000
v -1.16250 4.57500 -1.12876
v -1.34234 4.57500 -1.25000
v -1.16250 4.57500 -1.37124
v -0.67117 4.57500 -1.46000
v -0.00000 4.57500 -1.49249
v 0.67117 4.57500 -1.46000
v 1.16250 4.57500 -1.37124
v 1.55000 3.90000 -1.25000
v 1.34234 3.90000 -1.11000
v 0.77500 3.90000 -1.00751
v 0.00000 3.90000 -0.97000
v -0.77500 3.90000 -1.00751
v -1.34234 3.90000 -1.11000
v -1.55000 3.90000 -1.25000
v -1.34234 3.90000 -1.39000
v -0.77500 3.90000 -1.49249
v -0.00000 3.90000 -1.53000
v 0.77500 3.90000 -1.49249
v 1.34234 3.90000 -1.39000
v 1.34234 3.22500 -1.25000
v 1.16250 3.22500 -1.12876
v 0.67117 3.22500 -1.04000
v 0.00000 3.22500 -1.00751
v -0.67117 3.22500 -1.04000
v -1.16250 3.22500 -1.12876
v -1.34234 3.22500 -1.25000
v -1.16250 3.22500 -1.37124
v -0.67117 3.22500 -1.46000
v -0.00000 3.22500 -1.49249
v 0.67117 3.22500 -1.46000
v 1.16250 3.22500 -1.37124
v 0.77500 2.73087 -1.25000
v 0.67117 2.73087 -1.18000
v 0.38750 2.73087 -1.12876
v 0.00000 2.73087 -1.11000
v -0.38750 2.73087 -1.12876
v -0.67117 2.73087 -1.18000
v -0.77500 2.73087 -1.25000
v -0.67117 2.73087 -1.32000
v -0.38750 2.73087 -1.37124
v -0.00000 2.73087 -1.39000
v 0.38750 2.73087 -1.37124
v 0.67117 2.73087 -1.32000
v 0.00000 2.55000 -1.25000
v 1.45000 4.14000 -1.32000
v 1.60556 4.06971 -1.32000
v 1.56000 4.06971 -1.22000
v 1.45000 4.06971 -1.17858
v 1.34000 4.06971 -1.22000
v 1.29444 4.06971 -1.32000
v 1.34000 4.06971 -1.42000
v 1.45000 4.06971 -1.46142
v 1.56000 4.06971 -1.42000
v 1.67000 3.90000 -1.32000
v 1.60556 3.90000 -1.17858
v 1.45000 3.90000 -1.12000
v 1.29444 3.90000 -1.17858
v 1.23000 3.90000 -1.32000
v 1.29444 3.90000 -1.46142
v 1.45000 3.90000 -1.52000
v 1.60556 3.90000 -1.46142
v 1.60556 3.73029 -1.32000
v 1.56000 3.73029 -1.22000
v 1.45000 3.73029 -1.17858
v 1.34000 3.73029 -1.22000
v 1.29444 3.73029 -1.32000
v 1.34000 3.73029 -1.42000
v 1.45000 3.73029 -1.46142
v 1.56000 3.73029 -1.42000
v 1.45000 3.66000 -1.32000
v 1.25574 4.76500 -1.32000
v 1.41130 4.69471 -1.32000
v 1.36574 4.69471 -1.22000
v 1.25574 4.69471 -1.17858
v 1.14574 4.69471 -1.22000
v 1.10017 4.69471 -1.32000
v 1.14574 4.69471 -1.42000
v 1.25574 4.69471 -1.46142
v 1.36574 4.69471 -1.42000
v 1.47574 4.52500 -1.32000
v 1.41130 4.52500 -1.17858
v 1.25574 4.52500 -1.12000
v 1.10017 4.52500 -1.17858
v 1.03574 4.52500 -1.32000
v 1.10017 4.52500 -1.46142
v 1.25574 4.52500 -1.52000
v 1.41130 4.52500 -1.46142
v 1.41130 4.35529 -1.32000
v 1.36574 4.35529 -1.22000
v 1.25574 4.35529 -1.17858
v 1.14574 4.35529 -1.22000
v 1.10017 4.35529 -1.32000
v 1.14574 4.35529 -1.42000
v 1.25574 4.35529 -1.46142
v 1.36574 4.35529 -1.42000
v 1.25574 4.28500 -1.32000
v 0.72500 5.22253 -1.32000
v 0.88056 5.15224 -1.32000
v 0.83500 5.15224 -1.22000
v 0.72500 5.15224 -1.17858
v 0.61500 5.15224 -1.22000
v 0.56944 5.15224 -1.32000
v 0.61500 5.15224 -1.42000
v 0.72500 5.15224 -1.46142
v 0.83500 5.15224 -1.42000
v 0.94500 4.98253 -1.32000
v 0.88056 4.98253 -1.17858
v 0.72500 4.98253 -1.12000
v 0.56944 4.98253 -1.17858
v 0.50500 4.98253 -1.32000
v 0.56944 4.98253 -1.46142
v 0.72500 4.98253 -1.52000
v 0.88056 4.98253 -1.46142
v 0.88056 4.81283 -1.32000
v 0.83500 4.81283 -1.22000
v 0.72500 4.81283 -1.17858
v 0.61500 4.81283 -1.22000
v 0.56944 4.81283 -1.32000
v 0.61500 4.81283 -1.42000
v 0.72500 4.81283 -1.46142
v 0.83500 4.81283 -1.42000
v 0.72500 4.74253 -1.32000
v 0.00000 5.39000 -1.32000
v 0.15556 5.31971 -1.32000
v 0.11000 5.31971 -1.22000
v 0.00000 5.31971 -1.17858
v -0.11000 5.31971 -1.22000
v -0.15556 5.31971 -1.32000
v -0.11000 5.31971 -1.42000
v 0.00000 5.31971 -1.46142
v 0.11000 5.31971 -1.42000
v 0.22000 5.15000 -1.32000
v 0.15556 5.15000 -1.17858
v 0.00000 5.15000 -1.12000
v -0.15556 5.15000 -1.17858
v -0.22000 5.15000 -1.32000
v -0.15556 5.15000 -1.46142
v 0.00000 5.15000 -1.52000
v 0.15556 5.15000 -1.46142
v 0.15556 4.98029 -1.32000
v 0.11000 4.98029 -1.22000
v 0.00000 4.98029 -1.17858
v -0.11000 4.98029 -1.22000
v -0.15556 4.98029 -1.32000
v -0.11000 4.98029 -1.42000
v 0.00000 4.98029 -1.46142
v 0.11000 4.98029 -1.42000
v 0.00000 4.91000 -1.32000
v -0.72500 5.22253 -1.32000
v -0.56944 5.15224 -1.32000
v -0.61500 5.15224 -1.22000
v -0.72500 5.15224 -1.17858
v -0.83500 5.15224 -1.22000
v -0.88056 5.15224 -1.32000
v -0.83500 5.15224 -1.42000
v -0.72500 5.15224 -1.46142
v -0.61500 5.15224 -1.42000
v -0.50500 4.98253 -1.32000
v -0.56944 4.98253 -1.17858
v -0.72500 4.98253 -1.12000
v -0.88056 4.98253 -1.17858
v -0.94500 4.98253 -1.32000
v -0.88056 4.98253 -1.46142
v -0.72500 4.98253 -1.52000
v -0.56944 4.98253 -1.46142
v -0.56944 4.81283 -1.32000
v -0.61500 4.81283 -1.22000
v -0.72500 4.81283 -1.17858
v -0.83500 4.81283 -1.22000
v -0.88056 4.81283 -1.32000
v -0.83500 4.81283 -1.42000
v -0.72500 4.81283 -1.46142
v -0.61500 4.81283 -1.42000
v -0.72500 4.74253 -1.32000
v -1.25574 4.76500 -1.32000
v -1.10017 4.69471 -1.32000
v -1.14574 4.69471 -1.22000
v -1.25574 4.69471 -1.17858
v -1.36574 4.69471 -1.22000
v -1.41130 4.69471 -1.32000
v -1.36574 4.69471 -1.42000
v -1.25574 4.69471 -1.46142
v -1.14574 4.69471 -1.42000
v -1.03574 4.52500 -1.32000
v -1.10017 4.52500 -1.17858
v -1.25574 4.52500 -1.12000
v -1.41130 4.52500 -1.17858
v -1.47574 4.52500 -1.32000
v -1.41130 4.52500 -1.46142
v -1.25574 4.52500 -1.52000
v -1.10017 4.52500 -1.46142
v -1.10017 4.35529 -1.32000
v -1.14574 4.35529 -1.22000
v -1.25574 4.35529 -1.17858
v -1.36574 4.35529 -1.22000
v -1.41130 4.35529 -1.32000
v -1.36574 4.35529 -1.42000
v -1.25574 4.35529 -1.46142
v -1.14574 4.35529 -1.42000
v -1.25574 4.28500 -1.32000
v -1.45000 4.14000 -1.32000
v -1.29444 4.06971 -1.32000
v -1.34000 4.06971 -1.22000
v -1.45000 4.06971 -1.17858
v -1.56000 4.06971 -1.22000
v -1.60556 4.06971 -1.32000
v -1.56000 4.06971 -1.42000
v -1.45000 4.06971 -1.46142
v -1.34000 4.06971 -1.42000
v -1.23000 3.90000 -1.32000
v -1.29444 3.90000 -1.17858
v -1.45000 3.90000 -1.12000
v -1.60556 3.90000 -1.17858
v -1.67000 3.90000 -1.32000
v -1.60556 3.90000 -1.46142
v -1.45000 3.90000 -1.52000
v -1.29444 3.90000 -1.46142
v -1.29444 3.73029 -1.32000
v -1.34000 3.73029 -1.22000
v -1.45000 3.73029 -1.17858
v -1.56000 3.73029 -1.22000
v -1.60556 3.73029 -1.32000
v -1.56000 3.73029 -1.42000
v -1.45000 3.73029 -1.46142
v -1.34000 3.73029 -1.42000
v -1.45000 3.66000 -1.32000
v 0.18000 3.60000 -3.10000
v 0.14562 3.52971 -3.17908
v 0.05562 3.48627 -3.22795
v -0.05562 3.48627 -3.22795
v -0.14562 3.52971 -3.17908
v -0.18000 3.60000 -3.10000
v -0.14562 3.67029 -3.02092
v -0.05562 3.71373 -2.97205
v 0.05562 3.71373 -2.97205
v 0.14562 3.67029 -3.02092
v 0.01000 4.05000 -3.50000
v 0.00809 4.04609 -3.50439
v 0.00309 4.04368 -3.50711
v -0.00309 4.04368 -3.50711
v -0.00809 4.04609 -3.50439
v -0.01000 4.05000 -3.50000
v -0.00809 4.05391 -3.49561
v -0.00309 4.05632 -3.49289
v 0.00309 4.05632 -3.49289
v 0.00809 4.05391 -3.49561
usemtl m568FC0
f 1 3 2
f 1 4 3
f 1 5 4
f 1 6 5
f 1 7 6
f 1 8 7
f 1 9 8
f 1 10 9
f 1 11 10
f 1 12 11
f 1 13 12
f 1 2 13
f 2 3 14
f 3 15 14
f 3 4 15
f 4 16 15
f 4 5 16
f 5 17 16
f 5 6 17
f 6 18 17
f 6 7 18
f 7 19 18
f 7 8 19
f 8 20 19
f 8 9 20
f 9 21 20
f 9 10 21
f 10 22 21
f 10 11 22
f 11 23 22
f 11 12 23
f 12 24 23
f 12 13 24
f 13 25 24
f 13 2 25
f 2 14 25
f 14 15 26
f 15 27 26
f 15 16 27
f 16 28 27
f 16 17 28
f 17 29 28
f 17 18 29
f 18 30 29
f 18 19 30
f 19 31 30
f 19 20 31
f 20 32 31
f 20 21 32
f 21 33 32
f 21 22 33
f 22 34 33
f 22 23 34
f 23 35 34
f 23 24 35
f 24 36 35
f 24 25 36
f 25 37 36
f 25 14 37
f 14 26 37
f 26 27 38
f 27 39 38
f 27 28 39
f 28 40 39
f 28 29 40
f 29 41 40
f 29 30 41
f 30 42 41
f 30 31 42
f 31 43 42
f 31 32 43
f 32 44 43
f 32 33 44
f 33 45 44
f 33 34 45
f 34 46 45
f 34 35 46
f 35 47 46
f 35 36 47
f 36 48 47
f 36 37 48
f 37 49 48
f 37 26 49
f 26 38 49
f 38 39 50
f 39 51 50
f 39 40 51
f 40 52 51
f 40 41 52
f 41 53 52
f 41 42 53
f 42 54 53
f 42 43 54
f 43 55 54
f 43 44 55
f 44 56 55
f 44 45 56
f 45 57 56
f 45 46 57
f 46 58 57
f 46 47 58
f 47 59 58
f 47 48 59
f 48 60 59
f 48 49 60
f 49 61 60
f 49 38 61
f 38 50 61
f 50 51 62
f 51 52 62
f 52 53 62
f 53 54 62
f 54 55 62
f 55 56 62
f 56 57 62
f 57 58 62
f 58 59 62
f 59 60 62
f 60 61 62
f 61 50 62
usemtl mB3D5E5
f 63 65 64
f 63 66 65
f 63 67 66
f 63 68 67
f 63 69 68
f 63 70 69
f 63 71 70
f 63 72 71
f 63 73 72
f 63 74 73
f 63 75 74
f 63 64 75
f 64 65 76
f 65 77 76
f 65 66 77
f 66 78 77
f 66 67 78
f 67 79 78
f 67 68 79
f 68 80 79
f 68 69 80
f 69 81 80
f 69 70 81
f 70 82 81
f 70 71 82
f 71 83 82
f 71 72 83
f 72 84 83
f 72 73 84
f 73 85 84
f 73 74 85
f 74 86 85
f 74 75 86
f 75 87 86
f 75 64 87
f 64 76 87
f 76 77 88
f 77 89 88
f 77 78 89
f 78 90 89
f 78 79 90
f 79 91 90
f 79 80 91
f 80 92 91
f 80 81 92
f 81 93 92
f 81 82 93
f 82 94 93
f 82 83 94
f 83 95 94
f 83 84 95
f 84 96 95
f 84 85 96
f 85 97 96
f 85 86 97
f 86 98 97
f 86 87 98
f 87 99 98
f 87 76 99
f 76 88 99
f 88 89 100
f 89 101 100
f 89 90 101
f 90 102 101
f 90 91 102
f 91 103 102
f 91 92 103
f 92 104 103
f 92 93 104
f 93 105 104
f 93 94 105
f 94 106 105
f 94 95 106
f 95 107 106
f 95 96 107
f 96 108 107
f 96 97 108
f 97 109 108
f 97 98 109
f 98 110 109
f 98 99 110
f 99 111 110
f 99 88 111
f 88 100 111
f 100 101 112
f 101 113 112
f 101 102 113
f 102 114 113
f 102 103 114
f 103 115 114
f 103 104 115
f 104 116 115
f 104 105 116
f 105 117 116
f 105 106 117
f 106 118 117
f 106 107 118
f 107 119 118
f 107 108 119
f 108 120 119
f 108 109 120
f 109 121 120
f 109 110 121
f 110 122 121
f 110 111 122
f 111 123 122
f 111 100 123
f 100 112 123
f 112 113 124
f 113 114 124
f 114 115 124
f 115 116 124
f 116 117 124
f 117 118 124
f 118 119 124
f 119 120 124
f 120 121 124
f 121 122 124
f 122 123 124
f 123 112 124
usemtl m568FC0
f 125 126 135
f 126 136 135
f 126 127 136
f 127 137 136
f 127 128 137
f 128 138 137
f 128 129 138
f 129 139 138
f 129 130 139
f 130 140 139
f 130 131 140
f 131 141 140
f 131 132 141
f 132 142 141
f 132 133 142
f 133 143 142
f 133 134 143
f 134 144 143
f 134 125 144
f 125 135 144
f 135 136 145
f 136 146 145
f 136 137 146
f 137 147 146
f 137 138 147
f 138 148 147
f 138 139 148
f 139 149 148
f 139 140 149
f 140 150 149
f 140 141 150
f 141 151 150
f 141 142 151
f 142 152 151
f 142 143 152
f 143 153 152
f 143 144 153
f 144 154 153
f 144 135 154
f 135 145 154
f 125 127 126
f 145 146 147
f 125 128 127
f 145 147 148
f 125 129 128
f 145 148 149
f 125 130 129
f 145 149 150
f 125 131 130
f 145 150 151
f 125 132 131
f 145 151 152
f 125 133 132
f 145 152 153
f 125 134 133
f 145 153 154
f 155 157 156
f 155 158 157
f 155 159 158
f 155 160 159
f 155 161 160
f 155 162 161
f 155 163 162
f 155 164 163
f 155 165 164
f 155 166 165
f 155 167 166
f 155 156 167
f 156 157 168
f 157 169 168
f 157 158 169
f 158 170 169
f 158 159 170
f 159 171 170
f 159 160 171
f 160 172 171
f 160 161 172
f 161 173 172
f 161 162 173
f 162 174 173
f 162 163 174
f 163 175 174
f 163 164 175
f 164 176 175
f 164 165 176
f 165 177 176
f 165 166 177
f 166 178 177
f 166 167 178
f 167 179 178
f 167 156 179
f 156 168 179
f 168 169 180
f 169 181 180
f 169 170 181
f 170 182 181
f 170 171 182
f 171 183 182
f 171 172 183
f 172 184 183
f 172 173 184
f 173 185 184
f 173 174 185
f 174 186 185
f 174 175 186
f 175 187 186
f 175 176 187
f 176 188 187
f 176 177 188
f 177 189 188
f 177 178 189
f 178 190 189
f 178 179 190
f 179 191 190
f 179 168 191
f 168 180 191
f 180 181 192
f 181 193 192
f 181 182 193
f 182 194 193
f 182 183 194
f 183 195 194
f 183 184 195
f 184 196 195
f 184 185 196
f 185 197 196
f 185 186 197
f 186 198 197
f 186 187 198
f 187 199 198
f 187 188 199
f 188 200 199
f 188 189 200
f 189 201 200
f 189 190 201
f 190 202 201
f 190 191 202
f 191 203 202
f 191 180 203
f 180 192 203
f 192 193 204
f 193 205 204
f 193 194 205
f 194 206 205
f 194 195 206
f 195 207 206
f 195 196 207
f 196 208 207
f 196 197 208
f 197 209 208
f 197 198 209
f 198 210 209
f 198 199 210
f 199 211 210
f 199 200 211
f 200 212 211
f 200 201 212
f 201 213 212
f 201 202 213
f 202 214 213
f 202 203 214
f 203 215 214
f 203 192 215
f 192 204 215
f 204 205 216
f 205 206 216
f 206 207 216
f 207 208 216
f 208 209 216
f 209 210 216
f 210 211 216
f 211 212 216
f 212 213 216
f 213 214 216
f 214 215 216
f 215 204 216
usemtl mB3D5E5
f 217 219 218
f 217 220 219
f 217 221 220
f 217 222 221
f 217 223 222
f 217 224 223
f 217 225 224
f 217 226 225
f 217 227 226
f 217 228 227
f 217 229 228
f 217 218 229
f 218 219 230
f 219 231 230
f 219 220 231
f 220 232 231
f 220 221 232
f 221 233 232
f 221 222 233
f 222 234 233
f 222 223 234
f 223 235 234
f 223 224 235
f 224 236 235
f 224 225 236
f 225 237 236
f 225 226 237
f 226 238 237
f 226 227 238
f 227 239 238
f 227 228 239
f 228 240 239
f 228 229 240
f 229 241 240
f 229 218 241
f 218 230 241
f 230 231 242
f 231 243 242
f 231 232 243
f 232 244 243
f 232 233 244
f 233 245 244
f 233 234 245
f 234 246 245
f 234 235 246
f 235 247 246
f 235 236 247
f 236 248 247
f 236 237 248
f 237 249 248
f 237 238 249
f 238 250 249
f 238 239 250
f 239 251 250
f 239 240 251
f 240 252 251
f 240 241 252
f 241 253 252
f 241 230 253
f 230 242 253
f 242 243 254
f 243 255 254
f 243 244 255
f 244 256 255
f 244 245 256
f 245 257 256
f 245 246 257
f 246 258 257
f 246 247 258
f 247 259 258
f 247 248 259
f 248 260 259
f 248 249 260
f 249 261 260
f 249 250 261
f 250 262 261
f 250 251 262
f 251 263 262
f 251 252 263
f 252 264 263
f 252 253 264
f 253 265 264
f 253 242 265
f 242 254 265
f 254 255 266
f 255 267 266
f 255 256 267
f 256 268 267
f 256 257 268
f 257 269 268
f 257 258 269
f 258 270 269
f 258 259 270
f 259 271 270
f 259 260 271
f 260 272 271
f 260 261 272
f 261 273 272
f 261 262 273
f 262 274 273
f 262 263 274
f 263 275 274
f 263 264 275
f 264 276 275
f 264 265 276
f 265 277 276
f 265 254 277
f 254 266 277
f 266 267 278
f 267 268 278
f 268 269 278
f 269 270 278
f 270 271 278
f 271 272 278
f 272 273 278
f 273 274 278
f 274 275 278
f 275 276 278
f 276 277 278
f 277 266 278
usemtl m375E88
f 279 281 280
f 279 282 281
f 279 283 282
f 279 284 283
f 279 285 284
f 279 286 285
f 279 287 286
f 279 288 287
f 279 289 288
f 279 290 289
f 279 291 290
f 279 280 291
f 280 281 292
f 281 293 292
f 281 282 293
f 282 294 293
f 282 283 294
f 283 295 294
f 283 284 295
f 284 296 295
f 284 285 296
f 285 297 296
f 285 286 297
f 286 298 297
f 286 287 298
f 287 299 298
f 287 288 299
f 288 300 299
f 288 289 300
f 289 301 300
f 289 290 301
f 290 302 301
f 290 291 302
f 291 303 302
f 291 280 303
f 280 292 303
f 292 293 304
f 293 305 304
f 293 294 305
f 294 306 305
f 294 295 306
f 295 307 306
f 295 296 307
f 296 308 307
f 296 297 308
f 297 309 308
f 297 298 309
f 298 310 309
f 298 299 310
f 299 311 310
f 299 300 311
f 300 312 311
f 300 301 312
f 301 313 312
f 301 302 313
f 302 314 313
f 302 303 314
f 303 315 314
f 303 292 315
f 292 304 315
f 304 305 316
f 305 317 316
f 305 306 317
f 306 318 317
f 306 307 318
f 307 319 318
f 307 308 319
f 308 320 319
f 308 309 320
f 309 321 320
f 309 310 321
f 310 322 321
f 310 311 322
f 311 323 322
f 311 312 323
f 312 324 323
f 312 313 324
f 313 325 324
f 313 314 325
f 314 326 325
f 314 315 326
f 315 327 326
f 315 304 327
f 304 316 327
f 316 317 328
f 317 329 328
f 317 318 329
f 318 330 329
f 318 319 330
f 319 331 330
f 319 320 331
f 320 332 331
f 320 321 332
f 321 333 332
f 321 322 333
f 322 334 333
f 322 323 334
f 323 335 334
f 323 324 335
f 324 336 335
f 324 325 336
f 325 337 336
f 325 326 337
f 326 338 337
f 326 327 338
f 327 339 338
f 327 316 339
f 316 328 339
f 328 329 340
f 329 330 340
f 330 331 340
f 331 332 340
f 332 333 340
f 333 334 340
f 334 335 340
f 335 336 340
f 336 337 340
f 337 338 340
f 338 339 340
f 339 328 340
usemtl m568FC0
f 341 342 351
f 342 352 351
f 342 343 352
f 343 353 352
f 343 344 353
f 344 354 353
f 344 345 354
f 345 355 354
f 345 346 355
f 346 356 355
f 346 347 356
f 347 357 356
f 347 348 357
f 348 358 357
f 348 349 358
f 349 359 358
f 349 350 359
f 350 360 359
f 350 341 360
f 341 351 360
f 351 352 361
f 352 362 361
f 352 353 362
f 353 363 362
f 353 354 363
f 354 364 363
f 354 355 364
f 355 365 364
f 355 356 365
f 356 366 365
f 356 357 366
f 357 367 366
f 357 358 367
f 358 368 367
f 358 359 368
f 359 369 368
f 359 360 369
f 360 370 369
f 360 351 370
f 351 361 370
f 361 362 371
f 362 372 371
f 362 363 372
f 363 373 372
f 363 364 373
f 364 374 373
f 364 365 374
f 365 375 374
f 365 366 375
f 366 376 375
f 366 367 376
f 367 377 376
f 367 368 377
f 368 378 377
f 368 369 378
f 369 379 378
f 369 370 379
f 370 380 379
f 370 361 380
f 361 371 380
f 341 343 342
f 371 372 373
f 341 344 343
f 371 373 374
f 341 345 344
f 371 374 375
f 341 346 345
f 371 375 376
f 341 347 346
f 371 376 377
f 341 348 347
f 371 377 378
f 341 349 348
f 371 378 379
f 341 350 349
f 371 379 380
usemtl m375E88
f 381 383 382
f 381 384 383
f 381 385 384
f 381 386 385
f 381 387 386
f 381 388 387
f 381 389 388
f 381 390 389
f 381 391 390
f 381 392 391
f 381 393 392
f 381 382 393
f 382 383 394
f 383 395 394
f 383 384 395
f 384 396 395
f 384 385 396
f 385 397 396
f 385 386 397
f 386 398 397
f 386 387 398
f 387 399 398
f 387 388 399
f 388 400 399
f 388 389 400
f 389 401 400
f 389 390 401
f 390 402 401
f 390 391 402
f 391 403 402
f 391 392 403
f 392 404 403
f 392 393 404
f 393 405 404
f 393 382 405
f 382 394 405
f 394 395 406
f 395 407 406
f 395 396 407
f 396 408 407
f 396 397 408
f 397 409 408
f 397 398 409
f 398 410 409
f 398 399 410
f 399 411 410
f 399 400 411
f 400 412 411
f 400 401 412
f 401 413 412
f 401 402 413
f 402 414 413
f 402 403 414
f 403 415 414
f 403 404 415
f 404 416 415
f 404 405 416
f 405 417 416
f 405 394 417
f 394 406 417
f 406 407 418
f 407 419 418
f 407 408 419
f 408 420 419
f 408 409 420
f 409 421 420
f 409 410 421
f 410 422 421
f 410 411 422
f 411 423 422
f 411 412 423
f 412 424 423
f 412 413 424
f 413 425 424
f 413 414 425
f 414 426 425
f 414 415 426
f 415 427 426
f 415 416 427
f 416 428 427
f 416 417 428
f 417 429 428
f 417 406 429
f 406 418 429
f 418 419 430
f 419 431 430
f 419 420 431
f 420 432 431
f 420 421 432
f 421 433 432
f 421 422 433
f 422 434 433
f 422 423 434
f 423 435 434
f 423 424 435
f 424 436 435
f 424 425 436
f 425 437 436
f 425 426 437
f 426 438 437
f 426 427 438
f 427 439 438
f 427 428 439
f 428 440 439
f 428 429 440
f 429 441 440
f 429 418 441
f 418 430 441
f 430 431 442
f 431 432 442
f 432 433 442
f 433 434 442
f 434 435 442
f 435 436 442
f 436 437 442
f 437 438 442
f 438 439 442
f 439 440 442
f 440 441 442
f 441 430 442
usemtl m568FC0
f 443 444 453
f 444 454 453
f 444 445 454
f 445 455 454
f 445 446 455
f 446 456 455
f 446 447 456
f 447 457 456
f 447 448 457
f 448 458 457
f 448 449 458
f 449 459 458
f 449 450 459
f 450 460 459
f 450 451 460
f 451 461 460
f 451 452 461
f 452 462 461
f 452 443 462
f 443 453 462
f 443 445 444
f 453 454 455
f 443 446 445
f 453 455 456
f 443 447 446
f 453 456 457
f 443 448 447
f 453 457 458
f 443 449 448
f 453 458 459
f 443 450 449
f 453 459 460
f 443 451 450
f 453 460 461
f 443 452 451
f 453 461 462
f 463 465 464
f 463 466 465
f 463 467 466
f 463 468 467
f 463 469 468
f 463 470 469
f 463 471 470
f 463 472 471
f 463 473 472
f 463 474 473
f 463 475 474
f 463 464 475
f 464 465 476
f 465 477 476
f 465 466 477
f 466 478 477
f 466 467 478
f 467 479 478
f 467 468 479
f 468 480 479
f 468 469 480
f 469 481 480
f 469 470 481
f 470 482 481
f 470 471 482
f 471 483 482
f 471 472 483
f 472 484 483
f 472 473 484
f 473 485 484
f 473 474 485
f 474 486 485
f 474 475 486
f 475 487 486
f 475 464 487
f 464 476 487
f 476 477 488
f 477 489 488
f 477 478 489
f 478 490 489
f 478 479 490
f 479 491 490
f 479 480 491
f 480 492 491
f 480 481 492
f 481 493 492
f 481 482 493
f 482 494 493
f 482 483 494
f 483 495 494
f 483 484 495
f 484 496 495
f 484 485 496
f 485 497 496
f 485 486 497
f 486 498 497
f 486 487 498
f 487 499 498
f 487 476 499
f 476 488 499
f 488 489 500
f 489 501 500
f 489 490 501
f 490 502 501
f 490 491 502
f 491 503 502
f 491 492 503
f 492 504 503
f 492 493 504
f 493 505 504
f 493 494 505
f 494 506 505
f 494 495 506
f 495 507 506
f 495 496 507
f 496 508 507
f 496 497 508
f 497 509 508
f 497 498 509
f 498 510 509
f 498 499 510
f 499 511 510
f 499 488 511
f 488 500 511
f 500 501 512
f 501 513 512
f 501 502 513
f 502 514 513
f 502 503 514
f 503 515 514
f 503 504 515
f 504 516 515
f 504 505 516
f 505 517 516
f 505 506 517
f 506 518 517
f 506 507 518
f 507 519 518
f 507 508 519
f 508 520 519
f 508 509 520
f 509 521 520
f 509 510 521
f 510 522 521
f 510 511 522
f 511 523 522
f 511 500 523
f 500 512 523
f 512 513 524
f 513 514 524
f 514 515 524
f 515 516 524
f 516 517 524
f 517 518 524
f 518 519 524
f 519 520 524
f 520 521 524
f 521 522 524
f 522 523 524
f 523 512 524
usemtl mF0E3BF
f 525 526 531
f 526 532 531
f 526 527 532
f 527 533 532
f 527 528 533
f 528 534 533
f 528 529 534
f 529 535 534
f 529 530 535
f 530 536 535
f 530 525 536
f 525 531 536
f 525 527 526
f 531 532 533
f 525 528 527
f 531 533 534
f 525 529 528
f 531 534 535
f 525 530 529
f 531 535 536
f 537 538 543
f 538 544 543
f 538 539 544
f 539 545 544
f 539 540 545
f 540 546 545
f 540 541 546
f 541 547 546
f 541 542 547
f 542 548 547
f 542 537 548
f 537 543 548
f 537 539 538
f 543 544 545
f 537 540 539
f 543 545 546
f 537 541 540
f 543 546 547
f 537 542 541
f 543 547 548
f 549 550 555
f 550 556 555
f 550 551 556
f 551 557 556
f 551 552 557
f 552 558 557
f 552 553 558
f 553 559 558
f 553 554 559
f 554 560 559
f 554 549 560
f 549 555 560
f 549 551 550
f 555 556 557
f 549 552 551
f 555 557 558
f 549 553 552
f 555 558 559
f 549 554 553
f 555 559 560
usemtl m375E88
f 561 563 562
f 561 564 563
f 561 565 564
f 561 566 565
f 561 567 566
f 561 568 567
f 561 569 568
f 561 570 569
f 561 571 570
f 561 572 571
f 561 573 572
f 561 562 573
f 562 563 574
f 563 575 574
f 563 564 575
f 564 576 575
f 564 565 576
f 565 577 576
f 565 566 577
f 566 578 577
f 566 567 578
f 567 579 578
f 567 568 579
f 568 580 579
f 568 569 580
f 569 581 580
f 569 570 581
f 570 582 581
f 570 571 582
f 571 583 582
f 571 572 583
f 572 584 583
f 572 573 584
f 573 585 584
f 573 562 585
f 562 574 585
f 574 575 586
f 575 587 586
f 575 576 587
f 576 588 587
f 576 577 588
f 577 589 588
f 577 578 589
f 578 590 589
f 578 579 590
f 579 591 590
f 579 580 591
f 580 592 591
f 580 581 592
f 581 593 592
f 581 582 593
f 582 594 593
f 582 583 594
f 583 595 594
f 583 584 595
f 584 596 595
f 584 585 596
f 585 597 596
f 585 574 597
f 574 586 597
f 586 587 598
f 587 599 598
f 587 588 599
f 588 600 599
f 588 589 600
f 589 601 600
f 589 590 601
f 590 602 601
f 590 591 602
f 591 603 602
f 591 592 603
f 592 604 603
f 592 593 604
f 593 605 604
f 593 594 605
f 594 606 605
f 594 595 606
f 595 607 606
f 595 596 607
f 596 608 607
f 596 597 608
f 597 609 608
f 597 586 609
f 586 598 609
f 598 599 610
f 599 611 610
f 599 600 611
f 600 612 611
f 600 601 612
f 601 613 612
f 601 602 613
f 602 614 613
f 602 603 614
f 603 615 614
f 603 604 615
f 604 616 615
f 604 605 616
f 605 617 616
f 605 606 617
f 606 618 617
f 606 607 618
f 607 619 618
f 607 608 619
f 608 620 619
f 608 609 620
f 609 621 620
f 609 598 621
f 598 610 621
f 610 611 622
f 611 612 622
f 612 613 622
f 613 614 622
f 614 615 622
f 615 616 622
f 616 617 622
f 617 618 622
f 618 619 622
f 619 620 622
f 620 621 622
f 621 610 622
usemtl m568FC0
f 623 624 633
f 624 634 633
f 624 625 634
f 625 635 634
f 625 626 635
f 626 636 635
f 626 627 636
f 627 637 636
f 627 628 637
f 628 638 637
f 628 629 638
f 629 639 638
f 629 630 639
f 630 640 639
f 630 631 640
f 631 641 640
f 631 632 641
f 632 642 641
f 632 623 642
f 623 633 642
f 623 625 624
f 633 634 635
f 623 626 625
f 633 635 636
f 623 627 626
f 633 636 637
f 623 628 627
f 633 637 638
f 623 629 628
f 633 638 639
f 623 630 629
f 633 639 640
f 623 631 630
f 633 640 641
f 623 632 631
f 633 641 642
f 643 645 644
f 643 646 645
f 643 647 646
f 643 648 647
f 643 649 648
f 643 650 649
f 643 651 650
f 643 652 651
f 643 653 652
f 643 654 653
f 643 655 654
f 643 644 655
f 644 645 656
f 645 657 656
f 645 646 657
f 646 658 657
f 646 647 658
f 647 659 658
f 647 648 659
f 648 660 659
f 648 649 660
f 649 661 660
f 649 650 661
f 650 662 661
f 650 651 662
f 651 663 662
f 651 652 663
f 652 664 663
f 652 653 664
f 653 665 664
f 653 654 665
f 654 666 665
f 654 655 666
f 655 667 666
f 655 644 667
f 644 656 667
f 656 657 668
f 657 669 668
f 657 658 669
f 658 670 669
f 658 659 670
f 659 671 670
f 659 660 671
f 660 672 671
f 660 661 672
f 661 673 672
f 661 662 673
f 662 674 673
f 662 663 674
f 663 675 674
f 663 664 675
f 664 676 675
f 664 665 676
f 665 677 676
f 665 666 677
f 666 678 677
f 666 667 678
f 667 679 678
f 667 656 679
f 656 668 679
f 668 669 680
f 669 681 680
f 669 670 681
f 670 682 681
f 670 671 682
f 671 683 682
f 671 672 683
f 672 684 683
f 672 673 684
f 673 685 684
f 673 674 685
f 674 686 685
f 674 675 686
f 675 687 686
f 675 676 687
f 676 688 687
f 676 677 688
f 677 689 688
f 677 678 689
f 678 690 689
f 678 679 690
f 679 691 690
f 679 668 691
f 668 680 691
f 680 681 692
f 681 693 692
f 681 682 693
f 682 694 693
f 682 683 694
f 683 695 694
f 683 684 695
f 684 696 695
f 684 685 696
f 685 697 696
f 685 686 697
f 686 698 697
f 686 687 698
f 687 699 698
f 687 688 699
f 688 700 699
f 688 689 700
f 689 701 700
f 689 690 701
f 690 702 701
f 690 691 702
f 691 703 702
f 691 680 703
f 680 692 703
f 692 693 704
f 693 694 704
f 694 695 704
f 695 696 704
f 696 697 704
f 697 698 704
f 698 699 704
f 699 700 704
f 700 701 704
f 701 702 704
f 702 703 704
f 703 692 704
usemtl mF0E3BF
f 705 706 711
f 706 712 711
f 706 707 712
f 707 713 712
f 707 708 713
f 708 714 713
f 708 709 714
f 709 715 714
f 709 710 715
f 710 716 715
f 710 705 716
f 705 711 716
f 705 707 706
f 711 712 713
f 705 708 707
f 711 713 714
f 705 709 708
f 711 714 715
f 705 710 709
f 711 715 716
f 717 718 723
f 718 724 723
f 718 719 724
f 719 725 724
f 719 720 725
f 720 726 725
f 720 721 726
f 721 727 726
f 721 722 727
f 722 728 727
f 722 717 728
f 717 723 728
f 717 719 718
f 723 724 725
f 717 720 719
f 723 725 726
f 717 721 720
f 723 726 727
f 717 722 721
f 723 727 728
f 729 730 735
f 730 736 735
f 730 731 736
f 731 737 736
f 731 732 737
f 732 738 737
f 732 733 738
f 733 739 738
f 733 734 739
f 734 740 739
f 734 729 740
f 729 735 740
f 729 731 730
f 735 736 737
f 729 732 731
f 735 737 738
f 729 733 732
f 735 738 739
f 729 734 733
f 735 739 740
usemtl mFCF4D9
f 741 743 742
f 741 744 743
f 741 745 744
f 741 746 745
f 741 747 746
f 741 748 747
f 741 749 748
f 741 742 749
f 742 743 750
f 743 751 750
f 743 744 751
f 744 752 751
f 744 745 752
f 745 753 752
f 745 746 753
f 746 754 753
f 746 747 754
f 747 755 754
f 747 748 755
f 748 756 755
f 748 749 756
f 749 757 756
f 749 742 757
f 742 750 757
f 750 751 758
f 751 759 758
f 751 752 759
f 752 760 759
f 752 753 760
f 753 761 760
f 753 754 761
f 754 762 761
f 754 755 762
f 755 763 762
f 755 756 763
f 756 764 763
f 756 757 764
f 757 765 764
f 757 750 765
f 750 758 765
f 758 759 766
f 759 760 766
f 760 761 766
f 761 762 766
f 762 763 766
f 763 764 766
f 764 765 766
f 765 758 766
usemtl m142E35
f 767 769 768
f 767 770 769
f 767 771 770
f 767 772 771
f 767 773 772
f 767 774 773
f 767 775 774
f 767 768 775
f 768 769 776
f 769 777 776
f 769 770 777
f 770 778 777
f 770 771 778
f 771 779 778
f 771 772 779
f 772 780 779
f 772 773 780
f 773 781 780
f 773 774 781
f 774 782 781
f 774 775 782
f 775 783 782
f 775 768 783
f 768 776 783
f 776 777 784
f 777 785 784
f 777 778 785
f 778 786 785
f 778 779 786
f 779 787 786
f 779 780 787
f 780 788 787
f 780 781 788
f 781 789 788
f 781 782 789
f 782 790 789
f 782 783 790
f 783 791 790
f 783 776 791
f 776 784 791
f 784 785 792
f 785 786 792
f 786 787 792
f 787 788 792
f 788 789 792
f 789 790 792
f 790 791 792
f 791 784 792
usemtl mFFFFFF
f 793 795 794
f 793 796 795
f 793 797 796
f 793 798 797
f 793 799 798
f 793 794 799
f 794 795 800
f 795 801 800
f 795 796 801
f 796 802 801
f 796 797 802
f 797 803 802
f 797 798 803
f 798 804 803
f 798 799 804
f 799 805 804
f 799 794 805
f 794 800 805
f 800 801 806
f 801 802 806
f 802 803 806
f 803 804 806
f 804 805 806
f 805 800 806
usemtl m375E88
f 807 809 808
f 807 810 809
f 807 811 810
f 807 812 811
f 807 813 812
f 807 808 813
f 808 809 814
f 809 815 814
f 809 810 815
f 810 816 815
f 810 811 816
f 811 817 816
f 811 812 817
f 812 818 817
f 812 813 818
f 813 819 818
f 813 808 819
f 808 814 819
f 814 815 820
f 815 816 820
f 816 817 820
f 817 818 820
f 818 819 820
f 819 814 820
usemtl mF0E3BF
f 821 822 831
f 822 832 831
f 822 823 832
f 823 833 832
f 823 824 833
f 824 834 833
f 824 825 834
f 825 835 834
f 825 826 835
f 826 836 835
f 826 827 836
f 827 837 836
f 827 828 837
f 828 838 837
f 828 829 838
f 829 839 838
f 829 830 839
f 830 840 839
f 830 821 840
f 821 831 840
f 831 832 841
f 832 842 841
f 832 833 842
f 833 843 842
f 833 834 843
f 834 844 843
f 834 835 844
f 835 845 844
f 835 836 845
f 836 846 845
f 836 837 846
f 837 847 846
f 837 838 847
f 838 848 847
f 838 839 848
f 839 849 848
f 839 840 849
f 840 850 849
f 840 831 850
f 831 841 850
f 821 823 822
f 841 842 843
f 821 824 823
f 841 843 844
f 821 825 824
f 841 844 845
f 821 826 825
f 841 845 846
f 821 827 826
f 841 846 847
f 821 828 827
f 841 847 848
f 821 829 828
f 841 848 849
f 821 830 829
f 841 849 850
usemtl m375E88
f 851 853 852
f 851 854 853
f 851 855 854
f 851 856 855
f 851 857 856
f 851 858 857
f 851 859 858
f 851 860 859
f 851 861 860
f 851 862 861
f 851 863 862
f 851 852 863
f 852 853 864
f 853 865 864
f 853 854 865
f 854 866 865
f 854 855 866
f 855 867 866
f 855 856 867
f 856 868 867
f 856 857 868
f 857 869 868
f 857 858 869
f 858 870 869
f 858 859 870
f 859 871 870
f 859 860 871
f 860 872 871
f 860 861 872
f 861 873 872
f 861 862 873
f 862 874 873
f 862 863 874
f 863 875 874
f 863 852 875
f 852 864 875
f 864 865 876
f 865 877 876
f 865 866 877
f 866 878 877
f 866 867 878
f 867 879 878
f 867 868 879
f 868 880 879
f 868 869 880
f 869 881 880
f 869 870 881
f 870 882 881
f 870 871 882
f 871 883 882
f 871 872 883
f 872 884 883
f 872 873 884
f 873 885 884
f 873 874 885
f 874 886 885
f 874 875 886
f 875 887 886
f 875 864 887
f 864 876 887
f 876 877 888
f 877 889 888
f 877 878 889
f 878 890 889
f 878 879 890
f 879 891 890
f 879 880 891
f 880 892 891
f 880 881 892
f 881 893 892
f 881 882 893
f 882 894 893
f 882 883 894
f 883 895 894
f 883 884 895
f 884 896 895
f 884 885 896
f 885 897 896
f 885 886 897
f 886 898 897
f 886 887 898
f 887 899 898
f 887 876 899
f 876 888 899
f 888 889 900
f 889 901 900
f 889 890 901
f 890 902 901
f 890 891 902
f 891 903 902
f 891 892 903
f 892 904 903
f 892 893 904
f 893 905 904
f 893 894 905
f 894 906 905
f 894 895 906
f 895 907 906
f 895 896 907
f 896 908 907
f 896 897 908
f 897 909 908
f 897 898 909
f 898 910 909
f 898 899 910
f 899 911 910
f 899 888 911
f 888 900 911
f 900 901 912
f 901 902 912
f 902 903 912
f 903 904 912
f 904 905 912
f 905 906 912
f 906 907 912
f 907 908 912
f 908 909 912
f 909 910 912
f 910 911 912
f 911 900 912
usemtl m568FC0
f 913 914 923
f 914 924 923
f 914 915 924
f 915 925 924
f 915 916 925
f 916 926 925
f 916 917 926
f 917 927 926
f 917 918 927
f 918 928 927
f 918 919 928
f 919 929 928
f 919 920 929
f 920 930 929
f 920 921 930
f 921 931 930
f 921 922 931
f 922 932 931
f 922 913 932
f 913 923 932
f 913 915 914
f 923 924 925
f 913 916 915
f 923 925 926
f 913 917 916
f 923 926 927
f 913 918 917
f 923 927 928
f 913 919 918
f 923 928 929
f 913 920 919
f 923 929 930
f 913 921 920
f 923 930 931
f 913 922 921
f 923 931 932
f 933 935 934
f 933 936 935
f 933 937 936
f 933 938 937
f 933 939 938
f 933 940 939
f 933 941 940
f 933 942 941
f 933 943 942
f 933 944 943
f 933 945 944
f 933 934 945
f 934 935 946
f 935 947 946
f 935 936 947
f 936 948 947
f 936 937 948
f 937 949 948
f 937 938 949
f 938 950 949
f 938 939 950
f 939 951 950
f 939 940 951
f 940 952 951
f 940 941 952
f 941 953 952
f 941 942 953
f 942 954 953
f 942 943 954
f 943 955 954
f 943 944 955
f 944 956 955
f 944 945 956
f 945 957 956
f 945 934 957
f 934 946 957
f 946 947 958
f 947 959 958
f 947 948 959
f 948 960 959
f 948 949 960
f 949 961 960
f 949 950 961
f 950 962 961
f 950 951 962
f 951 963 962
f 951 952 963
f 952 964 963
f 952 953 964
f 953 965 964
f 953 954 965
f 954 966 965
f 954 955 966
f 955 967 966
f 955 956 967
f 956 968 967
f 956 957 968
f 957 969 968
f 957 946 969
f 946 958 969
f 958 959 970
f 959 971 970
f 959 960 971
f 960 972 971
f 960 961 972
f 961 973 972
f 961 962 973
f 962 974 973
f 962 963 974
f 963 975 974
f 963 964 975
f 964 976 975
f 964 965 976
f 965 977 976
f 965 966 977
f 966 978 977
f 966 967 978
f 967 979 978
f 967 968 979
f 968 980 979
f 968 969 980
f 969 981 980
f 969 958 981
f 958 970 981
f 970 971 982
f 971 983 982
f 971 972 983
f 972 984 983
f 972 973 984
f 973 985 984
f 973 974 985
f 974 986 985
f 974 975 986
f 975 987 986
f 975 976 987
f 976 988 987
f 976 977 988
f 977 989 988
f 977 978 989
f 978 990 989
f 978 979 990
f 979 991 990
f 979 980 991
f 980 992 991
f 980 981 992
f 981 993 992
f 981 970 993
f 970 982 993
f 982 983 994
f 983 984 994
f 984 985 994
f 985 986 994
f 986 987 994
f 987 988 994
f 988 989 994
f 989 990 994
f 990 991 994
f 991 992 994
f 992 993 994
f 993 982 994
usemtl mF0E3BF
f 995 996 1001
f 996 1002 1001
f 996 997 1002
f 997 1003 1002
f 997 998 1003
f 998 1004 1003
f 998 999 1004
f 999 1005 1004
f 999 1000 1005
f 1000 1006 1005
f 1000 995 1006
f 995 1001 1006
f 995 997 996
f 1001 1002 1003
f 995 998 997
f 1001 1003 1004
f 995 999 998
f 1001 1004 1005
f 995 1000 999
f 1001 1005 1006
f 1007 1008 1013
f 1008 1014 1013
f 1008 1009 1014
f 1009 1015 1014
f 1009 1010 1015
f 1010 1016 1015
f 1010 1011 1016
f 1011 1017 1016
f 1011 1012 1017
f 1012 1018 1017
f 1012 1007 1018
f 1007 1013 1018
f 1007 1009 1008
f 1013 1014 1015
f 1007 1010 1009
f 1013 1015 1016
f 1007 1011 1010
f 1013 1016 1017
f 1007 1012 1011
f 1013 1017 1018
f 1019 1020 1025
f 1020 1026 1025
f 1020 1021 1026
f 1021 1027 1026
f 1021 1022 1027
f 1022 1028 1027
f 1022 1023 1028
f 1023 1029 1028
f 1023 1024 1029
f 1024 1030 1029
f 1024 1019 1030
f 1019 1025 1030
f 1019 1021 1020
f 1025 1026 1027
f 1019 1022 1021
f 1025 1027 1028
f 1019 1023 1022
f 1025 1028 1029
f 1019 1024 1023
f 1025 1029 1030
usemtl m375E88
f 1031 1033 1032
f 1031 1034 1033
f 1031 1035 1034
f 1031 1036 1035
f 1031 1037 1036
f 1031 1038 1037
f 1031 1039 1038
f 1031 1040 1039
f 1031 1041 1040
f 1031 1042 1041
f 1031 1043 1042
f 1031 1032 1043
f 1032 1033 1044
f 1033 1045 1044
f 1033 1034 1045
f 1034 1046 1045
f 1034 1035 1046
f 1035 1047 1046
f 1035 1036 1047
f 1036 1048 1047
f 1036 1037 1048
f 1037 1049 1048
f 1037 1038 1049
f 1038 1050 1049
f 1038 1039 1050
f 1039 1051 1050
f 1039 1040 1051
f 1040 1052 1051
f 1040 1041 1052
f 1041 1053 1052
f 1041 1042 1053
f 1042 1054 1053
f 1042 1043 1054
f 1043 1055 1054
f 1043 1032 1055
f 1032 1044 1055
f 1044 1045 1056
f 1045 1057 1056
f 1045 1046 1057
f 1046 1058 1057
f 1046 1047 1058
f 1047 1059 1058
f 1047 1048 1059
f 1048 1060 1059
f 1048 1049 1060
f 1049 1061 1060
f 1049 1050 1061
f 1050 1062 1061
f 1050 1051 1062
f 1051 1063 1062
f 1051 1052 1063
f 1052 1064 1063
f 1052 1053 1064
f 1053 1065 1064
f 1053 1054 1065
f 1054 1066 1065
f 1054 1055 1066
f 1055 1067 1066
f 1055 1044 1067
f 1044 1056 1067
f 1056 1057 1068
f 1057 1069 1068
f 1057 1058 1069
f 1058 1070 1069
f 1058 1059 1070
f 1059 1071 1070
f 1059 1060 1071
f 1060 1072 1071
f 1060 1061 1072
f 1061 1073 1072
f 1061 1062 1073
f 1062 1074 1073
f 1062 1063 1074
f 1063 1075 1074
f 1063 1064 1075
f 1064 1076 1075
f 1064 1065 1076
f 1065 1077 1076
f 1065 1066 1077
f 1066 1078 1077
f 1066 1067 1078
f 1067 1079 1078
f 1067 1056 1079
f 1056 1068 1079
f 1068 1069 1080
f 1069 1081 1080
f 1069 1070 1081
f 1070 1082 1081
f 1070 1071 1082
f 1071 1083 1082
f 1071 1072 1083
f 1072 1084 1083
f 1072 1073 1084
f 1073 1085 1084
f 1073 1074 1085
f 1074 1086 1085
f 1074 1075 1086
f 1075 1087 1086
f 1075 1076 1087
f 1076 1088 1087
f 1076 1077 1088
f 1077 1089 1088
f 1077 1078 1089
f 1078 1090 1089
f 1078 1079 1090
f 1079 1091 1090
f 1079 1068 1091
f 1068 1080 1091
f 1080 1081 1092
f 1081 1082 1092
f 1082 1083 1092
f 1083 1084 1092
f 1084 1085 1092
f 1085 1086 1092
f 1086 1087 1092
f 1087 1088 1092
f 1088 1089 1092
f 1089 1090 1092
f 1090 1091 1092
f 1091 1080 1092
usemtl m568FC0
f 1093 1094 1103
f 1094 1104 1103
f 1094 1095 1104
f 1095 1105 1104
f 1095 1096 1105
f 1096 1106 1105
f 1096 1097 1106
f 1097 1107 1106
f 1097 1098 1107
f 1098 1108 1107
f 1098 1099 1108
f 1099 1109 1108
f 1099 1100 1109
f 1100 1110 1109
f 1100 1101 1110
f 1101 1111 1110
f 1101 1102 1111
f 1102 1112 1111
f 1102 1093 1112
f 1093 1103 1112
f 1093 1095 1094
f 1103 1104 1105
f 1093 1096 1095
f 1103 1105 1106
f 1093 1097 1096
f 1103 1106 1107
f 1093 1098 1097
f 1103 1107 1108
f 1093 1099 1098
f 1103 1108 1109
f 1093 1100 1099
f 1103 1109 1110
f 1093 1101 1100
f 1103 1110 1111
f 1093 1102 1101
f 1103 1111 1112
f 1113 1115 1114
f 1113 1116 1115
f 1113 1117 1116
f 1113 1118 1117
f 1113 1119 1118
f 1113 1120 1119
f 1113 1121 1120
f 1113 1122 1121
f 1113 1123 1122
f 1113 1124 1123
f 1113 1125 1124
f 1113 1114 1125
f 1114 1115 1126
f 1115 1127 1126
f 1115 1116 1127
f 1116 1128 1127
f 1116 1117 1128
f 1117 1129 1128
f 1117 1118 1129
f 1118 1130 1129
f 1118 1119 1130
f 1119 1131 1130
f 1119 1120 1131
f 1120 1132 1131
f 1120 1121 1132
f 1121 1133 1132
f 1121 1122 1133
f 1122 1134 1133
f 1122 1123 1134
f 1123 1135 1134
f 1123 1124 1135
f 1124 1136 1135
f 1124 1125 1136
f 1125 1137 1136
f 1125 1114 1137
f 1114 1126 1137
f 1126 1127 1138
f 1127 1139 1138
f 1127 1128 1139
f 1128 1140 1139
f 1128 1129 1140
f 1129 1141 1140
f 1129 1130 1141
f 1130 1142 1141
f 1130 1131 1142
f 1131 1143 1142
f 1131 1132 1143
f 1132 1144 1143
f 1132 1133 1144
f 1133 1145 1144
f 1133 1134 1145
f 1134 1146 1145
f 1134 1135 1146
f 1135 1147 1146
f 1135 1136 1147
f 1136 1148 1147
f 1136 1137 1148
f 1137 1149 1148
f 1137 1126 1149
f 1126 1138 1149
f 1138 1139 1150
f 1139 1151 1150
f 1139 1140 1151
f 1140 1152 1151
f 1140 1141 1152
f 1141 1153 1152
f 1141 1142 1153
f 1142 1154 1153
f 1142 1143 1154
f 1143 1155 1154
f 1143 1144 1155
f 1144 1156 1155
f 1144 1145 1156
f 1145 1157 1156
f 1145 1146 1157
f 1146 1158 1157
f 1146 1147 1158
f 1147 1159 1158
f 1147 1148 1159
f 1148 1160 1159
f 1148 1149 1160
f 1149 1161 1160
f 1149 1138 1161
f 1138 1150 1161
f 1150 1151 1162
f 1151 1163 1162
f 1151 1152 1163
f 1152 1164 1163
f 1152 1153 1164
f 1153 1165 1164
f 1153 1154 1165
f 1154 1166 1165
f 1154 1155 1166
f 1155 1167 1166
f 1155 1156 1167
f 1156 1168 1167
f 1156 1157 1168
f 1157 1169 1168
f 1157 1158 1169
f 1158 1170 1169
f 1158 1159 1170
f 1159 1171 1170
f 1159 1160 1171
f 1160 1172 1171
f 1160 1161 1172
f 1161 1173 1172
f 1161 1150 1173
f 1150 1162 1173
f 1162 1163 1174
f 1163 1164 1174
f 1164 1165 1174
f 1165 1166 1174
f 1166 1167 1174
f 1167 1168 1174
f 1168 1169 1174
f 1169 1170 1174
f 1170 1171 1174
f 1171 1172 1174
f 1172 1173 1174
f 1173 1162 1174
usemtl mF0E3BF
f 1175 1176 1181
f 1176 1182 1181
f 1176 1177 1182
f 1177 1183 1182
f 1177 1178 1183
f 1178 1184 1183
f 1178 1179 1184
f 1179 1185 1184
f 1179 1180 1185
f 1180 1186 1185
f 1180 1175 1186
f 1175 1181 1186
f 1175 1177 1176
f 1181 1182 1183
f 1175 1178 1177
f 1181 1183 1184
f 1175 1179 1178
f 1181 1184 1185
f 1175 1180 1179
f 1181 1185 1186
f 1187 1188 1193
f 1188 1194 1193
f 1188 1189 1194
f 1189 1195 1194
f 1189 1190 1195
f 1190 1196 1195
f 1190 1191 1196
f 1191 1197 1196
f 1191 1192 1197
f 1192 1198 1197
f 1192 1187 1198
f 1187 1193 1198
f 1187 1189 1188
f 1193 1194 1195
f 1187 1190 1189
f 1193 1195 1196
f 1187 1191 1190
f 1193 1196 1197
f 1187 1192 1191
f 1193 1197 1198
f 1199 1200 1205
f 1200 1206 1205
f 1200 1201 1206
f 1201 1207 1206
f 1201 1202 1207
f 1202 1208 1207
f 1202 1203 1208
f 1203 1209 1208
f 1203 1204 1209
f 1204 1210 1209
f 1204 1199 1210
f 1199 1205 1210
f 1199 1201 1200
f 1205 1206 1207
f 1199 1202 1201
f 1205 1207 1208
f 1199 1203 1202
f 1205 1208 1209
f 1199 1204 1203
f 1205 1209 1210
usemtl mFCF4D9
f 1211 1213 1212
f 1211 1214 1213
f 1211 1215 1214
f 1211 1216 1215
f 1211 1217 1216
f 1211 1218 1217
f 1211 1219 1218
f 1211 1212 1219
f 1212 1213 1220
f 1213 1221 1220
f 1213 1214 1221
f 1214 1222 1221
f 1214 1215 1222
f 1215 1223 1222
f 1215 1216 1223
f 1216 1224 1223
f 1216 1217 1224
f 1217 1225 1224
f 1217 1218 1225
f 1218 1226 1225
f 1218 1219 1226
f 1219 1227 1226
f 1219 1212 1227
f 1212 1220 1227
f 1220 1221 1228
f 1221 1229 1228
f 1221 1222 1229
f 1222 1230 1229
f 1222 1223 1230
f 1223 1231 1230
f 1223 1224 1231
f 1224 1232 1231
f 1224 1225 1232
f 1225 1233 1232
f 1225 1226 1233
f 1226 1234 1233
f 1226 1227 1234
f 1227 1235 1234
f 1227 1220 1235
f 1220 1228 1235
f 1228 1229 1236
f 1229 1230 1236
f 1230 1231 1236
f 1231 1232 1236
f 1232 1233 1236
f 1233 1234 1236
f 1234 1235 1236
f 1235 1228 1236
usemtl m142E35
f 1237 1239 1238
f 1237 1240 1239
f 1237 1241 1240
f 1237 1242 1241
f 1237 1243 1242
f 1237 1244 1243
f 1237 1245 1244
f 1237 1238 1245
f 1238 1239 1246
f 1239 1247 1246
f 1239 1240 1247
f 1240 1248 1247
f 1240 1241 1248
f 1241 1249 1248
f 1241 1242 1249
f 1242 1250 1249
f 1242 1243 1250
f 1243 1251 1250
f 1243 1244 1251
f 1244 1252 1251
f 1244 1245 1252
f 1245 1253 1252
f 1245 1238 1253
f 1238 1246 1253
f 1246 1247 1254
f 1247 1255 1254
f 1247 1248 1255
f 1248 1256 1255
f 1248 1249 1256
f 1249 1257 1256
f 1249 1250 1257
f 1250 1258 1257
f 1250 1251 1258
f 1251 1259 1258
f 1251 1252 1259
f 1252 1260 1259
f 1252 1253 1260
f 1253 1261 1260
f 1253 1246 1261
f 1246 1254 1261
f 1254 1255 1262
f 1255 1256 1262
f 1256 1257 1262
f 1257 1258 1262
f 1258 1259 1262
f 1259 1260 1262
f 1260 1261 1262
f 1261 1254 1262
usemtl mFFFFFF
f 1263 1265 1264
f 1263 1266 1265
f 1263 1267 1266
f 1263 1268 1267
f 1263 1269 1268
f 1263 1264 1269
f 1264 1265 1270
f 1265 1271 1270
f 1265 1266 1271
f 1266 1272 1271
f 1266 1267 1272
f 1267 1273 1272
f 1267 1268 1273
f 1268 1274 1273
f 1268 1269 1274
f 1269 1275 1274
f 1269 1264 1275
f 1264 1270 1275
f 1270 1271 1276
f 1271 1272 1276
f 1272 1273 1276
f 1273 1274 1276
f 1274 1275 1276
f 1275 1270 1276
usemtl m375E88
f 1277 1279 1278
f 1277 1280 1279
f 1277 1281 1280
f 1277 1282 1281
f 1277 1283 1282
f 1277 1278 1283
f 1278 1279 1284
f 1279 1285 1284
f 1279 1280 1285
f 1280 1286 1285
f 1280 1281 1286
f 1281 1287 1286
f 1281 1282 1287
f 1282 1288 1287
f 1282 1283 1288
f 1283 1289 1288
f 1283 1278 1289
f 1278 1284 1289
f 1284 1285 1290
f 1285 1286 1290
f 1286 1287 1290
f 1287 1288 1290
f 1288 1289 1290
f 1289 1284 1290
usemtl mF0E3BF
f 1291 1292 1301
f 1292 1302 1301
f 1292 1293 1302
f 1293 1303 1302
f 1293 1294 1303
f 1294 1304 1303
f 1294 1295 1304
f 1295 1305 1304
f 1295 1296 1305
f 1296 1306 1305
f 1296 1297 1306
f 1297 1307 1306
f 1297 1298 1307
f 1298 1308 1307
f 1298 1299 1308
f 1299 1309 1308
f 1299 1300 1309
f 1300 1310 1309
f 1300 1291 1310
f 1291 1301 1310
f 1301 1302 1311
f 1302 1312 1311
f 1302 1303 1312
f 1303 1313 1312
f 1303 1304 1313
f 1304 1314 1313
f 1304 1305 1314
f 1305 1315 1314
f 1305 1306 1315
f 1306 1316 1315
f 1306 1307 1316
f 1307 1317 1316
f 1307 1308 1317
f 1308 1318 1317
f 1308 1309 1318
f 1309 1319 1318
f 1309 1310 1319
f 1310 1320 1319
f 1310 1301 1320
f 1301 1311 1320
f 1291 1293 1292
f 1311 1312 1313
f 1291 1294 1293
f 1311 1313 1314
f 1291 1295 1294
f 1311 1314 1315
f 1291 1296 1295
f 1311 1315 1316
f 1291 1297 1296
f 1311 1316 1317
f 1291 1298 1297
f 1311 1317 1318
f 1291 1299 1298
f 1311 1318 1319
f 1291 1300 1299
f 1311 1319 1320
usemtl m375E88
f 1321 1323 1322
f 1321 1324 1323
f 1321 1325 1324
f 1321 1326 1325
f 1321 1327 1326
f 1321 1328 1327
f 1321 1329 1328
f 1321 1330 1329
f 1321 1331 1330
f 1321 1332 1331
f 1321 1333 1332
f 1321 1322 1333
f 1322 1323 1334
f 1323 1335 1334
f 1323 1324 1335
f 1324 1336 1335
f 1324 1325 1336
f 1325 1337 1336
f 1325 1326 1337
f 1326 1338 1337
f 1326 1327 1338
f 1327 1339 1338
f 1327 1328 1339
f 1328 1340 1339
f 1328 1329 1340
f 1329 1341 1340
f 1329 1330 1341
f 1330 1342 1341
f 1330 1331 1342
f 1331 1343 1342
f 1331 1332 1343
f 1332 1344 1343
f 1332 1333 1344
f 1333 1345 1344
f 1333 1322 1345
f 1322 1334 1345
f 1334 1335 1346
f 1335 1347 1346
f 1335 1336 1347
f 1336 1348 1347
f 1336 1337 1348
f 1337 1349 1348
f 1337 1338 1349
f 1338 1350 1349
f 1338 1339 1350
f 1339 1351 1350
f 1339 1340 1351
f 1340 1352 1351
f 1340 1341 1352
f 1341 1353 1352
f 1341 1342 1353
f 1342 1354 1353
f 1342 1343 1354
f 1343 1355 1354
f 1343 1344 1355
f 1344 1356 1355
f 1344 1345 1356
f 1345 1357 1356
f 1345 1334 1357
f 1334 1346 1357
f 1346 1347 1358
f 1347 1359 1358
f 1347 1348 1359
f 1348 1360 1359
f 1348 1349 1360
f 1349 1361 1360
f 1349 1350 1361
f 1350 1362 1361
f 1350 1351 1362
f 1351 1363 1362
f 1351 1352 1363
f 1352 1364 1363
f 1352 1353 1364
f 1353 1365 1364
f 1353 1354 1365
f 1354 1366 1365
f 1354 1355 1366
f 1355 1367 1366
f 1355 1356 1367
f 1356 1368 1367
f 1356 1357 1368
f 1357 1369 1368
f 1357 1346 1369
f 1346 1358 1369
f 1358 1359 1370
f 1359 1371 1370
f 1359 1360 1371
f 1360 1372 1371
f 1360 1361 1372
f 1361 1373 1372
f 1361 1362 1373
f 1362 1374 1373
f 1362 1363 1374
f 1363 1375 1374
f 1363 1364 1375
f 1364 1376 1375
f 1364 1365 1376
f 1365 1377 1376
f 1365 1366 1377
f 1366 1378 1377
f 1366 1367 1378
f 1367 1379 1378
f 1367 1368 1379
f 1368 1380 1379
f 1368 1369 1380
f 1369 1381 1380
f 1369 1358 1381
f 1358 1370 1381
f 1370 1371 1382
f 1371 1372 1382
f 1372 1373 1382
f 1373 1374 1382
f 1374 1375 1382
f 1375 1376 1382
f 1376 1377 1382
f 1377 1378 1382
f 1378 1379 1382
f 1379 1380 1382
f 1380 1381 1382
f 1381 1370 1382
usemtl mF0E3BF
f 1383 1385 1384
f 1383 1386 1385
f 1383 1387 1386
f 1383 1388 1387
f 1383 1389 1388
f 1383 1390 1389
f 1383 1391 1390
f 1383 1384 1391
f 1384 1385 1392
f 1385 1393 1392
f 1385 1386 1393
f 1386 1394 1393
f 1386 1387 1394
f 1387 1395 1394
f 1387 1388 1395
f 1388 1396 1395
f 1388 1389 1396
f 1389 1397 1396
f 1389 1390 1397
f 1390 1398 1397
f 1390 1391 1398
f 1391 1399 1398
f 1391 1384 1399
f 1384 1392 1399
f 1392 1393 1400
f 1393 1401 1400
f 1393 1394 1401
f 1394 1402 1401
f 1394 1395 1402
f 1395 1403 1402
f 1395 1396 1403
f 1396 1404 1403
f 1396 1397 1404
f 1397 1405 1404
f 1397 1398 1405
f 1398 1406 1405
f 1398 1399 1406
f 1399 1407 1406
f 1399 1392 1407
f 1392 1400 1407
f 1400 1401 1408
f 1401 1402 1408
f 1402 1403 1408
f 1403 1404 1408
f 1404 1405 1408
f 1405 1406 1408
f 1406 1407 1408
f 1407 1400 1408
f 1409 1411 1410
f 1409 1412 1411
f 1409 1413 1412
f 1409 1414 1413
f 1409 1415 1414
f 1409 1416 1415
f 1409 1417 1416
f 1409 1410 1417
f 1410 1411 1418
f 1411 1419 1418
f 1411 1412 1419
f 1412 1420 1419
f 1412 1413 1420
f 1413 1421 1420
f 1413 1414 1421
f 1414 1422 1421
f 1414 1415 1422
f 1415 1423 1422
f 1415 1416 1423
f 1416 1424 1423
f 1416 1417 1424
f 1417 1425 1424
f 1417 1410 1425
f 1410 1418 1425
f 1418 1419 1426
f 1419 1427 1426
f 1419 1420 1427
f 1420 1428 1427
f 1420 1421 1428
f 1421 1429 1428
f 1421 1422 1429
f 1422 1430 1429
f 1422 1423 1430
f 1423 1431 1430
f 1423 1424 1431
f 1424 1432 1431
f 1424 1425 1432
f 1425 1433 1432
f 1425 1418 1433
f 1418 1426 1433
f 1426 1427 1434
f 1427 1428 1434
f 1428 1429 1434
f 1429 1430 1434
f 1430 1431 1434
f 1431 1432 1434
f 1432 1433 1434
f 1433 1426 1434
f 1435 1437 1436
f 1435 1438 1437
f 1435 1439 1438
f 1435 1440 1439
f 1435 1441 1440
f 1435 1442 1441
f 1435 1443 1442
f 1435 1436 1443
f 1436 1437 1444
f 1437 1445 1444
f 1437 1438 1445
f 1438 1446 1445
f 1438 1439 1446
f 1439 1447 1446
f 1439 1440 1447
f 1440 1448 1447
f 1440 1441 1448
f 1441 1449 1448
f 1441 1442 1449
f 1442 1450 1449
f 1442 1443 1450
f 1443 1451 1450
f 1443 1436 1451
f 1436 1444 1451
f 1444 1445 1452
f 1445 1453 1452
f 1445 1446 1453
f 1446 1454 1453
f 1446 1447 1454
f 1447 1455 1454
f 1447 1448 1455
f 1448 1456 1455
f 1448 1449 1456
f 1449 1457 1456
f 1449 1450 1457
f 1450 1458 1457
f 1450 1451 1458
f 1451 1459 1458
f 1451 1444 1459
f 1444 1452 1459
f 1452 1453 1460
f 1453 1454 1460
f 1454 1455 1460
f 1455 1456 1460
f 1456 1457 1460
f 1457 1458 1460
f 1458 1459 1460
f 1459 1452 1460
f 1461 1463 1462
f 1461 1464 1463
f 1461 1465 1464
f 1461 1466 1465
f 1461 1467 1466
f 1461 1468 1467
f 1461 1469 1468
f 1461 1462 1469
f 1462 1463 1470
f 1463 1471 1470
f 1463 1464 1471
f 1464 1472 1471
f 1464 1465 1472
f 1465 1473 1472
f 1465 1466 1473
f 1466 1474 1473
f 1466 1467 1474
f 1467 1475 1474
f 1467 1468 1475
f 1468 1476 1475
f 1468 1469 1476
f 1469 1477 1476
f 1469 1462 1477
f 1462 1470 1477
f 1470 1471 1478
f 1471 1479 1478
f 1471 1472 1479
f 1472 1480 1479
f 1472 1473 1480
f 1473 1481 1480
f 1473 1474 1481
f 1474 1482 1481
f 1474 1475 1482
f 1475 1483 1482
f 1475 1476 1483
f 1476 1484 1483
f 1476 1477 1484
f 1477 1485 1484
f 1477 1470 1485
f 1470 1478 1485
f 1478 1479 1486
f 1479 1480 1486
f 1480 1481 1486
f 1481 1482 1486
f 1482 1483 1486
f 1483 1484 1486
f 1484 1485 1486
f 1485 1478 1486
f 1487 1489 1488
f 1487 1490 1489
f 1487 1491 1490
f 1487 1492 1491
f 1487 1493 1492
f 1487 1494 1493
f 1487 1495 1494
f 1487 1488 1495
f 1488 1489 1496
f 1489 1497 1496
f 1489 1490 1497
f 1490 1498 1497
f 1490 1491 1498
f 1491 1499 1498
f 1491 1492 1499
f 1492 1500 1499
f 1492 1493 1500
f 1493 1501 1500
f 1493 1494 1501
f 1494 1502 1501
f 1494 1495 1502
f 1495 1503 1502
f 1495 1488 1503
f 1488 1496 1503
f 1496 1497 1504
f 1497 1505 1504
f 1497 1498 1505
f 1498 1506 1505
f 1498 1499 1506
f 1499 1507 1506
f 1499 1500 1507
f 1500 1508 1507
f 1500 1501 1508
f 1501 1509 1508
f 1501 1502 1509
f 1502 1510 1509
f 1502 1503 1510
f 1503 1511 1510
f 1503 1496 1511
f 1496 1504 1511
f 1504 1505 1512
f 1505 1506 1512
f 1506 1507 1512
f 1507 1508 1512
f 1508 1509 1512
f 1509 1510 1512
f 1510 1511 1512
f 1511 1504 1512
f 1513 1515 1514
f 1513 1516 1515
f 1513 1517 1516
f 1513 1518 1517
f 1513 1519 1518
f 1513 1520 1519
f 1513 1521 1520
f 1513 1514 1521
f 1514 1515 1522
f 1515 1523 1522
f 1515 1516 1523
f 1516 1524 1523
f 1516 1517 1524
f 1517 1525 1524
f 1517 1518 1525
f 1518 1526 1525
f 1518 1519 1526
f 1519 1527 1526
f 1519 1520 1527
f 1520 1528 1527
f 1520 1521 1528
f 1521 1529 1528
f 1521 1514 1529
f 1514 1522 1529
f 1522 1523 1530
f 1523 1531 1530
f 1523 1524 1531
f 1524 1532 1531
f 1524 1525 1532
f 1525 1533 1532
f 1525 1526 1533
f 1526 1534 1533
f 1526 1527 1534
f 1527 1535 1534
f 1527 1528 1535
f 1528 1536 1535
f 1528 1529 1536
f 1529 1537 1536
f 1529 1522 1537
f 1522 1530 1537
f 1530 1531 1538
f 1531 1532 1538
f 1532 1533 1538
f 1533 1534 1538
f 1534 1535 1538
f 1535 1536 1538
f 1536 1537 1538
f 1537 1530 1538
f 1539 1541 1540
f 1539 1542 1541
f 1539 1543 1542
f 1539 1544 1543
f 1539 1545 1544
f 1539 1546 1545
f 1539 1547 1546
f 1539 1540 1547
f 1540 1541 1548
f 1541 1549 1548
f 1541 1542 1549
f 1542 1550 1549
f 1542 1543 1550
f 1543 1551 1550
f 1543 1544 1551
f 1544 1552 1551
f 1544 1545 1552
f 1545 1553 1552
f 1545 1546 1553
f 1546 1554 1553
f 1546 1547 1554
f 1547 1555 1554
f 1547 1540 1555
f 1540 1548 1555
f 1548 1549 1556
f 1549 1557 1556
f 1549 1550 1557
f 1550 1558 1557
f 1550 1551 1558
f 1551 1559 1558
f 1551 1552 1559
f 1552 1560 1559
f 1552 1553 1560
f 1553 1561 1560
f 1553 1554 1561
f 1554 1562 1561
f 1554 1555 1562
f 1555 1563 1562
f 1555 1548 1563
f 1548 1556 1563
f 1556 1557 1564
f 1557 1558 1564
f 1558 1559 1564
f 1559 1560 1564
f 1560 1561 1564
f 1561 1562 1564
f 1562 1563 1564
f 1563 1556 1564
f 1565 1566 1575
f 1566 1576 1575
f 1566 1567 1576
f 1567 1577 1576
f 1567 1568 1577
f 1568 1578 1577
f 1568 1569 1578
f 1569 1579 1578
f 1569 1570 1579
f 1570 1580 1579
f 1570 1571 1580
f 1571 1581 1580
f 1571 1572 1581
f 1572 1582 1581
f 1572 1573 1582
f 1573 1583 1582
f 1573 1574 1583
f 1574 1584 1583
f 1574 1565 1584
f 1565 1575 1584
f 1565 1567 1566
f 1575 1576 1577
f 1565 1568 1567
f 1575 1577 1578
f 1565 1569 1568
f 1575 1578 1579
f 1565 1570 1569
f 1575 1579 1580
f 1565 1571 1570
f 1575 1580 1581
f 1565 1572 1571
f 1575 1581 1582
f 1565 1573 1572
f 1575 1582 1583
f 1565 1574 1573
f 1575 1583 1584
