mtllib tyrannosaurus.mtl
o tyrannosaurus
v 0.00000 3.45000 0.30000
v 0.60000 3.30933 0.30000
v 0.51962 3.30933 0.67500
v 0.30000 3.30933 0.94952
v 0.00000 3.30933 1.05000
v -0.30000 3.30933 0.94952
v -0.51962 3.30933 0.67500
v -0.60000 3.30933 0.30000
v -0.51962 3.30933 -0.07500
v -0.30000 3.30933 -0.34952
v -0.00000 3.30933 -0.45000
v 0.30000 3.30933 -0.34952
v 0.51962 3.30933 -0.07500
v 1.03923 2.92500 0.30000
v 0.90000 2.92500 0.94952
v 0.51962 2.92500 1.42500
v 0.00000 2.92500 1.59904
v -0.51962 2.92500 1.42500
v -0.90000 2.92500 0.94952
v -1.03923 2.92500 0.30000
v -0.90000 2.92500 -0.34952
v -0.51962 2.92500 -0.82500
v -0.00000 2.92500 -0.99904
v 0.51962 2.92500 -0.82500
v 0.90000 2.92500 -0.34952
v 1.20000 2.40000 0.30000
v 1.03923 2.40000 1.05000
v 0.60000 2.40000 1.59904
v 0.00000 2.40000 1.80000
v -0.60000 2.40000 1.59904
v -1.03923 2.40000 1.05000
v -1.20000 2.40000 0.30000
v -1.03923 2.40000 -0.45000
v -0.60000 2.40000 -0.99904
v -0.00000 2.40000 -1.20000
v 0.60000 2.40000 -0.99904
v 1.03923 2.40000 -0.45000
v 1.03923 1.87500 0.30000
v 0.90000 1.87500 0.94952
v 0.51962 1.87500 1.42500
v 0.00000 1.87500 1.59904
v -0.51962 1.87500 1.42500
v -0.90000 1.87500 0.94952
v -1.03923 1.87500 0.30000
v -0.90000 1.87500 -0.34952
v -0.51962 1.87500 -0.82500
v -0.00000 1.87500 -0.99904
v 0.51962 1.87500 -0.82500
v 0.90000 1.87500 -0.34952
v 0.60000 1.49067 0.30000
v 0.51962 1.49067 0.67500
v 0.30000 1.49067 0.94952
v 0.00000 1.49067 1.05000
v -0.30000 1.49067 0.94952
v -0.51962 1.49067 0.67500
v -0.60000 1.49067 0.30000
v -0.51962 1.49067 -0.07500
v -0.30000 1.49067 -0.34952
v -0.00000 1.49067 -0.45000
v 0.30000 1.49067 -0.34952
v 0.51962 1.49067 -0.07500
v 0.00000 1.35000 0.30000
v 0.00000 2.70000 -0.20000
v 0.47500 2.61292 -0.20000
v 0.41136 2.61292 0.11250
v 0.23750 2.61292 0.34127
v 0.00000 2.61292 0.42500
v -0.23750 2.61292 0.34127
v -0.41136 2.61292 0.11250
v -0.47500 2.61292 -0.20000
v -0.41136 2.61292 -0.51250
v -0.23750 2.61292 -0.74127
v -0.00000 2.61292 -0.82500
v 0.23750 2.61292 -0.74127
v 0.41136 2.61292 -0.51250
v 0.82272 2.37500 -0.20000
v 0.71250 2.37500 0.34127
v 0.41136 2.37500 0.73750
v 0.00000 2.37500 0.88253
v -0.41136 2.37500 0.73750
v -0.71250 2.37500 0.34127
v -0.82272 2.37500 -0.20000
v -0.71250 2.37500 -0.74127
v -0.41136 2.37500 -1.13750
v -0.00000 2.37500 -1.28253
v 0.41136 2.37500 -1.13750
v 0.71250 2.37500 -0.74127
v 0.95000 2.05000 -0.20000
v 0.82272 2.05000 0.42500
v 0.47500 2.05000 0.88253
v 0.00000 2.05000 1.05000
v -0.47500 2.05000 0.88253
v -0.82272 2.05000 0.42500
v -0.95000 2.05000 -0.20000
v -0.82272 2.05000 -0.82500
v -0.47500 2.05000 -1.28253
v -0.00000 2.05000 -1.45000
v 0.47500 2.05000 -1.28253
v 0.82272 2.05000 -0.82500
v 0.82272 1.72500 -0.20000
v 0.71250 1.72500 0.34127
v 0.41136 1.72500 0.73750
v 0.00000 1.72500 0.88253
v -0.41136 1.72500 0.73750
v -0.71250 1.72500 0.34127
v -0.82272 1.72500 -0.20000
v -0.71250 1.72500 -0.74127
v -0.41136 1.72500 -1.13750
v -0.00000 1.72500 -1.28253
v 0.41136 1.72500 -1.13750
v 0.71250 1.72500 -0.74127
v 0.47500 1.48708 -0.20000
v 0.41136 1.48708 0.11250
v 0.23750 1.48708 0.34127
v 0.00000 1.48708 0.42500
v -0.23750 1.48708 0.34127
v -0.41136 1.48708 0.11250
v -0.47500 1.48708 -0.20000
v -0.41136 1.48708 -0.51250
v -0.23750 1.48708 -0.74127
v -0.00000 1.48708 -0.82500
v 0.23750 1.48708 -0.74127
v 0.41136 1.48708 -0.51250
v 0.00000 1.40000 -0.20000
v 0.80000 2.50000 -0.90000
v 0.64721 2.18105 -1.24553
v 0.24721 1.98393 -1.45907
v -0.24721 1.98393 -1.45907
v -0.64721 2.18105 -1.24553
v -0.80000 2.50000 -0.90000
v -0.64721 2.81895 -0.55447
v -0.24721 3.01607 -0.34093
v 0.24721 3.01607 -0.34093
v 0.64721 2.81895 -0.55447
v 0.72000 3.15000 -1.50000
v 0.58249 2.85075 -1.79925
v 0.22249 2.66580 -1.98420
v -0.22249 2.66580 -1.98420
v -0.58249 2.85075 -1.79925
v -0.72000 3.15000 -1.50000
v -0.58249 3.44925 -1.20075
v -0.22249 3.63420 -1.01580
v 0.22249 3.63420 -1.01580
v 0.58249 3.44925 -1.20075
v 0.65000 3.55000 -1.90000
v 0.52586 3.27984 -2.17016
v 0.20086 3.11288 -2.33712
v -0.20086 3.11288 -2.33712
v -0.52586 3.27984 -2.17016
v -0.65000 3.55000 -1.90000
v -0.52586 3.82016 -1.62984
v -0.20086 3.98712 -1.46288
v 0.20086 3.98712 -1.46288
v 0.52586 3.82016 -1.62984
v 0.00000 4.45000 -2.00000
v 0.57500 4.33612 -2.00000
v 0.49796 4.33612 -1.72500
v 0.28750 4.33612 -1.52369
v 0.00000 4.33612 -1.45000
v -0.28750 4.33612 -1.52369
v -0.49796 4.33612 -1.72500
v -0.57500 4.33612 -2.00000
v -0.49796 4.33612 -2.27500
v -0.28750 4.33612 -2.47631
v -0.00000 4.33612 -2.55000
v 0.28750 4.33612 -2.47631
v 0.49796 4.33612 -2.27500
v 0.99593 4.02500 -2.00000
v 0.86250 4.02500 -1.52369
v 0.49796 4.02500 -1.17500
v 0.00000 4.02500 -1.04737
v -0.49796 4.02500 -1.17500
v -0.86250 4.02500 -1.52369
v -0.99593 4.02500 -2.00000
v -0.86250 4.02500 -2.47631
v -0.49796 4.02500 -2.82500
v -0.00000 4.02500 -2.95263
v 0.49796 4.02500 -2.82500
v 0.86250 4.02500 -2.47631
v 1.15000 3.60000 -2.00000
v 0.99593 3.60000 -1.45000
v 0.57500 3.60000 -1.04737
v 0.00000 3.60000 -0.90000
v -0.57500 3.60000 -1.04737
v -0.99593 3.60000 -1.45000
v -1.15000 3.60000 -2.00000
v -0.99593 3.60000 -2.55000
v -0.57500 3.60000 -2.95263
v -0.00000 3.60000 -3.10000
v 0.57500 3.60000 -2.95263
v 0.99593 3.60000 -2.55000
v 0.99593 3.17500 -2.00000
v 0.86250 3.17500 -1.52369
v 0.49796 3.17500 -1.17500
v 0.00000 3.17500 -1.04737
v -0.49796 3.17500 -1.17500
v -0.86250 3.17500 -1.52369
v -0.99593 3.17500 -2.00000
v -0.86250 3.17500 -2.47631
v -0.49796 3.17500 -2.82500
v -0.00000 3.17500 -2.95263
v 0.49796 3.17500 -2.82500
v 0.86250 3.17500 -2.47631
v 0.57500 2.86388 -2.00000
v 0.49796 2.86388 -1.72500
v 0.28750 2.86388 -1.52369
v 0.00000 2.86388 -1.45000
v -0.28750 2.86388 -1.52369
v -0.49796 2.86388 -1.72500
v -0.57500 2.86388 -2.00000
v -0.49796 2.86388 -2.27500
v -0.28750 2.86388 -2.47631
v -0.00000 2.86388 -2.55000
v 0.28750 2.86388 -2.47631
v 0.49796 2.86388 -2.27500
v 0.00000 2.75000 -2.00000
v 0.00000 3.77000 -2.80000
v 0.50000 3.71373 -2.80000
v 0.43301 3.71373 -2.60000
v 0.25000 3.71373 -2.45359
v 0.00000 3.71373 -2.40000
v -0.25000 3.71373 -2.45359
v -0.43301 3.71373 -2.60000
v -0.50000 3.71373 -2.80000
v -0.43301 3.71373 -3.00000
v -0.25000 3.71373 -3.14641
v -0.00000 3.71373 -3.20000
v 0.25000 3.71373 -3.14641
v 0.43301 3.71373 -3.00000
v 0.86603 3.56000 -2.80000
v 0.75000 3.56000 -2.45359
v 0.43301 3.56000 -2.20000
v 0.00000 3.56000 -2.10718
v -0.43301 3.56000 -2.20000
v -0.75000 3.56000 -2.45359
v -0.86603 3.56000 -2.80000
v -0.75000 3.56000 -3.14641
v -0.43301 3.56000 -3.40000
v -0.00000 3.56000 -3.49282
v 0.43301 3.56000 -3.40000
v 0.75000 3.56000 -3.14641
v 1.00000 3.35000 -2.80000
v 0.86603 3.35000 -2.40000
v 0.50000 3.35000 -2.10718
v 0.00000 3.35000 -2.00000
v -0.50000 3.35000 -2.10718
v -0.86603 3.35000 -2.40000
v -1.00000 3.35000 -2.80000
v -0.86603 3.35000 -3.20000
v -0.50000 3.35000 -3.49282
v -0.00000 3.35000 -3.60000
v 0.50000 3.35000 -3.49282
v 0.86603 3.35000 -3.20000
v 0.86603 3.14000 -2.80000
v 0.75000 3.14000 -2.45359
v 0.43301 3.14000 -2.20000
v 0.00000 3.14000 -2.10718
v -0.43301 3.14000 -2.20000
v -0.75000 3.14000 -2.45359
v -0.86603 3.14000 -2.80000
v -0.75000 3.14000 -3.14641
v -0.43301 3.14000 -3.40000
v -0.00000 3.14000 -3.49282
v 0.43301 3.14000 -3.40000
v 0.75000 3.14000 -3.14641
v 0.50000 2.98627 -2.80000
v 0.43301 2.98627 -2.60000
v 0.25000 2.98627 -2.45359
v 0.00000 2.98627 -2.40000
v -0.25000 2.98627 -2.45359
v -0.43301 2.98627 -2.60000
v -0.50000 2.98627 -2.80000
v -0.43301 2.98627 -3.00000
v -0.25000 2.98627 -3.14641
v -0.00000 2.98627 -3.20000
v 0.25000 2.98627 -3.14641
v 0.43301 2.98627 -3.00000
v 0.00000 2.93000 -2.80000
v 0.00000 3.20000 -2.65000
v 0.45000 3.17321 -2.65000
v 0.38971 3.17321 -2.43750
v 0.22500 3.17321 -2.28194
v 0.00000 3.17321 -2.22500
v -0.22500 3.17321 -2.28194
v -0.38971 3.17321 -2.43750
v -0.45000 3.17321 -2.65000
v -0.38971 3.17321 -2.86250
v -0.22500 3.17321 -3.01806
v -0.00000 3.17321 -3.07500
v 0.22500 3.17321 -3.01806
v 0.38971 3.17321 -2.86250
v 0.77942 3.10000 -2.65000
v 0.67500 3.10000 -2.28194
v 0.38971 3.10000 -2.01250
v 0.00000 3.10000 -1.91388
v -0.38971 3.10000 -2.01250
v -0.67500 3.10000 -2.28194
v -0.77942 3.10000 -2.65000
v -0.67500 3.10000 -3.01806
v -0.38971 3.10000 -3.28750
v -0.00000 3.10000 -3.38612
v 0.38971 3.10000 -3.28750
v 0.67500 3.10000 -3.01806
v 0.90000 3.00000 -2.65000
v 0.77942 3.00000 -2.22500
v 0.45000 3.00000 -1.91388
v 0.00000 3.00000 -1.80000
v -0.45000 3.00000 -1.91388
v -0.77942 3.00000 -2.22500
v -0.90000 3.00000 -2.65000
v -0.77942 3.00000 -3.07500
v -0.45000 3.00000 -3.38612
v -0.00000 3.00000 -3.50000
v 0.45000 3.00000 -3.38612
v 0.77942 3.00000 -3.07500
v 0.77942 2.90000 -2.65000
v 0.67500 2.90000 -2.28194
v 0.38971 2.90000 -2.01250
v 0.00000 2.90000 -1.91388
v -0.38971 2.90000 -2.01250
v -0.67500 2.90000 -2.28194
v -0.77942 2.90000 -2.65000
v -0.67500 2.90000 -3.01806
v -0.38971 2.90000 -3.28750
v -0.00000 2.90000 -3.38612
v 0.38971 2.90000 -3.28750
v 0.67500 2.90000 -3.01806
v 0.45000 2.82679 -2.65000
v 0.38971 2.82679 -2.43750
v 0.22500 2.82679 -2.28194
v 0.00000 2.82679 -2.22500
v -0.22500 2.82679 -2.28194
v -0.38971 2.82679 -2.43750
v -0.45000 2.82679 -2.65000
v -0.38971 2.82679 -2.86250
v -0.22500 2.82679 -3.01806
v -0.00000 2.82679 -3.07500
v 0.22500 2.82679 -3.01806
v 0.38971 2.82679 -2.86250
v 0.00000 2.80000 -2.65000
v -0.70000 2.40000 1.40000
v -0.56631 1.99126 1.35284
v -0.21631 1.73865 1.32369
v 0.21631 1.73865 1.32369
v 0.56631 1.99126 1.35284
v 0.70000 2.40000 1.40000
v 0.56631 2.80874 1.44716
v 0.21631 3.06135 1.47631
v -0.21631 3.06135 1.47631
v -0.56631 2.80874 1.44716
v -0.50000 2.25000 2.70000
v -0.40451 1.97021 2.78993
v -0.15451 1.79728 2.84552
v 0.15451 1.79728 2.84552
v 0.40451 1.97021 2.78993
v 0.50000 2.25000 2.70000
v 0.40451 2.52979 2.61007
v 0.15451 2.70272 2.55448
v -0.15451 2.70272 2.55448
v -0.40451 2.52979 2.61007
v -0.25000 2.70000 4.10000
v -0.20225 2.56059 4.14647
v -0.07725 2.47444 4.17519
v 0.07725 2.47444 4.17519
v 0.20225 2.56059 4.14647
v 0.25000 2.70000 4.10000
v 0.20225 2.83941 4.05353
v 0.07725 2.92556 4.02481
v -0.07725 2.92556 4.02481
v -0.20225 2.83941 4.05353
v -0.02500 3.00000 5.00000
v -0.02023 2.98606 5.00465
v -0.00773 2.97744 5.00752
v 0.00773 2.97744 5.00752
v 0.02023 2.98606 5.00465
v 0.02500 3.00000 5.00000
v 0.02023 3.01394 4.99535
v 0.00773 3.02256 4.99248
v -0.00773 3.02256 4.99248
v -0.02023 3.01394 4.99535
v -0.85000 2.50000 0.60000
v -0.60000 2.37942 0.60000
v -0.63349 2.37942 0.75000
v -0.72500 2.37942 0.85981
v -0.85000 2.37942 0.90000
v -0.97500 2.37942 0.85981
v -1.06651 2.37942 0.75000
v -1.10000 2.37942 0.60000
v -1.06651 2.37942 0.45000
v -0.97500 2.37942 0.34019
v -0.85000 2.37942 0.30000
v -0.72500 2.37942 0.34019
v -0.63349 2.37942 0.45000
v -0.41699 2.05000 0.60000
v -0.47500 2.05000 0.85981
v -0.63349 2.05000 1.05000
v -0.85000 2.05000 1.11962
v -1.06651 2.05000 1.05000
v -1.22500 2.05000 0.85981
v -1.28301 2.05000 0.60000
v -1.22500 2.05000 0.34019
v -1.06651 2.05000 0.15000
v -0.85000 2.05000 0.08038
v -0.63349 2.05000 0.15000
v -0.47500 2.05000 0.34019
v -0.35000 1.60000 0.60000
v -0.41699 1.60000 0.90000
v -0.60000 1.60000 1.11962
v -0.85000 1.60000 1.20000
v -1.10000 1.60000 1.11962
v -1.28301 1.60000 0.90000
v -1.35000 1.60000 0.60000
v -1.28301 1.60000 0.30000
v -1.10000 1.60000 0.08038
v -0.85000 1.60000 0.00000
v -0.60000 1.60000 0.08038
v -0.41699 1.60000 0.30000
v -0.41699 1.15000 0.60000
v -0.47500 1.15000 0.85981
v -0.63349 1.15000 1.05000
v -0.85000 1.15000 1.11962
v -1.06651 1.15000 1.05000
v -1.22500 1.15000 0.85981
v -1.28301 1.15000 0.60000
v -1.22500 1.15000 0.34019
v -1.06651 1.15000 0.15000
v -0.85000 1.15000 0.08038
v -0.63349 1.15000 0.15000
v -0.47500 1.15000 0.34019
v -0.60000 0.82058 0.60000
v -0.63349 0.82058 0.75000
v -0.72500 0.82058 0.85981
v -0.85000 0.82058 0.90000
v -0.97500 0.82058 0.85981
v -1.06651 0.82058 0.75000
v -1.10000 0.82058 0.60000
v -1.06651 0.82058 0.45000
v -0.97500 0.82058 0.34019
v -0.85000 0.82058 0.30000
v -0.72500 0.82058 0.34019
v -0.63349 0.82058 0.45000
v -0.85000 0.70000 0.60000
v -0.85000 1.30364 0.90515
v -1.03809 1.32204 0.84687
v -1.15434 1.37022 0.69430
v -1.15434 1.42978 0.50570
v -1.03809 1.47796 0.35313
v -0.85000 1.49636 0.29485
v -0.66191 1.47796 0.35313
v -0.54566 1.42978 0.50570
v -0.54566 1.37022 0.69430
v -0.66191 1.32204 0.84687
v -0.85000 0.37773 0.52886
v -0.99107 0.39153 0.48515
v -1.07825 0.42767 0.37072
v -1.07825 0.47233 0.22928
v -0.99107 0.50847 0.11485
v -0.85000 0.52227 0.07114
v -0.70893 0.50847 0.11485
v -0.62175 0.47233 0.22928
v -0.62175 0.42767 0.37072
v -0.70893 0.39153 0.48515
v -0.85000 0.50000 0.10000
v -0.65000 0.46919 0.10000
v -0.67679 0.46919 0.26250
v -0.75000 0.46919 0.38146
v -0.85000 0.46919 0.42500
v -0.95000 0.46919 0.38146
v -1.02321 0.46919 0.26250
v -1.05000 0.46919 0.10000
v -1.02321 0.46919 -0.06250
v -0.95000 0.46919 -0.18146
v -0.85000 0.46919 -0.22500
v -0.75000 0.46919 -0.18146
v -0.67679 0.46919 -0.06250
v -0.50359 0.38500 0.10000
v -0.55000 0.38500 0.38146
v -0.67679 0.38500 0.58750
v -0.85000 0.38500 0.66292
v -1.02321 0.38500 0.58750
v -1.15000 0.38500 0.38146
v -1.19641 0.38500 0.10000
v -1.15000 0.38500 -0.18146
v -1.02321 0.38500 -0.38750
v -0.85000 0.38500 -0.46292
v -0.67679 0.38500 -0.38750
v -0.55000 0.38500 -0.18146
v -0.45000 0.27000 0.10000
v -0.50359 0.27000 0.42500
v -0.65000 0.27000 0.66292
v -0.85000 0.27000 0.75000
v -1.05000 0.27000 0.66292
v -1.19641 0.27000 0.42500
v -1.25000 0.27000 0.10000
v -1.19641 0.27000 -0.22500
v -1.05000 0.27000 -0.46292
v -0.85000 0.27000 -0.55000
v -0.65000 0.27000 -0.46292
v -0.50359 0.27000 -0.22500
v -0.50359 0.15500 0.10000
v -0.55000 0.15500 0.38146
v -0.67679 0.15500 0.58750
v -0.85000 0.15500 0.66292
v -1.02321 0.15500 0.58750
v -1.15000 0.15500 0.38146
v -1.19641 0.15500 0.10000
v -1.15000 0.15500 -0.18146
v -1.02321 0.15500 -0.38750
v -0.85000 0.15500 -0.46292
v -0.67679 0.15500 -0.38750
v -0.55000 0.15500 -0.18146
v -0.65000 0.07081 0.10000
v -0.67679 0.07081 0.26250
v -0.75000 0.07081 0.38146
v -0.85000 0.07081 0.42500
v -0.95000 0.07081 0.38146
v -1.02321 0.07081 0.26250
v -1.05000 0.07081 0.10000
v -1.02321 0.07081 -0.06250
v -0.95000 0.07081 -0.18146
v -0.85000 0.07081 -0.22500
v -0.75000 0.07081 -0.18146
v -0.67679 0.07081 -0.06250
v -0.85000 0.04000 0.10000
v -0.92000 0.23000 -0.20000
v -0.96500 0.15438 -0.18110
v -1.05500 0.15438 -0.18110
v -1.10000 0.23000 -0.20000
v -1.05500 0.30562 -0.21890
v -0.96500 0.30562 -0.21890
v -0.98500 0.16000 -0.48000
v -0.99750 0.13900 -0.47475
v -1.02250 0.13900 -0.47475
v -1.03500 0.16000 -0.48000
v -1.02250 0.18100 -0.48525
v -0.99750 0.18100 -0.48525
v -0.76000 0.23000 -0.20000
v -0.80500 0.15438 -0.18110
v -0.89500 0.15438 -0.18110
v -0.94000 0.23000 -0.20000
v -0.89500 0.30562 -0.21890
v -0.80500 0.30562 -0.21890
v -0.82500 0.16000 -0.48000
v -0.83750 0.13900 -0.47475
v -0.86250 0.13900 -0.47475
v -0.87500 0.16000 -0.48000
v -0.86250 0.18100 -0.48525
v -0.83750 0.18100 -0.48525
v -0.60000 0.23000 -0.20000
v -0.64500 0.15438 -0.18110
v -0.73500 0.15438 -0.18110
v -0.78000 0.23000 -0.20000
v -0.73500 0.30562 -0.21890
v -0.64500 0.30562 -0.21890
v -0.66500 0.16000 -0.48000
v -0.67750 0.13900 -0.47475
v -0.70250 0.13900 -0.47475
v -0.71500 0.16000 -0.48000
v -0.70250 0.18100 -0.48525
v -0.67750 0.18100 -0.48525
v -0.85792 2.70000 -0.81051
v -0.83796 2.62712 -0.72886
v -0.87990 2.58208 -0.63619
v -0.96771 2.58208 -0.56789
v -1.06786 2.62712 -0.55005
v -1.14208 2.70000 -0.58949
v -1.16204 2.77288 -0.67114
v -1.12010 2.81792 -0.76381
v -1.03229 2.81792 -0.83211
v -0.93214 2.77288 -0.84995
v -1.22500 2.10000 -1.11429
v -1.25173 2.02430 -1.11111
v -1.31600 1.97751 -1.12279
v -1.39325 1.97751 -1.14486
v -1.45398 2.02430 -1.16889
v -1.47500 2.10000 -1.18571
v -1.44827 2.17570 -1.18889
v -1.38400 2.22249 -1.17721
v -1.30675 2.22249 -1.15514
v -1.24602 2.17570 -1.13111
v -1.16346 2.05000 -1.47528
v -1.18197 1.99759 -1.47308
v -1.22646 1.96520 -1.48116
v -1.27994 1.96520 -1.49644
v -1.32199 1.99759 -1.51308
v -1.33654 2.05000 -1.52472
v -1.31803 2.10241 -1.52692
v -1.27354 2.13480 -1.51884
v -1.22006 2.13480 -1.50356
v -1.17801 2.10241 -1.48692
v -0.85000 4.19000 -2.50000
v -0.74393 4.10506 -2.50000
v -0.77500 4.10506 -2.33500
v -0.85000 4.10506 -2.26665
v -0.92500 4.10506 -2.33500
v -0.95607 4.10506 -2.50000
v -0.92500 4.10506 -2.66500
v -0.85000 4.10506 -2.73335
v -0.77500 4.10506 -2.66500
v -0.70000 3.90000 -2.50000
v -0.74393 3.90000 -2.26665
v -0.85000 3.90000 -2.17000
v -0.95607 3.90000 -2.26665
v -1.00000 3.90000 -2.50000
v -0.95607 3.90000 -2.73335
v -0.85000 3.90000 -2.83000
v -0.74393 3.90000 -2.73335
v -0.74393 3.69494 -2.50000
v -0.77500 3.69494 -2.33500
v -0.85000 3.69494 -2.26665
v -0.92500 3.69494 -2.33500
v -0.95607 3.69494 -2.50000
v -0.92500 3.69494 -2.66500
v -0.85000 3.69494 -2.73335
v -0.77500 3.69494 -2.66500
v -0.85000 3.61000 -2.50000
v -0.97000 4.08000 -2.62000
v -0.92757 4.03314 -2.62000
v -0.94000 4.03314 -2.55000
v -0.97000 4.03314 -2.52101
v -1.00000 4.03314 -2.55000
v -1.01243 4.03314 -2.62000
v -1.00000 4.03314 -2.69000
v -0.97000 4.03314 -2.71899
v -0.94000 4.03314 -2.69000
v -0.91000 3.92000 -2.62000
v -0.92757 3.92000 -2.52101
v -0.97000 3.92000 -2.48000
v -1.01243 3.92000 -2.52101
v -1.03000 3.92000 -2.62000
v -1.01243 3.92000 -2.71899
v -0.97000 3.92000 -2.76000
v -0.92757 3.92000 -2.71899
v -0.92757 3.80686 -2.62000
v -0.94000 3.80686 -2.55000
v -0.97000 3.80686 -2.52101
v -1.00000 3.80686 -2.55000
v -1.01243 3.80686 -2.62000
v -1.00000 3.80686 -2.69000
v -0.97000 3.80686 -2.71899
v -0.94000 3.80686 -2.69000
v -0.97000 3.76000 -2.62000
v -0.98000 4.04000 -2.68000
v -0.95835 4.01500 -2.68000
v -0.96917 4.01500 -2.65000
v -0.99083 4.01500 -2.65000
v -1.00165 4.01500 -2.68000
v -0.99083 4.01500 -2.71000
v -0.96917 4.01500 -2.71000
v -0.95835 3.96500 -2.68000
v -0.96917 3.96500 -2.65000
v -0.99083 3.96500 -2.65000
v -1.00165 3.96500 -2.68000
v -0.99083 3.96500 -2.71000
v -0.96917 3.96500 -2.71000
v -0.98000 3.94000 -2.68000
v -0.39000 3.69500 -3.46000
v -0.32938 3.66250 -3.46000
v -0.35969 3.66250 -3.43375
v -0.42031 3.66250 -3.43375
v -0.45062 3.66250 -3.46000
v -0.42031 3.66250 -3.48625
v -0.35969 3.66250 -3.48625
v -0.32938 3.59750 -3.46000
v -0.35969 3.59750 -3.43375
v -0.42031 3.59750 -3.43375
v -0.45062 3.59750 -3.46000
v -0.42031 3.59750 -3.48625
v -0.35969 3.59750 -3.48625
v -0.39000 3.56500 -3.46000
v 0.85000 2.50000 0.60000
v 1.10000 2.37942 0.60000
v 1.06651 2.37942 0.75000
v 0.97500 2.37942 0.85981
v 0.85000 2.37942 0.90000
v 0.72500 2.37942 0.85981
v 0.63349 2.37942 0.75000
v 0.60000 2.37942 0.60000
v 0.63349 2.37942 0.45000
v 0.72500 2.37942 0.34019
v 0.85000 2.37942 0.30000
v 0.97500 2.37942 0.34019
v 1.06651 2.37942 0.45000
v 1.28301 2.05000 0.60000
v 1.22500 2.05000 0.85981
v 1.06651 2.05000 1.05000
v 0.85000 2.05000 1.11962
v 0.63349 2.05000 1.05000
v 0.47500 2.05000 0.85981
v 0.41699 2.05000 0.60000
v 0.47500 2.05000 0.34019
v 0.63349 2.05000 0.15000
v 0.85000 2.05000 0.08038
v 1.06651 2.05000 0.15000
v 1.22500 2.05000 0.34019
v 1.35000 1.60000 0.60000
v 1.28301 1.60000 0.90000
v 1.10000 1.60000 1.11962
v 0.85000 1.60000 1.20000
v 0.60000 1.60000 1.11962
v 0.41699 1.60000 0.90000
v 0.35000 1.60000 0.60000
v 0.41699 1.60000 0.30000
v 0.60000 1.60000 0.08038
v 0.85000 1.60000 0.00000
v 1.10000 1.60000 0.08038
v 1.28301 1.60000 0.30000
v 1.28301 1.15000 0.60000
v 1.22500 1.15000 0.85981
v 1.06651 1.15000 1.05000
v 0.85000 1.15000 1.11962
v 0.63349 1.15000 1.05000
v 0.47500 1.15000 0.85981
v 0.41699 1.15000 0.60000
v 0.47500 1.15000 0.34019
v 0.63349 1.15000 0.15000
v 0.85000 1.15000 0.08038
v 1.06651 1.15000 0.15000
v 1.22500 1.15000 0.34019
v 1.10000 0.82058 0.60000
v 1.06651 0.82058 0.75000
v 0.97500 0.82058 0.85981
v 0.85000 0.82058 0.90000
v 0.72500 0.82058 0.85981
v 0.63349 0.82058 0.75000
v 0.60000 0.82058 0.60000
v 0.63349 0.82058 0.45000
v 0.72500 0.82058 0.34019
v 0.85000 0.82058 0.30000
v 0.97500 0.82058 0.34019
v 1.06651 0.82058 0.45000
v 0.85000 0.70000 0.60000
v 0.85000 1.30364 0.90515
v 0.66191 1.32204 0.84687
v 0.54566 1.37022 0.69430
v 0.54566 1.42978 0.50570
v 0.66191 1.47796 0.35313
v 0.85000 1.49636 0.29485
v 1.03809 1.47796 0.35313
v 1.15434 1.42978 0.50570
v 1.15434 1.37022 0.69430
v 1.03809 1.32204 0.84687
v 0.85000 0.37773 0.52886
v 0.70893 0.39153 0.48515
v 0.62175 0.42767 0.37072
v 0.62175 0.47233 0.22928
v 0.70893 0.50847 0.11485
v 0.85000 0.52227 0.07114
v 0.99107 0.50847 0.11485
v 1.07825 0.47233 0.22928
v 1.07825 0.42767 0.37072
v 0.99107 0.39153 0.48515
v 0.85000 0.50000 0.10000
v 1.05000 0.46919 0.10000
v 1.02321 0.46919 0.26250
v 0.95000 0.46919 0.38146
v 0.85000 0.46919 0.42500
v 0.75000 0.46919 0.38146
v 0.67679 0.46919 0.26250
v 0.65000 0.46919 0.10000
v 0.67679 0.46919 -0.06250
v 0.75000 0.46919 -0.18146
v 0.85000 0.46919 -0.22500
v 0.95000 0.46919 -0.18146
v 1.02321 0.46919 -0.06250
v 1.19641 0.38500 0.10000
v 1.15000 0.38500 0.38146
v 1.02321 0.38500 0.58750
v 0.85000 0.38500 0.66292
v 0.67679 0.38500 0.58750
v 0.55000 0.38500 0.38146
v 0.50359 0.38500 0.10000
v 0.55000 0.38500 -0.18146
v 0.67679 0.38500 -0.38750
v 0.85000 0.38500 -0.46292
v 1.02321 0.38500 -0.38750
v 1.15000 0.38500 -0.18146
v 1.25000 0.27000 0.10000
v 1.19641 0.27000 0.42500
v 1.05000 0.27000 0.66292
v 0.85000 0.27000 0.75000
v 0.65000 0.27000 0.66292
v 0.50359 0.27000 0.42500
v 0.45000 0.27000 0.10000
v 0.50359 0.27000 -0.22500
v 0.65000 0.27000 -0.46292
v 0.85000 0.27000 -0.55000
v 1.05000 0.27000 -0.46292
v 1.19641 0.27000 -0.22500
v 1.19641 0.15500 0.10000
v 1.15000 0.15500 0.38146
v 1.02321 0.15500 0.58750
v 0.85000 0.15500 0.66292
v 0.67679 0.15500 0.58750
v 0.55000 0.15500 0.38146
v 0.50359 0.15500 0.10000
v 0.55000 0.15500 -0.18146
v 0.67679 0.15500 -0.38750
v 0.85000 0.15500 -0.46292
v 1.02321 0.15500 -0.38750
v 1.15000 0.15500 -0.18146
v 1.05000 0.07081 0.10000
v 1.02321 0.07081 0.26250
v 0.95000 0.07081 0.38146
v 0.85000 0.07081 0.42500
v 0.75000 0.07081 0.38146
v 0.67679 0.07081 0.26250
v 0.65000 0.07081 0.10000
v 0.67679 0.07081 -0.06250
v 0.75000 0.07081 -0.18146
v 0.85000 0.07081 -0.22500
v 0.95000 0.07081 -0.18146
v 1.02321 0.07081 -0.06250
v 0.85000 0.04000 0.10000
v 0.78000 0.23000 -0.20000
v 0.73500 0.15438 -0.18110
v 0.64500 0.15438 -0.18110
v 0.60000 0.23000 -0.20000
v 0.64500 0.30562 -0.21890
v 0.73500 0.30562 -0.21890
v 0.71500 0.16000 -0.48000
v 0.70250 0.13900 -0.47475
v 0.67750 0.13900 -0.47475
v 0.66500 0.16000 -0.48000
v 0.67750 0.18100 -0.48525
v 0.70250 0.18100 -0.48525
v 0.94000 0.23000 -0.20000
v 0.89500 0.15438 -0.18110
v 0.80500 0.15438 -0.18110
v 0.76000 0.23000 -0.20000
v 0.80500 0.30562 -0.21890
v 0.89500 0.30562 -0.21890
v 0.87500 0.16000 -0.48000
v 0.86250 0.13900 -0.47475
v 0.83750 0.13900 -0.47475
v 0.82500 0.16000 -0.48000
v 0.83750 0.18100 -0.48525
v 0.86250 0.18100 -0.48525
v 1.10000 0.23000 -0.20000
v 1.05500 0.15438 -0.18110
v 0.96500 0.15438 -0.18110
v 0.92000 0.23000 -0.20000
v 0.96500 0.30562 -0.21890
v 1.05500 0.30562 -0.21890
v 1.03500 0.16000 -0.48000
v 1.02250 0.13900 -0.47475
v 0.99750 0.13900 -0.47475
v 0.98500 0.16000 -0.48000
v 0.99750 0.18100 -0.48525
v 1.02250 0.18100 -0.48525
v 1.14208 2.70000 -0.58949
v 1.06786 2.62712 -0.55005
v 0.96771 2.58208 -0.56789
v 0.87990 2.58208 -0.63619
v 0.83796 2.62712 -0.72886
v 0.85792 2.70000 -0.81051
v 0.93214 2.77288 -0.84995
v 1.03229 2.81792 -0.83211
v 1.12010 2.81792 -0.76381
v 1.16204 2.77288 -0.67114
v 1.47500 2.10000 -1.18571
v 1.45398 2.02430 -1.16889
v 1.39325 1.97751 -1.14486
v 1.31600 1.97751 -1.12279
v 1.25173 2.02430 -1.11111
v 1.22500 2.10000 -1.11429
v 1.24602 2.17570 -1.13111
v 1.30675 2.22249 -1.15514
v 1.38400 2.22249 -1.17721
v 1.44827 2.17570 -1.18889
v 1.33654 2.05000 -1.52472
v 1.32199 1.99759 -1.51308
v 1.27994 1.96520 -1.49644
v 1.22646 1.96520 -1.48116
v 1.18197 1.99759 -1.47308
v 1.16346 2.05000 -1.47528
v 1.17801 2.10241 -1.48692
v 1.22006 2.13480 -1.50356
v 1.27354 2.13480 -1.51884
v 1.31803 2.10241 -1.52692
v 0.85000 4.19000 -2.50000
v 0.95607 4.10506 -2.50000
v 0.92500 4.10506 -2.33500
v 0.85000 4.10506 -2.26665
v 0.77500 4.10506 -2.33500
v 0.74393 4.10506 -2.50000
v 0.77500 4.10506 -2.66500
v 0.85000 4.10506 -2.73335
v 0.92500 4.10506 -2.66500
v 1.00000 3.90000 -2.50000
v 0.95607 3.90000 -2.26665
v 0.85000 3.90000 -2.17000
v 0.74393 3.90000 -2.26665
v 0.70000 3.90000 -2.50000
v 0.74393 3.90000 -2.73335
v 0.85000 3.90000 -2.83000
v 0.95607 3.90000 -2.73335
v 0.95607 3.69494 -2.50000
v 0.92500 3.69494 -2.33500
v 0.85000 3.69494 -2.26665
v 0.77500 3.69494 -2.33500
v 0.74393 3.69494 -2.50000
v 0.77500 3.69494 -2.66500
v 0.85000 3.69494 -2.73335
v 0.92500 3.69494 -2.66500
v 0.85000 3.61000 -2.50000
v 0.97000 4.08000 -2.62000
v 1.01243 4.03314 -2.62000
v 1.00000 4.03314 -2.55000
v 0.97000 4.03314 -2.52101
v 0.94000 4.03314 -2.55000
v 0.92757 4.03314 -2.62000
v 0.94000 4.03314 -2.69000
v 0.97000 4.03314 -2.71899
v 1.00000 4.03314 -2.69000
v 1.03000 3.92000 -2.62000
v 1.01243 3.92000 -2.52101
v 0.97000 3.92000 -2.48000
v 0.92757 3.92000 -2.52101
v 0.91000 3.92000 -2.62000
v 0.92757 3.92000 -2.71899
v 0.97000 3.92000 -2.76000
v 1.01243 3.92000 -2.71899
v 1.01243 3.80686 -2.62000
v 1.00000 3.80686 -2.55000
v 0.97000 3.80686 -2.52101
v 0.94000 3.80686 -2.55000
v 0.92757 3.80686 -2.62000
v 0.94000 3.80686 -2.69000
v 0.97000 3.80686 -2.71899
v 1.00000 3.80686 -2.69000
v 0.97000 3.76000 -2.62000
v 0.98000 4.04000 -2.68000
v 1.00165 4.01500 -2.68000
v 0.99083 4.01500 -2.65000
v 0.96917 4.01500 -2.65000
v 0.95835 4.01500 -2.68000
v 0.96917 4.01500 -2.71000
v 0.99083 4.01500 -2.71000
v 1.00165 3.96500 -2.68000
v 0.99083 3.96500 -2.65000
v 0.96917 3.96500 -2.65000
v 0.95835 3.96500 -2.68000
v 0.96917 3.96500 -2.71000
v 0.99083 3.96500 -2.71000
v 0.98000 3.94000 -2.68000
v 0.39000 3.69500 -3.46000
v 0.45062 3.66250 -3.46000
v 0.42031 3.66250 -3.43375
v 0.35969 3.66250 -3.43375
v 0.32938 3.66250 -3.46000
v 0.35969 3.66250 -3.48625
v 0.42031 3.66250 -3.48625
v 0.45062 3.59750 -3.46000
v 0.42031 3.59750 -3.43375
v 0.35969 3.59750 -3.43375
v 0.32938 3.59750 -3.46000
v 0.35969 3.59750 -3.48625
v 0.42031 3.59750 -3.48625
v 0.39000 3.56500 -3.46000
v 0.00000 3.59000 0.30000
v 0.10607 3.51678 0.30000
v 0.07500 3.51678 0.41500
v 0.00000 3.51678 0.46263
v -0.07500 3.51678 0.41500
v -0.10607 3.51678 0.30000
v -0.07500 3.51678 0.18500
v -0.00000 3.51678 0.13737
v 0.07500 3.51678 0.18500
v 0.15000 3.34000 0.30000
v 0.10607 3.34000 0.46263
v 0.00000 3.34000 0.53000
v -0.10607 3.34000 0.46263
v -0.15000 3.34000 0.30000
v -0.10607 3.34000 0.13737
v -0.00000 3.34000 0.07000
v 0.10607 3.34000 0.13737
v 0.10607 3.16322 0.30000
v 0.07500 3.16322 0.41500
v 0.00000 3.16322 0.46263
v -0.07500 3.16322 0.41500
v -0.10607 3.16322 0.30000
v -0.07500 3.16322 0.18500
v -0.00000 3.16322 0.13737
v 0.07500 3.16322 0.18500
v 0.00000 3.09000 0.30000
v 0.00000 3.46000 0.78000
v 0.10607 3.38678 0.78000
v 0.07500 3.38678 0.89500
v 0.00000 3.38678 0.94263
v -0.07500 3.38678 0.89500
v -0.10607 3.38678 0.78000
v -0.07500 3.38678 0.66500
v -0.00000 3.38678 0.61737
v 0.07500 3.38678 0.66500
v 0.15000 3.21000 0.78000
v 0.10607 3.21000 0.94263
v 0.00000 3.21000 1.01000
v -0.10607 3.21000 0.94263
v -0.15000 3.21000 0.78000
v -0.10607 3.21000 0.61737
v -0.00000 3.21000 0.55000
v 0.10607 3.21000 0.61737
v 0.10607 3.03322 0.78000
v 0.07500 3.03322 0.89500
v 0.00000 3.03322 0.94263
v -0.07500 3.03322 0.89500
v -0.10607 3.03322 0.78000
v -0.07500 3.03322 0.66500
v -0.00000 3.03322 0.61737
v 0.07500 3.03322 0.66500
v 0.00000 2.96000 0.78000
v 0.00000 3.33000 1.26000
v 0.10607 3.25678 1.26000
v 0.07500 3.25678 1.37500
v 0.00000 3.25678 1.42263
v -0.07500 3.25678 1.37500
v -0.10607 3.25678 1.26000
v -0.07500 3.25678 1.14500
v -0.00000 3.25678 1.09737
v 0.07500 3.25678 1.14500
v 0.15000 3.08000 1.26000
v 0.10607 3.08000 1.42263
v 0.00000 3.08000 1.49000
v -0.10607 3.08000 1.42263
v -0.15000 3.08000 1.26000
v -0.10607 3.08000 1.09737
v -0.00000 3.08000 1.03000
v 0.10607 3.08000 1.09737
v 0.10607 2.90322 1.26000
v 0.07500 2.90322 1.37500
v 0.00000 2.90322 1.42263
v -0.07500 2.90322 1.37500
v -0.10607 2.90322 1.26000
v -0.07500 2.90322 1.14500
v -0.00000 2.90322 1.09737
v 0.07500 2.90322 1.14500
v 0.00000 2.83000 1.26000
v 0.00000 3.20000 1.74000
v 0.10607 3.12678 1.74000
v 0.07500 3.12678 1.85500
v 0.00000 3.12678 1.90263
v -0.07500 3.12678 1.85500
v -0.10607 3.12678 1.74000
v -0.07500 3.12678 1.62500
v -0.00000 3.12678 1.57737
v 0.07500 3.12678 1.62500
v 0.15000 2.95000 1.74000
v 0.10607 2.95000 1.90263
v 0.00000 2.95000 1.97000
v -0.10607 2.95000 1.90263
v -0.15000 2.95000 1.74000
v -0.10607 2.95000 1.57737
v -0.00000 2.95000 1.51000
v 0.10607 2.95000 1.57737
v 0.10607 2.77322 1.74000
v 0.07500 2.77322 1.85500
v 0.00000 2.77322 1.90263
v -0.07500 2.77322 1.85500
v -0.10607 2.77322 1.74000
v -0.07500 2.77322 1.62500
v -0.00000 2.77322 1.57737
v 0.07500 2.77322 1.62500
v 0.00000 2.70000 1.74000
v 0.00000 3.07000 2.22000
v 0.10607 2.99678 2.22000
v 0.07500 2.99678 2.33500
v 0.00000 2.99678 2.38263
v -0.07500 2.99678 2.33500
v -0.10607 2.99678 2.22000
v -0.07500 2.99678 2.10500
v -0.00000 2.99678 2.05737
v 0.07500 2.99678 2.10500
v 0.15000 2.82000 2.22000
v 0.10607 2.82000 2.38263
v 0.00000 2.82000 2.45000
v -0.10607 2.82000 2.38263
v -0.15000 2.82000 2.22000
v -0.10607 2.82000 2.05737
v -0.00000 2.82000 1.99000
v 0.10607 2.82000 2.05737
v 0.10607 2.64322 2.22000
v 0.07500 2.64322 2.33500
v 0.00000 2.64322 2.38263
v -0.07500 2.64322 2.33500
v -0.10607 2.64322 2.22000
v -0.07500 2.64322 2.10500
v -0.00000 2.64322 2.05737
v 0.07500 2.64322 2.10500
v 0.00000 2.57000 2.22000
usemtl mD17C50
f 1 3 2
f 1 4 3
f 1 5 4
f 1 6 5
f 1 7 6
f 1 8 7
f 1 9 8
f 1 10 9
f 1 11 10
f 1 12 11
f 1 13 12
f 1 2 13
f 2 3 14
f 3 15 14
f 3 4 15
f 4 16 15
f 4 5 16
f 5 17 16
f 5 6 17
f 6 18 17
f 6 7 18
f 7 19 18
f 7 8 19
f 8 20 19
f 8 9 20
f 9 21 20
f 9 10 21
f 10 22 21
f 10 11 22
f 11 23 22
f 11 12 23
f 12 24 23
f 12 13 24
f 13 25 24
f 13 2 25
f 2 14 25
f 14 15 26
f 15 27 26
f 15 16 27
f 16 28 27
f 16 17 28
f 17 29 28
f 17 18 29
f 18 30 29
f 18 19 30
f 19 31 30
f 19 20 31
f 20 32 31
f 20 21 32
f 21 33 32
f 21 22 33
f 22 34 33
f 22 23 34
f 23 35 34
f 23 24 35
f 24 36 35
f 24 25 36
f 25 37 36
f 25 14 37
f 14 26 37
f 26 27 38
f 27 39 38
f 27 28 39
f 28 40 39
f 28 29 40
f 29 41 40
f 29 30 41
f 30 42 41
f 30 31 42
f 31 43 42
f 31 32 43
f 32 44 43
f 32 33 44
f 33 45 44
f 33 34 45
f 34 46 45
f 34 35 46
f 35 47 46
f 35 36 47
f 36 48 47
f 36 37 48
f 37 49 48
f 37 26 49
f 26 38 49
f 38 39 50
f 39 51 50
f 39 40 51
f 40 52 51
f 40 41 52
f 41 53 52
f 41 42 53
f 42 54 53
f 42 43 54
f 43 55 54
f 43 44 55
f 44 56 55
f 44 45 56
f 45 57 56
f 45 46 57
f 46 58 57
f 46 47 58
f 47 59 58
f 47 48 59
f 48 60 59
f 48 49 60
f 49 61 60
f 49 38 61
f 38 50 61
f 50 51 62
f 51 52 62
f 52 53 62
f 53 54 62
f 54 55 62
f 55 56 62
f 56 57 62
f 57 58 62
f 58 59 62
f 59 60 62
f 60 61 62
f 61 50 62
usemtl mF2C68D
f 63 65 64
f 63 66 65
f 63 67 66
f 63 68 67
f 63 69 68
f 63 70 69
f 63 71 70
f 63 72 71
f 63 73 72
f 63 74 73
f 63 75 74
f 63 64 75
f 64 65 76
f 65 77 76
f 65 66 77
f 66 78 77
f 66 67 78
f 67 79 78
f 67 68 79
f 68 80 79
f 68 69 80
f 69 81 80
f 69 70 81
f 70 82 81
f 70 71 82
f 71 83 82
f 71 72 83
f 72 84 83
f 72 73 84
f 73 85 84
f 73 74 85
f 74 86 85
f 74 75 86
f 75 87 86
f 75 64 87
f 64 76 87
f 76 77 88
f 77 89 88
f 77 78 89
f 78 90 89
f 78 79 90
f 79 91 90
f 79 80 91
f 80 92 91
f 80 81 92
f 81 93 92
f 81 82 93
f 82 94 93
f 82 83 94
f 83 95 94
f 83 84 95
f 84 96 95
f 84 85 96
f 85 97 96
f 85 86 97
f 86 98 97
f 86 87 98
f 87 99 98
f 87 76 99
f 76 88 99
f 88 89 100
f 89 101 100
f 89 90 101
f 90 102 101
f 90 91 102
f 91 103 102
f 91 92 103
f 92 104 103
f 92 93 104
f 93 105 104
f 93 94 105
f 94 106 105
f 94 95 106
f 95 107 106
f 95 96 107
f 96 108 107
f 96 97 108
f 97 109 108
f 97 98 109
f 98 110 109
f 98 99 110
f 99 111 110
f 99 88 111
f 88 100 111
f 100 101 112
f 101 113 112
f 101 102 113
f 102 114 113
f 102 103 114
f 103 115 114
f 103 104 115
f 104 116 115
f 104 105 116
f 105 117 116
f 105 106 117
f 106 118 117
f 106 107 118
f 107 119 118
f 107 108 119
f 108 120 119
f 108 109 120
f 109 121 120
f 109 110 121
f 110 122 121
f 110 111 122
f 111 123 122
f 111 100 123
f 100 112 123
f 112 113 124
f 113 114 124
f 114 115 124
f 115 116 124
f 116 117 124
f 117 118 124
f 118 119 124
f 119 120 124
f 120 121 124
f 121 122 124
f 122 123 124
f 123 112 124
usemtl mD17C50
f 125 126 135
f 126 136 135
f 126 127 136
f 127 137 136
f 127 128 137
f 128 138 137
f 128 129 138
f 129 139 138
f 129 130 139
f 130 140 139
f 130 131 140
f 131 141 140
f 131 132 141
f 132 142 141
f 132 133 142
f 133 143 142
f 133 134 143
f 134 144 143
f 134 125 144
f 125 135 144
f 135 136 145
f 136 146 145
f 136 137 146
f 137 147 146
f 137 138 147
f 138 148 147
f 138 139 148
f 139 149 148
f 139 140 149
f 140 150 149
f 140 141 150
f 141 151 150
f 141 142 151
f 142 152 151
f 142 143 152
f 143 153 152
f 143 144 153
f 144 154 153
f 144 135 154
f 135 145 154
f 125 127 126
f 145 146 147
f 125 128 127
f 145 147 148
f 125 129 128
f 145 148 149
f 125 130 129
f 145 149 150
f 125 131 130
f 145 150 151
f 125 132 131
f 145 151 152
f 125 133 132
f 145 152 153
f 125 134 133
f 145 153 154
f 155 157 156
f 155 158 157
f 155 159 158
f 155 160 159
f 155 161 160
f 155 162 161
f 155 163 162
f 155 164 163
f 155 165 164
f 155 166 165
f 155 167 166
f 155 156 167
f 156 157 168
f 157 169 168
f 157 158 169
f 158 170 169
f 158 159 170
f 159 171 170
f 159 160 171
f 160 172 171
f 160 161 172
f 161 173 172
f 161 162 173
f 162 174 173
f 162 163 174
f 163 175 174
f 163 164 175
f 164 176 175
f 164 165 176
f 165 177 176
f 165 166 177
f 166 178 177
f 166 167 178
f 167 179 178
f 167 156 179
f 156 168 179
f 168 169 180
f 169 181 180
f 169 170 181
f 170 182 181
f 170 171 182
f 171 183 182
f 171 172 183
f 172 184 183
f 172 173 184
f 173 185 184
f 173 174 185
f 174 186 185
f 174 175 186
f 175 187 186
f 175 176 187
f 176 188 187
f 176 177 188
f 177 189 188
f 177 178 189
f 178 190 189
f 178 179 190
f 179 191 190
f 179 168 191
f 168 180 191
f 180 181 192
f 181 193 192
f 181 182 193
f 182 194 193
f 182 183 194
f 183 195 194
f 183 184 195
f 184 196 195
f 184 185 196
f 185 197 196
f 185 186 197
f 186 198 197
f 186 187 198
f 187 199 198
f 187 188 199
f 188 200 199
f 188 189 200
f 189 201 200
f 189 190 201
f 190 202 201
f 190 191 202
f 191 203 202
f 191 180 203
f 180 192 203
f 192 193 204
f 193 205 204
f 193 194 205
f 194 206 205
f 194 195 206
f 195 207 206
f 195 196 207
f 196 208 207
f 196 197 208
f 197 209 208
f 197 198 209
f 198 210 209
f 198 199 210
f 199 211 210
f 199 200 211
f 200 212 211
f 200 201 212
f 201 213 212
f 201 202 213
f 202 214 213
f 202 203 214
f 203 215 214
f 203 192 215
f 192 204 215
f 204 205 216
f 205 206 216
f 206 207 216
f 207 208 216
f 208 209 216
f 209 210 216
f 210 211 216
f 211 212 216
f 212 213 216
f 213 214 216
f 214 215 216
f 215 204 216
usemtl mF2C68D
f 217 219 218
f 217 220 219
f 217 221 220
f 217 222 221
f 217 223 222
f 217 224 223
f 217 225 224
f 217 226 225
f 217 227 226
f 217 228 227
f 217 229 228
f 217 218 229
f 218 219 230
f 219 231 230
f 219 220 231
f 220 232 231
f 220 221 232
f 221 233 232
f 221 222 233
f 222 234 233
f 222 223 234
f 223 235 234
f 223 224 235
f 224 236 235
f 224 225 236
f 225 237 236
f 225 226 237
f 226 238 237
f 226 227 238
f 227 239 238
f 227 228 239
f 228 240 239
f 228 229 240
f 229 241 240
f 229 218 241
f 218 230 241
f 230 231 242
f 231 243 242
f 231 232 243
f 232 244 243
f 232 233 244
f 233 245 244
f 233 234 245
f 234 246 245
f 234 235 246
f 235 247 246
f 235 236 247
f 236 248 247
f 236 237 248
f 237 249 248
f 237 238 249
f 238 250 249
f 238 239 250
f 239 251 250
f 239 240 251
f 240 252 251
f 240 241 252
f 241 253 252
f 241 230 253
f 230 242 253
f 242 243 254
f 243 255 254
f 243 244 255
f 244 256 255
f 244 245 256
f 245 257 256
f 245 246 257
f 246 258 257
f 246 247 258
f 247 259 258
f 247 248 259
f 248 260 259
f 248 249 260
f 249 261 260
f 249 250 261
f 250 262 261
f 250 251 262
f 251 263 262
f 251 252 263
f 252 264 263
f 252 253 264
f 253 265 264
f 253 242 265
f 242 254 265
f 254 255 266
f 255 267 266
f 255 256 267
f 256 268 267
f 256 257 268
f 257 269 268
f 257 258 269
f 258 270 269
f 258 259 270
f 259 271 270
f 259 260 271
f 260 272 271
f 260 261 272
f 261 273 272
f 261 262 273
f 262 274 273
f 262 263 274
f 263 275 274
f 263 264 275
f 264 276 275
f 264 265 276
f 265 277 276
f 265 254 277
f 254 266 277
f 266 267 278
f 267 268 278
f 268 269 278
f 269 270 278
f 270 271 278
f 271 272 278
f 272 273 278
f 273 274 278
f 274 275 278
f 275 276 278
f 276 277 278
f 277 266 278
usemtl m814B41
f 279 281 280
f 279 282 281
f 279 283 282
f 279 284 283
f 279 285 284
f 279 286 285
f 279 287 286
f 279 288 287
f 279 289 288
f 279 290 289
f 279 291 290
f 279 280 291
f 280 281 292
f 281 293 292
f 281 282 293
f 282 294 293
f 282 283 294
f 283 295 294
f 283 284 295
f 284 296 295
f 284 285 296
f 285 297 296
f 285 286 297
f 286 298 297
f 286 287 298
f 287 299 298
f 287 288 299
f 288 300 299
f 288 289 300
f 289 301 300
f 289 290 301
f 290 302 301
f 290 291 302
f 291 303 302
f 291 280 303
f 280 292 303
f 292 293 304
f 293 305 304
f 293 294 305
f 294 306 305
f 294 295 306
f 295 307 306
f 295 296 307
f 296 308 307
f 296 297 308
f 297 309 308
f 297 298 309
f 298 310 309
f 298 299 310
f 299 311 310
f 299 300 311
f 300 312 311
f 300 301 312
f 301 313 312
f 301 302 313
f 302 314 313
f 302 303 314
f 303 315 314
f 303 292 315
f 292 304 315
f 304 305 316
f 305 317 316
f 305 306 317
f 306 318 317
f 306 307 318
f 307 319 318
f 307 308 319
f 308 320 319
f 308 309 320
f 309 321 320
f 309 310 321
f 310 322 321
f 310 311 322
f 311 323 322
f 311 312 323
f 312 324 323
f 312 313 324
f 313 325 324
f 313 314 325
f 314 326 325
f 314 315 326
f 315 327 326
f 315 304 327
f 304 316 327
f 316 317 328
f 317 329 328
f 317 318 329
f 318 330 329
f 318 319 330
f 319 331 330
f 319 320 331
f 320 332 331
f 320 321 332
f 321 333 332
f 321 322 333
f 322 334 333
f 322 323 334
f 323 335 334
f 323 324 335
f 324 336 335
f 324 325 336
f 325 337 336
f 325 326 337
f 326 338 337
f 326 327 338
f 327 339 338
f 327 316 339
f 316 328 339
f 328 329 340
f 329 330 340
f 330 331 340
f 331 332 340
f 332 333 340
f 333 334 340
f 334 335 340
f 335 336 340
f 336 337 340
f 337 338 340
f 338 339 340
f 339 328 340
usemtl mD17C50
f 341 342 351
f 342 352 351
f 342 343 352
f 343 353 352
f 343 344 353
f 344 354 353
f 344 345 354
f 345 355 354
f 345 346 355
f 346 356 355
f 346 347 356
f 347 357 356
f 347 348 357
f 348 358 357
f 348 349 358
f 349 359 358
f 349 350 359
f 350 360 359
f 350 341 360
f 341 351 360
f 351 352 361
f 352 362 361
f 352 353 362
f 353 363 362
f 353 354 363
f 354 364 363
f 354 355 364
f 355 365 364
f 355 356 365
f 356 366 365
f 356 357 366
f 357 367 366
f 357 358 367
f 358 368 367
f 358 359 368
f 359 369 368
f 359 360 369
f 360 370 369
f 360 351 370
f 351 361 370
f 361 362 371
f 362 372 371
f 362 363 372
f 363 373 372
f 363 364 373
f 364 374 373
f 364 365 374
f 365 375 374
f 365 366 375
f 366 376 375
f 366 367 376
f 367 377 376
f 367 368 377
f 368 378 377
f 368 369 378
f 369 379 378
f 369 370 379
f 370 380 379
f 370 361 380
f 361 371 380
f 341 343 342
f 371 372 373
f 341 344 343
f 371 373 374
f 341 345 344
f 371 374 375
f 341 346 345
f 371 375 376
f 341 347 346
f 371 376 377
f 341 348 347
f 371 377 378
f 341 349 348
f 371 378 379
f 341 350 349
f 371 379 380
usemtl m814B41
f 381 383 382
f 381 384 383
f 381 385 384
f 381 386 385
f 381 387 386
f 381 388 387
f 381 389 388
f 381 390 389
f 381 391 390
f 381 392 391
f 381 393 392
f 381 382 393
f 382 383 394
f 383 395 394
f 383 384 395
f 384 396 395
f 384 385 396
f 385 397 396
f 385 386 397
f 386 398 397
f 386 387 398
f 387 399 398
f 387 388 399
f 388 400 399
f 388 389 400
f 389 401 400
f 389 390 401
f 390 402 401
f 390 391 402
f 391 403 402
f 391 392 403
f 392 404 403
f 392 393 404
f 393 405 404
f 393 382 405
f 382 394 405
f 394 395 406
f 395 407 406
f 395 396 407
f 396 408 407
f 396 397 408
f 397 409 408
f 397 398 409
f 398 410 409
f 398 399 410
f 399 411 410
f 399 400 411
f 400 412 411
f 400 401 412
f 401 413 412
f 401 402 413
f 402 414 413
f 402 403 414
f 403 415 414
f 403 404 415
f 404 416 415
f 404 405 416
f 405 417 416
f 405 394 417
f 394 406 417
f 406 407 418
f 407 419 418
f 407 408 419
f 408 420 419
f 408 409 420
f 409 421 420
f 409 410 421
f 410 422 421
f 410 411 422
f 411 423 422
f 411 412 423
f 412 424 423
f 412 413 424
f 413 425 424
f 413 414 425
f 414 426 425
f 414 415 426
f 415 427 426
f 415 416 427
f 416 428 427
f 416 417 428
f 417 429 428
f 417 406 429
f 406 418 429
f 418 419 430
f 419 431 430
f 419 420 431
f 420 432 431
f 420 421 432
f 421 433 432
f 421 422 433
f 422 434 433
f 422 423 434
f 423 435 434
f 423 424 435
f 424 436 435
f 424 425 436
f 425 437 436
f 425 426 437
f 426 438 437
f 426 427 438
f 427 439 438
f 427 428 439
f 428 440 439
f 428 429 440
f 429 441 440
f 429 418 441
f 418 430 441
f 430 431 442
f 431 432 442
f 432 433 442
f 433 434 442
f 434 435 442
f 435 436 442
f 436 437 442
f 437 438 442
f 438 439 442
f 439 440 442
f 440 441 442
f 441 430 442
usemtl mD17C50
f 443 444 453
f 444 454 453
f 444 445 454
f 445 455 454
f 445 446 455
f 446 456 455
f 446 447 456
f 447 457 456
f 447 448 457
f 448 458 457
f 448 449 458
f 449 459 458
f 449 450 459
f 450 460 459
f 450 451 460
f 451 461 460
f 451 452 461
f 452 462 461
f 452 443 462
f 443 453 462
f 443 445 444
f 453 454 455
f 443 446 445
f 453 455 456
f 443 447 446
f 453 456 457
f 443 448 447
f 453 457 458
f 443 449 448
f 453 458 459
f 443 450 449
f 453 459 460
f 443 451 450
f 453 460 461
f 443 452 451
f 453 461 462
f 463 465 464
f 463 466 465
f 463 467 466
f 463 468 467
f 463 469 468
f 463 470 469
f 463 471 470
f 463 472 471
f 463 473 472
f 463 474 473
f 463 475 474
f 463 464 475
f 464 465 476
f 465 477 476
f 465 466 477
f 466 478 477
f 466 467 478
f 467 479 478
f 467 468 479
f 468 480 479
f 468 469 480
f 469 481 480
f 469 470 481
f 470 482 481
f 470 471 482
f 471 483 482
f 471 472 483
f 472 484 483
f 472 473 484
f 473 485 484
f 473 474 485
f 474 486 485
f 474 475 486
f 475 487 486
f 475 464 487
f 464 476 487
f 476 477 488
f 477 489 488
f 477 478 489
f 478 490 489
f 478 479 490
f 479 491 490
f 479 480 491
f 480 492 491
f 480 481 492
f 481 493 492
f 481 482 493
f 482 494 493
f 482 483 494
f 483 495 494
f 483 484 495
f 484 496 495
f 484 485 496
f 485 497 496
f 485 486 497
f 486 498 497
f 486 487 498
f 487 499 498
f 487 476 499
f 476 488 499
f 488 489 500
f 489 501 500
f 489 490 501
f 490 502 501
f 490 491 502
f 491 503 502
f 491 492 503
f 492 504 503
f 492 493 504
f 493 505 504
f 493 494 505
f 494 506 505
f 494 495 506
f 495 507 506
f 495 496 507
f 496 508 507
f 496 497 508
f 497 509 508
f 497 498 509
f 498 510 509
f 498 499 510
f 499 511 510
f 499 488 511
f 488 500 511
f 500 501 512
f 501 513 512
f 501 502 513
f 502 514 513
f 502 503 514
f 503 515 514
f 503 504 515
f 504 516 515
f 504 505 516
f 505 517 516
f 505 506 517
f 506 518 517
f 506 507 518
f 507 519 518
f 507 508 519
f 508 520 519
f 508 509 520
f 509 521 520
f 509 510 521
f 510 522 521
f 510 511 522
f 511 523 522
f 511 500 523
f 500 512 523
f 512 513 524
f 513 514 524
f 514 515 524
f 515 516 524
f 516 517 524
f 517 518 524
f 518 519 524
f 519 520 524
f 520 521 524
f 521 522 524
f 522 523 524
f 523 512 524
usemtl mF0E3BF
f 525 526 531
f 526 532 531
f 526 527 532
f 527 533 532
f 527 528 533
f 528 534 533
f 528 529 534
f 529 535 534
f 529 530 535
f 530 536 535
f 530 525 536
f 525 531 536
f 525 527 526
f 531 532 533
f 525 528 527
f 531 533 534
f 525 529 528
f 531 534 535
f 525 530 529
f 531 535 536
f 537 538 543
f 538 544 543
f 538 539 544
f 539 545 544
f 539 540 545
f 540 546 545
f 540 541 546
f 541 547 546
f 541 542 547
f 542 548 547
f 542 537 548
f 537 543 548
f 537 539 538
f 543 544 545
f 537 540 539
f 543 545 546
f 537 541 540
f 543 546 547
f 537 542 541
f 543 547 548
f 549 550 555
f 550 556 555
f 550 551 556
f 551 557 556
f 551 552 557
f 552 558 557
f 552 553 558
f 553 559 558
f 553 554 559
f 554 560 559
f 554 549 560
f 549 555 560
f 549 551 550
f 555 556 557
f 549 552 551
f 555 557 558
f 549 553 552
f 555 558 559
f 549 554 553
f 555 559 560
usemtl mD17C50
f 561 562 571
f 562 572 571
f 562 563 572
f 563 573 572
f 563 564 573
f 564 574 573
f 564 565 574
f 565 575 574
f 565 566 575
f 566 576 575
f 566 567 576
f 567 577 576
f 567 568 577
f 568 578 577
f 568 569 578
f 569 579 578
f 569 570 579
f 570 580 579
f 570 561 580
f 561 571 580
f 571 572 581
f 572 582 581
f 572 573 582
f 573 583 582
f 573 574 583
f 574 584 583
f 574 575 584
f 575 585 584
f 575 576 585
f 576 586 585
f 576 577 586
f 577 587 586
f 577 578 587
f 578 588 587
f 578 579 588
f 579 589 588
f 579 580 589
f 580 590 589
f 580 571 590
f 571 581 590
f 561 563 562
f 581 582 583
f 561 564 563
f 581 583 584
f 561 565 564
f 581 584 585
f 561 566 565
f 581 585 586
f 561 567 566
f 581 586 587
f 561 568 567
f 581 587 588
f 561 569 568
f 581 588 589
f 561 570 569
f 581 589 590
usemtl mFCF4D9
f 591 593 592
f 591 594 593
f 591 595 594
f 591 596 595
f 591 597 596
f 591 598 597
f 591 599 598
f 591 592 599
f 592 593 600
f 593 601 600
f 593 594 601
f 594 602 601
f 594 595 602
f 595 603 602
f 595 596 603
f 596 604 603
f 596 597 604
f 597 605 604
f 597 598 605
f 598 606 605
f 598 599 606
f 599 607 606
f 599 592 607
f 592 600 607
f 600 601 608
f 601 609 608
f 601 602 609
f 602 610 609
f 602 603 610
f 603 611 610
f 603 604 611
f 604 612 611
f 604 605 612
f 605 613 612
f 605 606 613
f 606 614 613
f 606 607 614
f 607 615 614
f 607 600 615
f 600 608 615
f 608 609 616
f 609 610 616
f 610 611 616
f 611 612 616
f 612 613 616
f 613 614 616
f 614 615 616
f 615 608 616
usemtl m142E35
f 617 619 618
f 617 620 619
f 617 621 620
f 617 622 621
f 617 623 622
f 617 624 623
f 617 625 624
f 617 618 625
f 618 619 626
f 619 627 626
f 619 620 627
f 620 628 627
f 620 621 628
f 621 629 628
f 621 622 629
f 622 630 629
f 622 623 630
f 623 631 630
f 623 624 631
f 624 632 631
f 624 625 632
f 625 633 632
f 625 618 633
f 618 626 633
f 626 627 634
f 627 635 634
f 627 628 635
f 628 636 635
f 628 629 636
f 629 637 636
f 629 630 637
f 630 638 637
f 630 631 638
f 631 639 638
f 631 632 639
f 632 640 639
f 632 633 640
f 633 641 640
f 633 626 641
f 626 634 641
f 634 635 642
f 635 636 642
f 636 637 642
f 637 638 642
f 638 639 642
f 639 640 642
f 640 641 642
f 641 634 642
usemtl mFFFFFF
f 643 645 644
f 643 646 645
f 643 647 646
f 643 648 647
f 643 649 648
f 643 644 649
f 644 645 650
f 645 651 650
f 645 646 651
f 646 652 651
f 646 647 652
f 647 653 652
f 647 648 653
f 648 654 653
f 648 649 654
f 649 655 654
f 649 644 655
f 644 650 655
f 650 651 656
f 651 652 656
f 652 653 656
f 653 654 656
f 654 655 656
f 655 650 656
usemtl m814B41
f 657 659 658
f 657 660 659
f 657 661 660
f 657 662 661
f 657 663 662
f 657 658 663
f 658 659 664
f 659 665 664
f 659 660 665
f 660 666 665
f 660 661 666
f 661 667 666
f 661 662 667
f 662 668 667
f 662 663 668
f 663 669 668
f 663 658 669
f 658 664 669
f 664 665 670
f 665 666 670
f 666 667 670
f 667 668 670
f 668 669 670
f 669 664 670
f 671 673 672
f 671 674 673
f 671 675 674
f 671 676 675
f 671 677 676
f 671 678 677
f 671 679 678
f 671 680 679
f 671 681 680
f 671 682 681
f 671 683 682
f 671 672 683
f 672 673 684
f 673 685 684
f 673 674 685
f 674 686 685
f 674 675 686
f 675 687 686
f 675 676 687
f 676 688 687
f 676 677 688
f 677 689 688
f 677 678 689
f 678 690 689
f 678 679 690
f 679 691 690
f 679 680 691
f 680 692 691
f 680 681 692
f 681 693 692
f 681 682 693
f 682 694 693
f 682 683 694
f 683 695 694
f 683 672 695
f 672 684 695
f 684 685 696
f 685 697 696
f 685 686 697
f 686 698 697
f 686 687 698
f 687 699 698
f 687 688 699
f 688 700 699
f 688 689 700
f 689 701 700
f 689 690 701
f 690 702 701
f 690 691 702
f 691 703 702
f 691 692 703
f 692 704 703
f 692 693 704
f 693 705 704
f 693 694 705
f 694 706 705
f 694 695 706
f 695 707 706
f 695 684 707
f 684 696 707
f 696 697 708
f 697 709 708
f 697 698 709
f 698 710 709
f 698 699 710
f 699 711 710
f 699 700 711
f 700 712 711
f 700 701 712
f 701 713 712
f 701 702 713
f 702 714 713
f 702 703 714
f 703 715 714
f 703 704 715
f 704 716 715
f 704 705 716
f 705 717 716
f 705 706 717
f 706 718 717
f 706 707 718
f 707 719 718
f 707 696 719
f 696 708 719
f 708 709 720
f 709 721 720
f 709 710 721
f 710 722 721
f 710 711 722
f 711 723 722
f 711 712 723
f 712 724 723
f 712 713 724
f 713 725 724
f 713 714 725
f 714 726 725
f 714 715 726
f 715 727 726
f 715 716 727
f 716 728 727
f 716 717 728
f 717 729 728
f 717 718 729
f 718 730 729
f 718 719 730
f 719 731 730
f 719 708 731
f 708 720 731
f 720 721 732
f 721 722 732
f 722 723 732
f 723 724 732
f 724 725 732
f 725 726 732
f 726 727 732
f 727 728 732
f 728 729 732
f 729 730 732
f 730 731 732
f 731 720 732
usemtl mD17C50
f 733 734 743
f 734 744 743
f 734 735 744
f 735 745 744
f 735 736 745
f 736 746 745
f 736 737 746
f 737 747 746
f 737 738 747
f 738 748 747
f 738 739 748
f 739 749 748
f 739 740 749
f 740 750 749
f 740 741 750
f 741 751 750
f 741 742 751
f 742 752 751
f 742 733 752
f 733 743 752
f 733 735 734
f 743 744 745
f 733 736 735
f 743 745 746
f 733 737 736
f 743 746 747
f 733 738 737
f 743 747 748
f 733 739 738
f 743 748 749
f 733 740 739
f 743 749 750
f 733 741 740
f 743 750 751
f 733 742 741
f 743 751 752
f 753 755 754
f 753 756 755
f 753 757 756
f 753 758 757
f 753 759 758
f 753 760 759
f 753 761 760
f 753 762 761
f 753 763 762
f 753 764 763
f 753 765 764
f 753 754 765
f 754 755 766
f 755 767 766
f 755 756 767
f 756 768 767
f 756 757 768
f 757 769 768
f 757 758 769
f 758 770 769
f 758 759 770
f 759 771 770
f 759 760 771
f 760 772 771
f 760 761 772
f 761 773 772
f 761 762 773
f 762 774 773
f 762 763 774
f 763 775 774
f 763 764 775
f 764 776 775
f 764 765 776
f 765 777 776
f 765 754 777
f 754 766 777
f 766 767 778
f 767 779 778
f 767 768 779
f 768 780 779
f 768 769 780
f 769 781 780
f 769 770 781
f 770 782 781
f 770 771 782
f 771 783 782
f 771 772 783
f 772 784 783
f 772 773 784
f 773 785 784
f 773 774 785
f 774 786 785
f 774 775 786
f 775 787 786
f 775 776 787
f 776 788 787
f 776 777 788
f 777 789 788
f 777 766 789
f 766 778 789
f 778 779 790
f 779 791 790
f 779 780 791
f 780 792 791
f 780 781 792
f 781 793 792
f 781 782 793
f 782 794 793
f 782 783 794
f 783 795 794
f 783 784 795
f 784 796 795
f 784 785 796
f 785 797 796
f 785 786 797
f 786 798 797
f 786 787 798
f 787 799 798
f 787 788 799
f 788 800 799
f 788 789 800
f 789 801 800
f 789 778 801
f 778 790 801
f 790 791 802
f 791 803 802
f 791 792 803
f 792 804 803
f 792 793 804
f 793 805 804
f 793 794 805
f 794 806 805
f 794 795 806
f 795 807 806
f 795 796 807
f 796 808 807
f 796 797 808
f 797 809 808
f 797 798 809
f 798 810 809
f 798 799 810
f 799 811 810
f 799 800 811
f 800 812 811
f 800 801 812
f 801 813 812
f 801 790 813
f 790 802 813
f 802 803 814
f 803 804 814
f 804 805 814
f 805 806 814
f 806 807 814
f 807 808 814
f 808 809 814
f 809 810 814
f 810 811 814
f 811 812 814
f 812 813 814
f 813 802 814
usemtl mF0E3BF
f 815 816 821
f 816 822 821
f 816 817 822
f 817 823 822
f 817 818 823
f 818 824 823
f 818 819 824
f 819 825 824
f 819 820 825
f 820 826 825
f 820 815 826
f 815 821 826
f 815 817 816
f 821 822 823
f 815 818 817
f 821 823 824
f 815 819 818
f 821 824 825
f 815 820 819
f 821 825 826
f 827 828 833
f 828 834 833
f 828 829 834
f 829 835 834
f 829 830 835
f 830 836 835
f 830 831 836
f 831 837 836
f 831 832 837
f 832 838 837
f 832 827 838
f 827 833 838
f 827 829 828
f 833 834 835
f 827 830 829
f 833 835 836
f 827 831 830
f 833 836 837
f 827 832 831
f 833 837 838
f 839 840 845
f 840 846 845
f 840 841 846
f 841 847 846
f 841 842 847
f 842 848 847
f 842 843 848
f 843 849 848
f 843 844 849
f 844 850 849
f 844 839 850
f 839 845 850
f 839 841 840
f 845 846 847
f 839 842 841
f 845 847 848
f 839 843 842
f 845 848 849
f 839 844 843
f 845 849 850
usemtl mD17C50
f 851 852 861
f 852 862 861
f 852 853 862
f 853 863 862
f 853 854 863
f 854 864 863
f 854 855 864
f 855 865 864
f 855 856 865
f 856 866 865
f 856 857 866
f 857 867 866
f 857 858 867
f 858 868 867
f 858 859 868
f 859 869 868
f 859 860 869
f 860 870 869
f 860 851 870
f 851 861 870
f 861 862 871
f 862 872 871
f 862 863 872
f 863 873 872
f 863 864 873
f 864 874 873
f 864 865 874
f 865 875 874
f 865 866 875
f 866 876 875
f 866 867 876
f 867 877 876
f 867 868 877
f 868 878 877
f 868 869 878
f 869 879 878
f 869 870 879
f 870 880 879
f 870 861 880
f 861 871 880
f 851 853 852
f 871 872 873
f 851 854 853
f 871 873 874
f 851 855 854
f 871 874 875
f 851 856 855
f 871 875 876
f 851 857 856
f 871 876 877
f 851 858 857
f 871 877 878
f 851 859 858
f 871 878 879
f 851 860 859
f 871 879 880
usemtl mFCF4D9
f 881 883 882
f 881 884 883
f 881 885 884
f 881 886 885
f 881 887 886
f 881 888 887
f 881 889 888
f 881 882 889
f 882 883 890
f 883 891 890
f 883 884 891
f 884 892 891
f 884 885 892
f 885 893 892
f 885 886 893
f 886 894 893
f 886 887 894
f 887 895 894
f 887 888 895
f 888 896 895
f 888 889 896
f 889 897 896
f 889 882 897
f 882 890 897
f 890 891 898
f 891 899 898
f 891 892 899
f 892 900 899
f 892 893 900
f 893 901 900
f 893 894 901
f 894 902 901
f 894 895 902
f 895 903 902
f 895 896 903
f 896 904 903
f 896 897 904
f 897 905 904
f 897 890 905
f 890 898 905
f 898 899 906
f 899 900 906
f 900 901 906
f 901 902 906
f 902 903 906
f 903 904 906
f 904 905 906
f 905 898 906
usemtl m142E35
f 907 909 908
f 907 910 909
f 907 911 910
f 907 912 911
f 907 913 912
f 907 914 913
f 907 915 914
f 907 908 915
f 908 909 916
f 909 917 916
f 909 910 917
f 910 918 917
f 910 911 918
f 911 919 918
f 911 912 919
f 912 920 919
f 912 913 920
f 913 921 920
f 913 914 921
f 914 922 921
f 914 915 922
f 915 923 922
f 915 908 923
f 908 916 923
f 916 917 924
f 917 925 924
f 917 918 925
f 918 926 925
f 918 919 926
f 919 927 926
f 919 920 927
f 920 928 927
f 920 921 928
f 921 929 928
f 921 922 929
f 922 930 929
f 922 923 930
f 923 931 930
f 923 916 931
f 916 924 931
f 924 925 932
f 925 926 932
f 926 927 932
f 927 928 932
f 928 929 932
f 929 930 932
f 930 931 932
f 931 924 932
usemtl mFFFFFF
f 933 935 934
f 933 936 935
f 933 937 936
f 933 938 937
f 933 939 938
f 933 934 939
f 934 935 940
f 935 941 940
f 935 936 941
f 936 942 941
f 936 937 942
f 937 943 942
f 937 938 943
f 938 944 943
f 938 939 944
f 939 945 944
f 939 934 945
f 934 940 945
f 940 941 946
f 941 942 946
f 942 943 946
f 943 944 946
f 944 945 946
f 945 940 946
usemtl m814B41
f 947 949 948
f 947 950 949
f 947 951 950
f 947 952 951
f 947 953 952
f 947 948 953
f 948 949 954
f 949 955 954
f 949 950 955
f 950 956 955
f 950 951 956
f 951 957 956
f 951 952 957
f 952 958 957
f 952 953 958
f 953 959 958
f 953 948 959
f 948 954 959
f 954 955 960
f 955 956 960
f 956 957 960
f 957 958 960
f 958 959 960
f 959 954 960
f 961 963 962
f 961 964 963
f 961 965 964
f 961 966 965
f 961 967 966
f 961 968 967
f 961 969 968
f 961 962 969
f 962 963 970
f 963 971 970
f 963 964 971
f 964 972 971
f 964 965 972
f 965 973 972
f 965 966 973
f 966 974 973
f 966 967 974
f 967 975 974
f 967 968 975
f 968 976 975
f 968 969 976
f 969 977 976
f 969 962 977
f 962 970 977
f 970 971 978
f 971 979 978
f 971 972 979
f 972 980 979
f 972 973 980
f 973 981 980
f 973 974 981
f 974 982 981
f 974 975 982
f 975 983 982
f 975 976 983
f 976 984 983
f 976 977 984
f 977 985 984
f 977 970 985
f 970 978 985
f 978 979 986
f 979 980 986
f 980 981 986
f 981 982 986
f 982 983 986
f 983 984 986
f 984 985 986
f 985 978 986
f 987 989 988
f 987 990 989
f 987 991 990
f 987 992 991
f 987 993 992
f 987 994 993
f 987 995 994
f 987 988 995
f 988 989 996
f 989 997 996
f 989 990 997
f 990 998 997
f 990 991 998
f 991 999 998
f 991 992 999
f 992 1000 999
f 992 993 1000
f 993 1001 1000
f 993 994 1001
f 994 1002 1001
f 994 995 1002
f 995 1003 1002
f 995 988 1003
f 988 996 1003
f 996 997 1004
f 997 1005 1004
f 997 998 1005
f 998 1006 1005
f 998 999 1006
f 999 1007 1006
f 999 1000 1007
f 1000 1008 1007
f 1000 1001 1008
f 1001 1009 1008
f 1001 1002 1009
f 1002 1010 1009
f 1002 1003 1010
f 1003 1011 1010
f 1003 996 1011
f 996 1004 1011
f 1004 1005 1012
f 1005 1006 1012
f 1006 1007 1012
f 1007 1008 1012
f 1008 1009 1012
f 1009 1010 1012
f 1010 1011 1012
f 1011 1004 1012
f 1013 1015 1014
f 1013 1016 1015
f 1013 1017 1016
f 1013 1018 1017
f 1013 1019 1018
f 1013 1020 1019
f 1013 1021 1020
f 1013 1014 1021
f 1014 1015 1022
f 1015 1023 1022
f 1015 1016 1023
f 1016 1024 1023
f 1016 1017 1024
f 1017 1025 1024
f 1017 1018 1025
f 1018 1026 1025
f 1018 1019 1026
f 1019 1027 1026
f 1019 1020 1027
f 1020 1028 1027
f 1020 1021 1028
f 1021 1029 1028
f 1021 1014 1029
f 1014 1022 1029
f 1022 1023 1030
f 1023 1031 1030
f 1023 1024 1031
f 1024 1032 1031
f 1024 1025 1032
f 1025 1033 1032
f 1025 1026 1033
f 1026 1034 1033
f 1026 1027 1034
f 1027 1035 1034
f 1027 1028 1035
f 1028 1036 1035
f 1028 1029 1036
f 1029 1037 1036
f 1029 1022 1037
f 1022 1030 1037
f 1030 1031 1038
f 1031 1032 1038
f 1032 1033 1038
f 1033 1034 1038
f 1034 1035 1038
f 1035 1036 1038
f 1036 1037 1038
f 1037 1030 1038
f 1039 1041 1040
f 1039 1042 1041
f 1039 1043 1042
f 1039 1044 1043
f 1039 1045 1044
f 1039 1046 1045
f 1039 1047 1046
f 1039 1040 1047
f 1040 1041 1048
f 1041 1049 1048
f 1041 1042 1049
f 1042 1050 1049
f 1042 1043 1050
f 1043 1051 1050
f 1043 1044 1051
f 1044 1052 1051
f 1044 1045 1052
f 1045 1053 1052
f 1045 1046 1053
f 1046 1054 1053
f 1046 1047 1054
f 1047 1055 1054
f 1047 1040 1055
f 1040 1048 1055
f 1048 1049 1056
f 1049 1057 1056
f 1049 1050 1057
f 1050 1058 1057
f 1050 1051 1058
f 1051 1059 1058
f 1051 1052 1059
f 1052 1060 1059
f 1052 1053 1060
f 1053 1061 1060
f 1053 1054 1061
f 1054 1062 1061
f 1054 1055 1062
f 1055 1063 1062
f 1055 1048 1063
f 1048 1056 1063
f 1056 1057 1064
f 1057 1058 1064
f 1058 1059 1064
f 1059 1060 1064
f 1060 1061 1064
f 1061 1062 1064
f 1062 1063 1064
f 1063 1056 1064
f 1065 1067 1066
f 1065 1068 1067
f 1065 1069 1068
f 1065 1070 1069
f 1065 1071 1070
f 1065 1072 1071
f 1065 1073 1072
f 1065 1066 1073
f 1066 1067 1074
f 1067 1075 1074
f 1067 1068 1075
f 1068 1076 1075
f 1068 1069 1076
f 1069 1077 1076
f 1069 1070 1077
f 1070 1078 1077
f 1070 1071 1078
f 1071 1079 1078
f 1071 1072 1079
f 1072 1080 1079
f 1072 1073 1080
f 1073 1081 1080
f 1073 1066 1081
f 1066 1074 1081
f 1074 1075 1082
f 1075 1083 1082
f 1075 1076 1083
f 1076 1084 1083
f 1076 1077 1084
f 1077 1085 1084
f 1077 1078 1085
f 1078 1086 1085
f 1078 1079 1086
f 1079 1087 1086
f 1079 1080 1087
f 1080 1088 1087
f 1080 1081 1088
f 1081 1089 1088
f 1081 1074 1089
f 1074 1082 1089
f 1082 1083 1090
f 1083 1084 1090
f 1084 1085 1090
f 1085 1086 1090
f 1086 1087 1090
f 1087 1088 1090
f 1088 1089 1090
f 1089 1082 1090
